<svg width="32" height="32" viewBox="0 0 32 32" fill="none" xmlns="http://www.w3.org/2000/svg">
<path d="M8.03193 29.9566L2.19043 26.5846L8.28193 16.0136V29.2351L13.1904 26.4011L10.1829 21.1821L10.3084 21.0466L11.4364 19.9166L11.7899 20.2701L10.8034 21.2571L13.8729 26.5841L8.03193 29.9566ZM2.87343 26.4011L7.78193 29.2351V17.8831L2.87343 26.4011ZM20.6289 14.9676L19.5684 13.9071L20.9829 12.4931L22.0434 13.5536L20.6289 14.9676ZM20.2754 13.9066L20.6289 14.2601L21.3364 13.5531L20.9829 13.1996L20.2754 13.9066ZM18.5079 17.0891L17.4474 16.0281L18.8619 14.6141L19.9224 15.6746L18.5079 17.0891ZM18.1544 16.0281L18.5079 16.3821L19.2154 15.6746L18.8619 15.3211L18.1544 16.0281ZM17.0934 10.7251L17.4469 10.3711L18.1544 11.0786L17.8009 11.4321L17.0934 10.7251ZM16.3869 11.4306L16.7404 11.0776L17.4474 11.7846L17.0934 12.1381L16.3869 11.4306ZM15.6794 12.1401L16.0329 11.7861L16.7399 12.4931L16.3864 12.8471L15.6794 12.1401ZM14.9719 12.8461L15.3254 12.4926L16.0329 13.2001L15.6794 13.5536L14.9719 12.8461ZM13.7349 18.6791L14.0879 18.3251L15.1489 19.3856L14.7954 19.7396L13.7349 18.6791ZM12.8509 19.2096L13.2044 18.8556L14.2654 19.9161L13.9119 20.2701L12.8509 19.2096Z" fill="#000958"/>
<path d="M13.2046 20.8739C13.1383 20.8739 13.0746 20.8476 13.0276 20.8009L10.9061 18.6799C10.8641 18.638 10.8385 18.5826 10.8336 18.5235C10.8287 18.4645 10.845 18.4056 10.8796 18.3574L12.6476 15.8824C12.6687 15.8529 12.696 15.8283 12.7276 15.8103C12.7593 15.7924 12.7944 15.7816 12.8306 15.7787C12.8668 15.7757 12.9033 15.7807 12.9374 15.7933C12.9715 15.8058 13.0024 15.8257 13.0281 15.8514L15.8566 18.6799C15.8823 18.7056 15.9021 18.7366 15.9146 18.7707C15.9272 18.8048 15.9321 18.8413 15.9291 18.8775C15.9261 18.9137 15.9152 18.9488 15.8973 18.9804C15.8793 19.012 15.8547 19.0393 15.8251 19.0604L13.3501 20.8279C13.3075 20.858 13.2567 20.8741 13.2046 20.8739ZM11.4096 18.4759L13.2316 20.2974L15.2941 18.8249L12.8831 16.4134L11.4096 18.4759Z" fill="#000958"/>
<path d="M13.1776 20.9507L10.7566 18.5302L11.7641 17.1202L12.1706 17.4112L11.4101 18.4762L13.2316 20.2977L14.2971 19.5367L14.5876 19.9442L13.1776 20.9507ZM15.6296 19.1252L12.5826 16.0777L13.0041 14.8147L13.0456 14.7732L23.2571 4.56169L23.6106 3.50119L25.2441 1.86719L29.8211 6.48269L28.2066 8.09669L27.1461 8.45069L16.8931 18.7042L15.6296 19.1252ZM13.1551 15.9432L15.7651 18.5532L16.6231 18.2672L26.8761 8.01469L27.9366 7.66069L29.1151 6.48169L25.2421 2.57669L24.0471 3.77219L23.6936 4.83269L23.6521 4.87419L13.4411 15.0852L13.1551 15.9432Z" fill="#000958"/>
<path d="M15.326 17.4426L16.3865 16.3821L16.74 16.7356L15.6795 17.7961L15.326 17.4426ZM11.9675 21.1546L10.553 19.7406L11.6135 18.6801L13.028 20.0941L11.9675 21.1546ZM11.26 19.7401L11.9675 20.4471L12.321 20.0936L11.6135 19.3866L11.26 19.7401ZM21.69 11.0781L20.6295 10.0176L23.458 7.18956L24.5185 8.25006L21.69 11.0781ZM21.3365 10.0176L21.69 10.3711L23.8115 8.25006L23.458 7.89656L21.3365 10.0176ZM26.027 6.22306L25.4845 5.68006L25.7025 4.59106L26.8165 3.47656L28.231 4.89056L27.1165 6.00506L26.027 6.22306ZM26.0275 5.51606L26.192 5.68006L26.87 5.54456L27.524 4.89106L26.8165 4.18406L26.163 4.83756L26.0275 5.51606ZM14.6185 16.7351L15.679 15.6751L16.0325 16.0281L14.9725 17.0891L14.6185 16.7351ZM13.9115 16.0281L14.972 14.9681L15.3255 15.3211L14.2655 16.3821L13.9115 16.0281Z" fill="#000958"/>
<path d="M2.53198 26.2427H13.532V26.7427H2.53198V26.2427ZM23.532 30.0672L18.032 26.8917V20.7282L23.532 17.5527L29.032 20.7282V26.8917L23.532 30.0672ZM18.532 26.6027L23.532 29.4897L28.532 26.6027V21.0172L23.532 18.1302L18.532 21.0172V26.6027Z" fill="#000958"/>
<path d="M28.657 27.0892L23.532 24.1302L18.407 27.0892L18.157 26.6567L23.532 23.5527L28.907 26.6567L28.657 27.0892Z" fill="#000958"/>
<path d="M23.282 23.7158H23.782V29.7783H23.282V23.7158Z" fill="#000958"/>
<path d="M23.282 18H23.782V24.0625H23.282V18Z" fill="#000958"/>
<path d="M23.532 24.1302L18.157 21.0267L18.407 20.5942L23.532 23.5527L28.657 20.5942L28.907 21.0267L23.532 24.1302Z" fill="#000958"/>
</svg>
