<svg width="38" height="33" viewBox="0 0 38 33" fill="none" xmlns="http://www.w3.org/2000/svg">
<mask id="mask0_107_2719" style="mask-type:alpha" maskUnits="userSpaceOnUse" x="0" y="0" width="38" height="33">
<path d="M8.8159 11.6595L9.1717 12.0108C9.15502 12.0277 9.14453 12.052 9.14453 12.0786C9.14453 12.1052 9.15502 12.1294 9.1717 12.1463C9.18816 12.163 9.20913 12.1712 9.22962 12.1712H28.5376C28.5581 12.1712 28.5791 12.163 28.5955 12.1463C28.6122 12.1294 28.6227 12.1052 28.6227 12.0786L8.8159 11.6595ZM8.8159 11.6595L9.1717 12.0108C9.18816 11.9942 9.20912 11.986 9.22962 11.986H28.5376C28.5581 11.986 28.5791 11.9942 28.5955 12.0108C28.6122 12.0277 28.6227 12.0519 28.6227 12.0785L8.8159 11.6595ZM8.8159 15.4606L9.1717 15.1093C9.18816 15.126 9.20913 15.1342 9.22962 15.1342H17.4209C17.4209 15.1342 17.4209 15.1342 17.4209 15.1342C17.4414 15.1342 17.4623 15.126 17.4788 15.1093C17.4955 15.0924 17.506 15.0682 17.506 15.0416L8.8159 15.4606ZM8.8159 15.4606L9.1717 15.1093C9.15502 15.0924 9.14453 15.0682 9.14453 15.0416C9.14453 15.015 9.15502 14.9907 9.1717 14.9738C9.18816 14.9572 9.20913 14.949 9.22962 14.949H17.4209C17.4209 14.949 17.4209 14.949 17.4209 14.949C17.4414 14.949 17.4623 14.9572 17.4788 14.9738L17.8346 14.6226L17.4788 14.9738C17.4955 14.9907 17.506 15.015 17.506 15.0415L8.8159 15.4606ZM9.22962 9.02295H28.5376C28.5581 9.02295 28.5791 9.03114 28.5955 9.04781C28.6122 9.0647 28.6227 9.08895 28.6227 9.11555C28.6227 9.14215 28.6122 9.16639 28.5955 9.18328C28.5791 9.19996 28.5581 9.20814 28.5376 9.20814H9.22962C9.20912 9.20814 9.18816 9.19996 9.1717 9.18328C9.15502 9.16639 9.14453 9.14215 9.14453 9.11555C9.14453 9.08895 9.15502 9.0647 9.1717 9.04781C9.18816 9.03114 9.20913 9.02295 9.22962 9.02295ZM9.45632 21.7129C9.25334 21.4052 9.14459 21.0428 9.14453 20.6716C9.14516 20.1736 9.34081 19.6975 9.68658 19.3472L9.33078 18.9959L9.68658 19.3472C10.0322 18.9972 10.4995 18.8014 10.9855 18.8009C11.3478 18.801 11.7026 18.9098 12.0049 19.1145C12.3075 19.3192 12.5442 19.6109 12.6843 19.9534C12.8244 20.296 12.8612 20.6733 12.7897 21.0373C12.7182 21.4014 12.5419 21.7349 12.284 21.9961C12.0262 22.2572 11.6985 22.4343 11.3427 22.506C10.987 22.5776 10.6182 22.5409 10.2827 22.4002C9.94715 22.2594 9.65931 22.0205 9.45632 21.7129ZM12.3752 21.6051C12.5579 21.3281 12.6551 21.0032 12.6551 20.6713C12.6551 20.2264 12.4806 19.7984 12.1681 19.4819C11.8554 19.1652 11.4299 18.9861 10.9849 18.9861C10.6531 18.9861 10.3294 19.0858 10.0545 19.2717C9.7798 19.4577 9.56663 19.7213 9.44099 20.0285C9.31538 20.3356 9.28261 20.6732 9.34657 20.9989C9.41053 21.3245 9.56856 21.6246 9.80165 21.8606C10.0348 22.0968 10.3326 22.2583 10.6579 22.3239C10.9831 22.3894 11.3202 22.3557 11.6261 22.2273C11.932 22.099 12.1925 21.8821 12.3752 21.6051Z" fill="black" stroke="black"/>
<path d="M32.8798 27.69H35.8512H35.8518C36.1414 27.6897 36.4177 27.5729 36.6205 27.3675C36.823 27.1624 36.9359 26.8855 36.9363 26.5981V26.5974V2.30075V2.30011C36.9359 2.01266 36.823 1.73583 36.6205 1.53066C36.4177 1.32527 36.1414 1.20854 35.8518 1.20816H35.8512L1.91592 1.20816L1.91526 1.20816C1.62569 1.20854 1.3494 1.32527 1.14662 1.53066C0.944044 1.73583 0.831196 2.01266 0.830826 2.30011V2.30075L0.830825 26.5975L0.830826 26.5981C0.831196 26.8855 0.944043 27.1624 1.14662 27.3675C1.3494 27.5729 1.62569 27.6897 1.91526 27.6901H1.91592H19.5148L19.3843 27.8752H1.91647C1.58558 27.8749 1.26705 27.7416 1.03111 27.5027C0.79502 27.2636 0.661077 26.938 0.660645 26.5972V2.30104C0.661077 1.96017 0.79502 1.63464 1.03111 1.39552C1.26699 1.15661 1.58543 1.02338 1.91623 1.02295H35.8509C36.1817 1.02338 36.5001 1.15661 36.736 1.39552C36.9721 1.6347 37.1061 1.96033 37.1064 2.30129V26.5969C37.1061 26.9379 36.9721 27.2635 36.736 27.5027C36.5 27.7416 36.1815 27.8749 35.8506 27.8752H33.0103L32.8798 27.69Z" fill="black" stroke="black"/>
<mask id="path-3-inside-1_107_2719" fill="white">
<path d="M24.4145 29.3641L23.3926 30.7956L23.2766 30.216C23.2514 30.0157 23.1514 29.8329 22.9972 29.705C22.9125 29.6348 22.8144 29.583 22.7092 29.5526C22.6039 29.5222 22.4936 29.5139 22.385 29.5282L21.6531 29.6029L22.7674 28.0218C22.3724 27.9411 21.9995 27.774 21.6749 27.5323L20.2032 29.6202C20.1128 29.7448 20.061 29.8938 20.0544 30.0483C20.0479 30.2027 20.0868 30.3557 20.1664 30.4877C20.2471 30.621 20.3643 30.7277 20.5038 30.7948C20.6433 30.8619 20.799 30.8865 20.952 30.8656L22.1873 30.7394L22.405 31.8271C22.4231 31.9801 22.4852 32.1243 22.5836 32.2417C22.682 32.3592 22.8123 32.4448 22.9584 32.4877C23.0345 32.5111 23.1137 32.523 23.1932 32.523C23.3191 32.5231 23.4432 32.4931 23.5555 32.4356C23.6678 32.3781 23.7652 32.2947 23.8398 32.192L25.9451 29.2425C25.6381 29.3686 25.3106 29.4359 24.9794 29.4408C24.7886 29.4402 24.5987 29.4144 24.4145 29.3641ZM30.7185 27.5322C30.3938 27.7739 30.0209 27.941 29.6259 28.0217L30.7403 29.6028L30.0083 29.5282C29.8998 29.5138 29.7895 29.5221 29.6842 29.5525C29.5789 29.5829 29.4809 29.6348 29.3961 29.705C29.2419 29.8329 29.1419 30.0157 29.1167 30.216L29.0007 30.7953L27.9769 29.3611C27.4675 29.4889 26.931 29.4467 26.4472 29.2409L28.5565 32.196C28.6309 32.2978 28.7279 32.3804 28.8397 32.4372C28.9514 32.494 29.0748 32.5234 29.1998 32.523C29.2795 32.523 29.3587 32.5111 29.435 32.4877C29.581 32.4448 29.7114 32.3592 29.8098 32.2418C29.9082 32.1243 29.9703 31.9801 29.9883 31.8271L30.206 30.7394L31.4414 30.8656C31.5944 30.8866 31.7502 30.8621 31.8897 30.795C32.0292 30.7279 32.1464 30.6211 32.227 30.4877C32.3062 30.3568 32.3454 30.2051 32.3396 30.0517C32.3337 29.8982 32.2831 29.75 32.1941 29.6257L30.7185 27.5322ZM27.734 28.2038C28.1178 28.0345 28.421 27.7197 28.5785 27.3268C28.6322 27.2135 28.6984 27.1066 28.7756 27.0082C28.8943 26.9619 29.0179 26.9297 29.1438 26.9121C29.3523 26.9175 29.5589 26.8716 29.746 26.7783C29.9331 26.685 30.095 26.5472 30.2179 26.3765C30.3408 26.2059 30.421 26.0077 30.4517 25.7988C30.4823 25.5899 30.4624 25.3765 30.3937 25.1771C30.3711 25.0488 30.3632 24.9182 30.3703 24.7879C30.4375 24.6856 30.5157 24.5911 30.6034 24.5061C30.9267 24.2309 31.1302 23.8379 31.17 23.4121C31.1302 22.9862 30.9267 22.5933 30.6034 22.318C30.5164 22.2335 30.4385 22.1398 30.3712 22.0385C30.3632 21.9075 30.3708 21.7761 30.3937 21.647C30.4941 21.2407 30.4317 20.8106 30.22 20.4508C29.9457 20.1342 29.5588 19.9405 29.1438 19.912C29.0185 19.8944 28.8956 19.8626 28.7773 19.8171C28.6992 19.7184 28.6324 19.611 28.5782 19.4971C28.4209 19.1041 28.1177 18.7893 27.7337 18.6203C27.334 18.5294 26.915 18.6019 26.5678 18.822C26.4506 18.8861 26.3259 18.935 26.1967 18.9675C26.0674 18.935 25.9427 18.8861 25.8256 18.822C25.4782 18.602 25.0592 18.5296 24.6594 18.6203C24.2755 18.7896 23.9724 19.1044 23.8149 19.4974C23.7611 19.6107 23.695 19.7175 23.6178 19.8159C23.4991 19.8622 23.3755 19.8944 23.2495 19.912C22.8346 19.9404 22.4477 20.134 22.1733 20.4505C21.9617 20.8104 21.8992 21.2406 21.9996 21.647C22.0223 21.7754 22.0301 21.906 22.0231 22.0362C21.9558 22.1385 21.8777 22.233 21.7899 22.318C21.4667 22.5933 21.2632 22.9862 21.2234 23.4121C21.2632 23.8379 21.4667 24.2309 21.7899 24.5061C21.877 24.5906 21.9549 24.6843 22.0222 24.7856C22.0301 24.9166 22.0226 25.048 21.9996 25.1771C21.931 25.3766 21.9112 25.5898 21.9418 25.7987C21.9725 26.0076 22.0527 26.2059 22.1756 26.3764C22.2985 26.547 22.4604 26.6849 22.6474 26.7782C22.8345 26.8715 23.0411 26.9174 23.2495 26.9121C23.3748 26.9297 23.4978 26.9616 23.6161 27.007C23.6942 27.1057 23.761 27.2131 23.8152 27.3271C23.9725 27.72 24.2757 28.0348 24.6597 28.2038C24.7637 28.238 24.8725 28.2553 24.9819 28.255C25.2781 28.235 25.5663 28.1486 25.8256 28.0021C25.9427 27.938 26.0674 27.8891 26.1967 27.8566C26.3259 27.8891 26.4506 27.938 26.5678 28.0021C26.9152 28.2221 27.3342 28.2945 27.734 28.2038ZM25.3262 26.9303C25.2277 26.9805 25.126 27.0241 25.0219 27.0608C24.9554 26.9651 24.8957 26.8647 24.8431 26.7605C24.7347 26.4749 24.5469 26.2272 24.3025 26.0475C24.0581 25.8677 23.7675 25.7635 23.4658 25.7475C23.3528 25.7288 23.2412 25.7023 23.1318 25.6682C23.1336 25.5538 23.1432 25.4397 23.1604 25.3267C23.2192 25.0263 23.2106 24.7162 23.1353 24.4196C23.0262 24.1417 22.8565 23.8924 22.6387 23.6904C22.553 23.6043 22.4744 23.5112 22.4036 23.412C22.4744 23.3129 22.553 23.2198 22.6387 23.1337C22.8565 22.9317 23.0262 22.6824 23.1353 22.4045C23.2106 22.1077 23.2192 21.7976 23.1604 21.4971C23.1433 21.384 23.1337 21.27 23.1318 21.1556C23.2413 21.1217 23.3528 21.0953 23.4658 21.0766C23.7675 21.0609 24.0583 20.9568 24.3027 20.7769C24.5472 20.5971 24.7349 20.3493 24.8431 20.0636C24.8956 19.9593 24.9554 19.859 25.0219 19.7632C25.126 19.8 25.2277 19.8436 25.3262 19.8937C25.5858 20.0628 25.888 20.1527 26.1967 20.1527C26.5054 20.1527 26.8075 20.0628 27.0672 19.8937C27.1657 19.8436 27.2673 19.8 27.3714 19.7632C27.4379 19.859 27.4977 19.9593 27.5503 20.0636C27.6587 20.3492 27.8464 20.5968 28.0908 20.7766C28.3353 20.9564 28.6259 21.0606 28.9276 21.0766C29.0406 21.0953 29.1521 21.1217 29.2615 21.1559C29.2597 21.2703 29.2502 21.3843 29.233 21.4974C29.1741 21.7978 29.1827 22.1078 29.2581 22.4045C29.3671 22.6824 29.5369 22.9317 29.7546 23.1337C29.8404 23.2198 29.919 23.3129 29.9898 23.412C29.919 23.5112 29.8404 23.6043 29.7546 23.6904C29.5369 23.8924 29.3671 24.1417 29.2581 24.4196C29.1827 24.7163 29.1741 25.0265 29.233 25.327C29.2501 25.44 29.2596 25.5541 29.2615 25.6685C29.1521 25.7024 29.0405 25.7288 28.9276 25.7475C28.6258 25.7632 28.3351 25.8673 28.0906 26.0471C27.8461 26.227 27.6584 26.4748 27.5503 26.7605C27.4977 26.8648 27.438 26.9651 27.3714 27.0608C27.2673 27.0241 27.1657 26.9805 27.0672 26.9303C26.8075 26.7613 26.5054 26.6714 26.1967 26.6714C25.888 26.6714 25.5858 26.7613 25.3262 26.9303Z"/>
</mask>
<path d="M24.4145 29.3641L23.3926 30.7956L23.2766 30.216C23.2514 30.0157 23.1514 29.8329 22.9972 29.705C22.9125 29.6348 22.8144 29.583 22.7092 29.5526C22.6039 29.5222 22.4936 29.5139 22.385 29.5282L21.6531 29.6029L22.7674 28.0218C22.3724 27.9411 21.9995 27.774 21.6749 27.5323L20.2032 29.6202C20.1128 29.7448 20.061 29.8938 20.0544 30.0483C20.0479 30.2027 20.0868 30.3557 20.1664 30.4877C20.2471 30.621 20.3643 30.7277 20.5038 30.7948C20.6433 30.8619 20.799 30.8865 20.952 30.8656L22.1873 30.7394L22.405 31.8271C22.4231 31.9801 22.4852 32.1243 22.5836 32.2417C22.682 32.3592 22.8123 32.4448 22.9584 32.4877C23.0345 32.5111 23.1137 32.523 23.1932 32.523C23.3191 32.5231 23.4432 32.4931 23.5555 32.4356C23.6678 32.3781 23.7652 32.2947 23.8398 32.192L25.9451 29.2425C25.6381 29.3686 25.3106 29.4359 24.9794 29.4408C24.7886 29.4402 24.5987 29.4144 24.4145 29.3641ZM30.7185 27.5322C30.3938 27.7739 30.0209 27.941 29.6259 28.0217L30.7403 29.6028L30.0083 29.5282C29.8998 29.5138 29.7895 29.5221 29.6842 29.5525C29.5789 29.5829 29.4809 29.6348 29.3961 29.705C29.2419 29.8329 29.1419 30.0157 29.1167 30.216L29.0007 30.7953L27.9769 29.3611C27.4675 29.4889 26.931 29.4467 26.4472 29.2409L28.5565 32.196C28.6309 32.2978 28.7279 32.3804 28.8397 32.4372C28.9514 32.494 29.0748 32.5234 29.1998 32.523C29.2795 32.523 29.3587 32.5111 29.435 32.4877C29.581 32.4448 29.7114 32.3592 29.8098 32.2418C29.9082 32.1243 29.9703 31.9801 29.9883 31.8271L30.206 30.7394L31.4414 30.8656C31.5944 30.8866 31.7502 30.8621 31.8897 30.795C32.0292 30.7279 32.1464 30.6211 32.227 30.4877C32.3062 30.3568 32.3454 30.2051 32.3396 30.0517C32.3337 29.8982 32.2831 29.75 32.1941 29.6257L30.7185 27.5322ZM27.734 28.2038C28.1178 28.0345 28.421 27.7197 28.5785 27.3268C28.6322 27.2135 28.6984 27.1066 28.7756 27.0082C28.8943 26.9619 29.0179 26.9297 29.1438 26.9121C29.3523 26.9175 29.5589 26.8716 29.746 26.7783C29.9331 26.685 30.095 26.5472 30.2179 26.3765C30.3408 26.2059 30.421 26.0077 30.4517 25.7988C30.4823 25.5899 30.4624 25.3765 30.3937 25.1771C30.3711 25.0488 30.3632 24.9182 30.3703 24.7879C30.4375 24.6856 30.5157 24.5911 30.6034 24.5061C30.9267 24.2309 31.1302 23.8379 31.17 23.4121C31.1302 22.9862 30.9267 22.5933 30.6034 22.318C30.5164 22.2335 30.4385 22.1398 30.3712 22.0385C30.3632 21.9075 30.3708 21.7761 30.3937 21.647C30.4941 21.2407 30.4317 20.8106 30.22 20.4508C29.9457 20.1342 29.5588 19.9405 29.1438 19.912C29.0185 19.8944 28.8956 19.8626 28.7773 19.8171C28.6992 19.7184 28.6324 19.611 28.5782 19.4971C28.4209 19.1041 28.1177 18.7893 27.7337 18.6203C27.334 18.5294 26.915 18.6019 26.5678 18.822C26.4506 18.8861 26.3259 18.935 26.1967 18.9675C26.0674 18.935 25.9427 18.8861 25.8256 18.822C25.4782 18.602 25.0592 18.5296 24.6594 18.6203C24.2755 18.7896 23.9724 19.1044 23.8149 19.4974C23.7611 19.6107 23.695 19.7175 23.6178 19.8159C23.4991 19.8622 23.3755 19.8944 23.2495 19.912C22.8346 19.9404 22.4477 20.134 22.1733 20.4505C21.9617 20.8104 21.8992 21.2406 21.9996 21.647C22.0223 21.7754 22.0301 21.906 22.0231 22.0362C21.9558 22.1385 21.8777 22.233 21.7899 22.318C21.4667 22.5933 21.2632 22.9862 21.2234 23.4121C21.2632 23.8379 21.4667 24.2309 21.7899 24.5061C21.877 24.5906 21.9549 24.6843 22.0222 24.7856C22.0301 24.9166 22.0226 25.048 21.9996 25.1771C21.931 25.3766 21.9112 25.5898 21.9418 25.7987C21.9725 26.0076 22.0527 26.2059 22.1756 26.3764C22.2985 26.547 22.4604 26.6849 22.6474 26.7782C22.8345 26.8715 23.0411 26.9174 23.2495 26.9121C23.3748 26.9297 23.4978 26.9616 23.6161 27.007C23.6942 27.1057 23.761 27.2131 23.8152 27.3271C23.9725 27.72 24.2757 28.0348 24.6597 28.2038C24.7637 28.238 24.8725 28.2553 24.9819 28.255C25.2781 28.235 25.5663 28.1486 25.8256 28.0021C25.9427 27.938 26.0674 27.8891 26.1967 27.8566C26.3259 27.8891 26.4506 27.938 26.5678 28.0021C26.9152 28.2221 27.3342 28.2945 27.734 28.2038ZM25.3262 26.9303C25.2277 26.9805 25.126 27.0241 25.0219 27.0608C24.9554 26.9651 24.8957 26.8647 24.8431 26.7605C24.7347 26.4749 24.5469 26.2272 24.3025 26.0475C24.0581 25.8677 23.7675 25.7635 23.4658 25.7475C23.3528 25.7288 23.2412 25.7023 23.1318 25.6682C23.1336 25.5538 23.1432 25.4397 23.1604 25.3267C23.2192 25.0263 23.2106 24.7162 23.1353 24.4196C23.0262 24.1417 22.8565 23.8924 22.6387 23.6904C22.553 23.6043 22.4744 23.5112 22.4036 23.412C22.4744 23.3129 22.553 23.2198 22.6387 23.1337C22.8565 22.9317 23.0262 22.6824 23.1353 22.4045C23.2106 22.1077 23.2192 21.7976 23.1604 21.4971C23.1433 21.384 23.1337 21.27 23.1318 21.1556C23.2413 21.1217 23.3528 21.0953 23.4658 21.0766C23.7675 21.0609 24.0583 20.9568 24.3027 20.7769C24.5472 20.5971 24.7349 20.3493 24.8431 20.0636C24.8956 19.9593 24.9554 19.859 25.0219 19.7632C25.126 19.8 25.2277 19.8436 25.3262 19.8937C25.5858 20.0628 25.888 20.1527 26.1967 20.1527C26.5054 20.1527 26.8075 20.0628 27.0672 19.8937C27.1657 19.8436 27.2673 19.8 27.3714 19.7632C27.4379 19.859 27.4977 19.9593 27.5503 20.0636C27.6587 20.3492 27.8464 20.5968 28.0908 20.7766C28.3353 20.9564 28.6259 21.0606 28.9276 21.0766C29.0406 21.0953 29.1521 21.1217 29.2615 21.1559C29.2597 21.2703 29.2502 21.3843 29.233 21.4974C29.1741 21.7978 29.1827 22.1078 29.2581 22.4045C29.3671 22.6824 29.5369 22.9317 29.7546 23.1337C29.8404 23.2198 29.919 23.3129 29.9898 23.412C29.919 23.5112 29.8404 23.6043 29.7546 23.6904C29.5369 23.8924 29.3671 24.1417 29.2581 24.4196C29.1827 24.7163 29.1741 25.0265 29.233 25.327C29.2501 25.44 29.2596 25.5541 29.2615 25.6685C29.1521 25.7024 29.0405 25.7288 28.9276 25.7475C28.6258 25.7632 28.3351 25.8673 28.0906 26.0471C27.8461 26.227 27.6584 26.4748 27.5503 26.7605C27.4977 26.8648 27.438 26.9651 27.3714 27.0608C27.2673 27.0241 27.1657 26.9805 27.0672 26.9303C26.8075 26.7613 26.5054 26.6714 26.1967 26.6714C25.888 26.6714 25.5858 26.7613 25.3262 26.9303Z" fill="black" stroke="black" stroke-width="2" mask="url(#path-3-inside-1_107_2719)"/>
<path d="M26.1975 24.8009L26.198 24.8009C26.5652 24.8005 26.9159 24.6525 27.1736 24.3915L26.8178 24.0402L27.1736 24.3915C27.431 24.1308 27.5747 23.7786 27.5751 23.4125V23.412C27.5751 23.1387 27.4951 22.871 27.3446 22.6428C27.1939 22.4145 26.9792 22.2356 26.7268 22.1297L26.5333 22.5907L26.7268 22.1297C26.4742 22.0237 26.196 21.9959 25.9275 22.05C25.659 22.1041 25.4133 22.2374 25.2211 22.4321C25.0289 22.6268 24.8987 22.874 24.8461 23.1422C24.7934 23.4104 24.8204 23.6884 24.9239 23.9414C25.0273 24.1945 25.203 24.4118 25.4297 24.5651C25.6564 24.7186 25.9236 24.8009 26.1975 24.8009ZM27.4828 22.535C27.6536 22.7939 27.7452 23.099 27.7453 23.4116C27.7447 23.831 27.5799 24.2319 27.289 24.5265C26.9983 24.821 26.6055 24.9855 26.1972 24.9861C25.8926 24.986 25.5943 24.8945 25.34 24.7224C25.0855 24.5502 24.8863 24.3048 24.7683 24.0164C24.6504 23.728 24.6194 23.4103 24.6796 23.1037C24.7398 22.7971 24.8883 22.5164 25.1052 22.2967C25.3221 22.077 25.5977 21.9281 25.8967 21.8679C26.1957 21.8077 26.5057 21.8385 26.7877 21.9568C27.0698 22.0752 27.312 22.276 27.4828 22.535Z" fill="black" stroke="black"/>
<path d="M32.0919 25.3556C32.1016 25.3437 32.1113 25.3318 32.1209 25.3198H34.0965H34.5532C34.4285 25.4391 34.2646 25.5048 34.0951 25.505L32.0987 25.505C32.0974 25.4552 32.0951 25.4054 32.0919 25.3556ZM20.3019 25.3557C20.2987 25.4054 20.2964 25.4552 20.2951 25.505H3.67142C3.50199 25.5048 3.33809 25.4391 3.21341 25.3198H3.67091H20.2729C20.2825 25.3318 20.2922 25.3438 20.3019 25.3557ZM3.17091 24.8198V25.2753C3.06233 25.1507 3.00095 24.9889 3.00073 24.8195V4.07903C3.00095 3.90966 3.06233 3.74781 3.17091 3.62326V4.07874V7.01861V8.23669L4.02672 7.3699L6.92931 4.43003L7.76981 3.57874H6.57351H3.67091H3.21342C3.33804 3.45952 3.50185 3.39378 3.67119 3.39355H34.0953C34.2647 3.39378 34.4285 3.45952 34.5531 3.57874H34.0956H31.193H29.9967L30.8372 4.43003L33.7399 7.37001L34.5958 8.23686L34.5957 7.0187L34.5956 4.07871L34.5956 3.62323C34.7042 3.74784 34.7656 3.90978 34.7658 4.07924V24.8193C34.7656 24.9883 34.7046 25.1498 34.5965 25.2743L34.5965 24.8198L34.5958 8.69473L34.5958 8.4895L34.4516 8.34345L29.954 3.78813C29.9536 3.78753 29.9531 3.78692 29.9527 3.7863L29.803 3.57875H29.5471H8.21943H7.96356L7.81389 3.78628C7.81343 3.78691 7.81297 3.78753 7.8125 3.78814L3.31511 8.34327L3.17091 8.48932V8.69456V24.8198Z" fill="black" stroke="black"/>
</mask>
<g mask="url(#mask0_107_2719)">
<path d="M-0.0317383 36.082L-0.0317399 -7.18378L37.8033 -7.18378L37.8033 36.082L-0.0317383 36.082Z" fill="url(#paint0_linear_107_2719)"/>
</g>
<defs>
<linearGradient id="paint0_linear_107_2719" x1="-0.0317391" y1="14.4491" x2="37.8033" y2="14.4491" gradientUnits="userSpaceOnUse">
<stop stop-color="#3BA1EA"/>
<stop offset="1" stop-color="#E9833D"/>
</linearGradient>
</defs>
</svg>
