<svg width="33" height="33" viewBox="0 0 33 33" fill="none" xmlns="http://www.w3.org/2000/svg">
<g id="Circuit">
<path id="Vector" d="M4.3668 14.4585C5.25288 14.4585 6.02632 13.9747 6.442 13.2585H13.4913C13.9073 13.9747 14.6807 14.4585 15.5668 14.4585C16.8903 14.4585 17.9668 13.3821 17.9668 12.0585C17.9668 10.735 16.8903 9.65854 15.5668 9.65854C14.6807 9.65854 13.9073 10.1424 13.4916 10.8585H6.442C6.23121 10.4958 5.92958 10.1941 5.5668 9.98334V6.85854H7.8916C8.30728 7.5747 9.08072 8.05854 9.9668 8.05854C11.2903 8.05854 12.3668 6.98206 12.3668 5.65854C12.3668 4.33502 11.2903 3.25854 9.9668 3.25854C9.08072 3.25854 8.30728 3.74238 7.8916 4.45854H4.3668L3.1668 5.65854V9.98334C2.45064 10.399 1.9668 11.1725 1.9668 12.0585C1.9668 13.3821 3.04328 14.4585 4.3668 14.4585ZM15.5668 11.2585C16.0078 11.2585 16.3668 11.6176 16.3668 12.0585C16.3668 12.4995 16.0078 12.8585 15.5668 12.8585C15.1258 12.8585 14.7668 12.4995 14.7668 12.0585C14.7668 11.6176 15.1258 11.2585 15.5668 11.2585ZM9.9668 4.85854C10.4078 4.85854 10.7668 5.21758 10.7668 5.65854C10.7668 6.0995 10.4078 6.45854 9.9668 6.45854C9.52584 6.45854 9.1668 6.0995 9.1668 5.65854C9.1668 5.21758 9.52584 4.85854 9.9668 4.85854ZM4.3668 11.2585C4.80776 11.2585 5.1668 11.6176 5.1668 12.0585C5.1668 12.4995 4.80776 12.8585 4.3668 12.8585C3.92584 12.8585 3.5668 12.4995 3.5668 12.0585C3.5668 11.6176 3.92584 11.2585 4.3668 11.2585ZM30.7668 20.0585C30.7668 18.735 29.6903 17.6585 28.3668 17.6585C27.0433 17.6585 25.9668 18.735 25.9668 20.0585C25.9668 20.9446 26.4506 21.7181 27.1668 22.1337V24.383C26.804 24.5938 26.5024 24.8954 26.2916 25.2582H16.7668V22.1334C17.1312 21.9232 17.434 21.6209 17.6446 21.2567C17.8553 20.8925 17.9664 20.4793 17.9668 20.0585C17.9668 18.735 16.8903 17.6585 15.5668 17.6585C14.6807 17.6585 13.9073 18.1424 13.4916 18.8585H6.442C6.02632 18.1424 5.25288 17.6585 4.3668 17.6585C3.04328 17.6585 1.9668 18.735 1.9668 20.0585C1.9668 21.3821 3.04328 22.4585 4.3668 22.4585C5.25288 22.4585 6.02632 21.9747 6.442 21.2585H13.4913C13.7021 21.6213 14.0037 21.923 14.3665 22.1337V26.4585L15.5665 27.6585H26.2913C26.7073 28.3747 27.4807 28.8585 28.3668 28.8585C29.6903 28.8585 30.7668 27.7821 30.7668 26.4585C30.7668 25.5725 30.283 24.799 29.5668 24.3833V22.1341C30.283 21.7181 30.7668 20.9446 30.7668 20.0585ZM4.3668 20.8585C3.92584 20.8585 3.5668 20.4995 3.5668 20.0585C3.5668 19.6176 3.92584 19.2585 4.3668 19.2585C4.80776 19.2585 5.1668 19.6176 5.1668 20.0585C5.1668 20.4995 4.80776 20.8585 4.3668 20.8585ZM15.5668 20.8585C15.1258 20.8585 14.7668 20.4995 14.7668 20.0585C14.7668 19.6176 15.1258 19.2585 15.5668 19.2585C16.0078 19.2585 16.3668 19.6176 16.3668 20.0585C16.3668 20.4995 16.0078 20.8585 15.5668 20.8585ZM28.3668 27.2585C27.9258 27.2585 27.5668 26.8995 27.5668 26.4585C27.5668 26.0176 27.9258 25.6585 28.3668 25.6585C28.8078 25.6585 29.1668 26.0176 29.1668 26.4585C29.1668 26.8995 28.8078 27.2585 28.3668 27.2585ZM28.3668 20.8585C27.9258 20.8585 27.5668 20.4995 27.5668 20.0585C27.5668 19.6176 27.9258 19.2585 28.3668 19.2585C28.8078 19.2585 29.1668 19.6176 29.1668 20.0585C29.1668 20.4995 28.8078 20.8585 28.3668 20.8585ZM30.7668 5.65854C30.7668 4.33502 29.6903 3.25854 28.3668 3.25854C27.4807 3.25854 26.7073 3.74238 26.2916 4.45854H23.2423C22.8263 3.74238 22.0529 3.25854 21.1668 3.25854C19.8433 3.25854 18.7668 4.33502 18.7668 5.65854C18.7668 6.98206 19.8433 8.05854 21.1668 8.05854C22.0529 8.05854 22.8263 7.5747 23.242 6.85854H26.2913C26.5021 7.22132 26.8037 7.52296 27.1665 7.73375V9.98302C26.4506 10.399 25.9668 11.1725 25.9668 12.0585C25.9668 13.3821 27.0433 14.4585 28.3668 14.4585C29.6903 14.4585 30.7668 13.3821 30.7668 12.0585C30.7668 11.1725 30.283 10.399 29.5668 9.98334V7.73407C30.283 7.31806 30.7668 6.54462 30.7668 5.65854ZM21.1668 6.45854C20.7258 6.45854 20.3668 6.0995 20.3668 5.65854C20.3668 5.21758 20.7258 4.85854 21.1668 4.85854C21.6078 4.85854 21.9668 5.21758 21.9668 5.65854C21.9668 6.0995 21.6078 6.45854 21.1668 6.45854ZM28.3668 12.8585C27.9258 12.8585 27.5668 12.4995 27.5668 12.0585C27.5668 11.6176 27.9258 11.2585 28.3668 11.2585C28.8078 11.2585 29.1668 11.6176 29.1668 12.0585C29.1668 12.4995 28.8078 12.8585 28.3668 12.8585ZM28.3668 6.45854C27.9258 6.45854 27.5668 6.0995 27.5668 5.65854C27.5668 5.21758 27.9258 4.85854 28.3668 4.85854C28.8078 4.85854 29.1668 5.21758 29.1668 5.65854C29.1668 6.0995 28.8078 6.45854 28.3668 6.45854Z" fill="#000958"/>
</g>
</svg>
