<svg width="34" height="32" viewBox="0 0 34 32" fill="none" xmlns="http://www.w3.org/2000/svg">
<path d="M29.05 1H4.94989C4.15093 1 3.38468 1.31607 2.81972 1.87868C2.25477 2.44129 1.93738 3.20435 1.93738 4V28C1.93738 28.7956 2.25477 29.5587 2.81972 30.1213C3.38468 30.6839 4.15093 31 4.94989 31H29.05C29.849 31 30.6152 30.6839 31.1802 30.1213C31.7452 29.5587 32.0625 28.7956 32.0625 28V4C32.0625 3.20435 31.7452 2.44129 31.1802 1.87868C30.6152 1.31607 29.849 1 29.05 1ZM4.94989 3H29.05C29.3164 3 29.5718 3.10536 29.7601 3.29289C29.9484 3.48043 30.0542 3.73478 30.0542 4V7H3.94572V4C3.94572 3.73478 4.05152 3.48043 4.23984 3.29289C4.42816 3.10536 4.68357 3 4.94989 3ZM29.05 29H4.94989C4.68357 29 4.42816 28.8946 4.23984 28.7071C4.05152 28.5196 3.94572 28.2652 3.94572 28V9H30.0542V28C30.0542 28.2652 29.9484 28.5196 29.7601 28.7071C29.5718 28.8946 29.3164 29 29.05 29Z" fill="#003C8B"/>
<path d="M26.5396 6H27.0417C27.308 6 27.5634 5.89464 27.7517 5.70711C27.9401 5.51957 28.0459 5.26522 28.0459 5C28.0459 4.73478 27.9401 4.48043 27.7517 4.29289C27.5634 4.10536 27.308 4 27.0417 4H26.5396C26.2733 4 26.0179 4.10536 25.8295 4.29289C25.6412 4.48043 25.5354 4.73478 25.5354 5C25.5354 5.26522 25.6412 5.51957 25.8295 5.70711C26.0179 5.89464 26.2733 6 26.5396 6ZM22.5229 6H23.025C23.2913 6 23.5467 5.89464 23.735 5.70711C23.9234 5.51957 24.0292 5.26522 24.0292 5C24.0292 4.73478 23.9234 4.48043 23.735 4.29289C23.5467 4.10536 23.2913 4 23.025 4H22.5229C22.2566 4 22.0012 4.10536 21.8128 4.29289C21.6245 4.48043 21.5187 4.73478 21.5187 5C21.5187 5.26522 21.6245 5.51957 21.8128 5.70711C22.0012 5.89464 22.2566 6 22.5229 6ZM11.6879 14.29C11.5945 14.1963 11.4835 14.1219 11.3611 14.0711C11.2387 14.0203 11.1075 13.9942 10.9749 13.9942C10.8424 13.9942 10.7111 14.0203 10.5887 14.0711C10.4664 14.1219 10.3553 14.1963 10.262 14.29L6.24527 18.29C6.15116 18.383 6.07645 18.4936 6.02547 18.6154C5.97449 18.7373 5.94824 18.868 5.94824 19C5.94824 19.132 5.97449 19.2627 6.02547 19.3846C6.07645 19.5064 6.15116 19.617 6.24527 19.71L10.262 23.71C10.3553 23.8037 10.4664 23.8781 10.5887 23.9289C10.7111 23.9797 10.8424 24.0058 10.9749 24.0058C11.1075 24.0058 11.2387 23.9797 11.3611 23.9289C11.4835 23.8781 11.5945 23.8037 11.6879 23.71C11.782 23.617 11.8567 23.5064 11.9077 23.3846C11.9587 23.2627 11.9849 23.132 11.9849 23C11.9849 22.868 11.9587 22.7373 11.9077 22.6154C11.8567 22.4936 11.782 22.383 11.6879 22.29L8.37412 19L11.6879 15.71C11.782 15.617 11.8567 15.5064 11.9077 15.3846C11.9587 15.2627 11.9849 15.132 11.9849 15C11.9849 14.868 11.9587 14.7373 11.9077 14.6154C11.8567 14.4936 11.782 14.383 11.6879 14.29ZM23.738 14.29C23.5489 14.1017 23.2924 13.9959 23.025 13.9959C22.7576 13.9959 22.5011 14.1017 22.312 14.29C22.1229 14.4783 22.0167 14.7337 22.0167 15C22.0167 15.2663 22.1229 15.5217 22.312 15.71L25.6258 19L22.312 22.29C22.2179 22.383 22.1432 22.4936 22.0922 22.6154C22.0412 22.7373 22.015 22.868 22.015 23C22.015 23.132 22.0412 23.2627 22.0922 23.3846C22.1432 23.5064 22.2179 23.617 22.312 23.71C22.4054 23.8037 22.5164 23.8781 22.6388 23.9289C22.7612 23.9797 22.8924 24.0058 23.025 24.0058C23.1576 24.0058 23.2888 23.9797 23.4112 23.9289C23.5335 23.8781 23.6446 23.8037 23.738 23.71L27.7546 19.71C27.8488 19.617 27.9235 19.5064 27.9744 19.3846C28.0254 19.2627 28.0517 19.132 28.0517 19C28.0517 18.868 28.0254 18.7373 27.9744 18.6154C27.9235 18.4936 27.8488 18.383 27.7546 18.29L23.738 14.29ZM19.3296 12.05C19.2044 12.0076 19.0719 11.9903 18.94 11.9991C18.808 12.0079 18.679 12.0425 18.5605 12.1011C18.442 12.1596 18.3363 12.2409 18.2494 12.3402C18.1626 12.4396 18.0963 12.5551 18.0543 12.68L14.0377 24.68C13.9872 24.8077 13.9637 24.9443 13.9685 25.0814C13.9734 25.2185 14.0065 25.3531 14.0658 25.477C14.1251 25.6008 14.2094 25.7111 14.3134 25.8011C14.4174 25.8911 14.5389 25.9588 14.6703 26C14.7769 26.0137 14.8849 26.0137 14.9916 26C15.2021 26.0005 15.4075 25.9352 15.5787 25.8132C15.7499 25.6911 15.8782 25.5186 15.9456 25.32L19.9623 13.32C20.0048 13.1953 20.0222 13.0634 20.0134 12.9319C20.0046 12.8005 19.9698 12.6721 19.911 12.5541C19.8522 12.4361 19.7706 12.3308 19.6708 12.2443C19.571 12.1578 19.4551 12.0917 19.3296 12.05Z" fill="#003C8B"/>
</svg>
