<svg width="32" height="32" viewBox="0 0 32 32" fill="none" xmlns="http://www.w3.org/2000/svg">
<mask id="path-1-inside-1_107_5416" fill="white">
<path d="M0.930664 20.7474C0.798056 20.7474 0.670879 20.8001 0.577111 20.8938C0.483342 20.9876 0.430664 21.1148 0.430664 21.2474C0.430664 21.38 0.483342 21.5072 0.577111 21.6009C0.670879 21.6947 0.798056 21.7474 0.930664 21.7474H4.61554V25.808C4.61587 25.941 4.66885 26.0685 4.7629 26.1625C4.85695 26.2566 4.98441 26.3095 5.11741 26.3099H9.17804V29.9948C9.17804 30.1274 9.23072 30.2545 9.32449 30.3483C9.41825 30.4421 9.54543 30.4948 9.67804 30.4948C9.81065 30.4948 9.93783 30.4421 10.0316 30.3483C10.1254 30.2545 10.178 30.1274 10.178 29.9948V26.3099H20.178V29.9948C20.178 30.1274 20.2307 30.2545 20.3245 30.3483C20.4183 30.4421 20.5454 30.4948 20.678 30.4948C20.8106 30.4948 20.9378 30.4421 21.0316 30.3483C21.1254 30.2545 21.178 30.1274 21.178 29.9948V26.3099H25.2387C25.3717 26.3095 25.4991 26.2566 25.5932 26.1625C25.6872 26.0685 25.7402 25.941 25.7405 25.808V21.7474H29.4254C29.558 21.7474 29.6852 21.6947 29.779 21.6009C29.8727 21.5072 29.9254 21.38 29.9254 21.2474C29.9254 21.1148 29.8727 20.9876 29.779 20.8938C29.6852 20.8001 29.558 20.7474 29.4254 20.7474H25.7405V10.7474H29.4254C29.558 10.7474 29.6852 10.6947 29.779 10.6009C29.8727 10.5072 29.9254 10.38 29.9254 10.2474C29.9254 10.1148 29.8727 9.98759 29.779 9.89382C29.6852 9.80005 29.558 9.74738 29.4254 9.74738H25.7405V5.68675C25.7402 5.55375 25.6872 5.42628 25.5932 5.33224C25.4991 5.23819 25.3717 5.1852 25.2387 5.18488H21.178V1.5C21.178 1.36739 21.1254 1.24021 21.0316 1.14645C20.9378 1.05268 20.8106 1 20.678 1C20.5454 1 20.4183 1.05268 20.3245 1.14645C20.2307 1.24021 20.178 1.36739 20.178 1.5V5.18488H10.178V1.5C10.178 1.36739 10.1254 1.24021 10.0316 1.14645C9.93783 1.05268 9.81065 1 9.67804 1C9.54543 1 9.41825 1.05268 9.32449 1.14645C9.23072 1.24021 9.17804 1.36739 9.17804 1.5V5.18488H5.11741C4.98441 5.1852 4.85695 5.23819 4.7629 5.33224C4.66885 5.42628 4.61587 5.55375 4.61554 5.68675V9.74738H0.930664C0.798056 9.74738 0.670879 9.80005 0.577111 9.89382C0.483342 9.98759 0.430664 10.1148 0.430664 10.2474C0.430664 10.38 0.483342 10.5072 0.577111 10.6009C0.670879 10.6947 0.798056 10.7474 0.930664 10.7474H4.61554V20.7474H0.930664ZM5.61554 6.18488H24.7405V25.3099H5.61554V6.18488Z"/>
</mask>
<path d="M0.930664 20.7474C0.798056 20.7474 0.670879 20.8001 0.577111 20.8938C0.483342 20.9876 0.430664 21.1148 0.430664 21.2474C0.430664 21.38 0.483342 21.5072 0.577111 21.6009C0.670879 21.6947 0.798056 21.7474 0.930664 21.7474H4.61554V25.808C4.61587 25.941 4.66885 26.0685 4.7629 26.1625C4.85695 26.2566 4.98441 26.3095 5.11741 26.3099H9.17804V29.9948C9.17804 30.1274 9.23072 30.2545 9.32449 30.3483C9.41825 30.4421 9.54543 30.4948 9.67804 30.4948C9.81065 30.4948 9.93783 30.4421 10.0316 30.3483C10.1254 30.2545 10.178 30.1274 10.178 29.9948V26.3099H20.178V29.9948C20.178 30.1274 20.2307 30.2545 20.3245 30.3483C20.4183 30.4421 20.5454 30.4948 20.678 30.4948C20.8106 30.4948 20.9378 30.4421 21.0316 30.3483C21.1254 30.2545 21.178 30.1274 21.178 29.9948V26.3099H25.2387C25.3717 26.3095 25.4991 26.2566 25.5932 26.1625C25.6872 26.0685 25.7402 25.941 25.7405 25.808V21.7474H29.4254C29.558 21.7474 29.6852 21.6947 29.779 21.6009C29.8727 21.5072 29.9254 21.38 29.9254 21.2474C29.9254 21.1148 29.8727 20.9876 29.779 20.8938C29.6852 20.8001 29.558 20.7474 29.4254 20.7474H25.7405V10.7474H29.4254C29.558 10.7474 29.6852 10.6947 29.779 10.6009C29.8727 10.5072 29.9254 10.38 29.9254 10.2474C29.9254 10.1148 29.8727 9.98759 29.779 9.89382C29.6852 9.80005 29.558 9.74738 29.4254 9.74738H25.7405V5.68675C25.7402 5.55375 25.6872 5.42628 25.5932 5.33224C25.4991 5.23819 25.3717 5.1852 25.2387 5.18488H21.178V1.5C21.178 1.36739 21.1254 1.24021 21.0316 1.14645C20.9378 1.05268 20.8106 1 20.678 1C20.5454 1 20.4183 1.05268 20.3245 1.14645C20.2307 1.24021 20.178 1.36739 20.178 1.5V5.18488H10.178V1.5C10.178 1.36739 10.1254 1.24021 10.0316 1.14645C9.93783 1.05268 9.81065 1 9.67804 1C9.54543 1 9.41825 1.05268 9.32449 1.14645C9.23072 1.24021 9.17804 1.36739 9.17804 1.5V5.18488H5.11741C4.98441 5.1852 4.85695 5.23819 4.7629 5.33224C4.66885 5.42628 4.61587 5.55375 4.61554 5.68675V9.74738H0.930664C0.798056 9.74738 0.670879 9.80005 0.577111 9.89382C0.483342 9.98759 0.430664 10.1148 0.430664 10.2474C0.430664 10.38 0.483342 10.5072 0.577111 10.6009C0.670879 10.6947 0.798056 10.7474 0.930664 10.7474H4.61554V20.7474H0.930664ZM5.61554 6.18488H24.7405V25.3099H5.61554V6.18488Z" fill="#000958"/>
<path d="M0.430664 21.2474H-31.5693H0.430664ZM4.61554 21.7474H36.6155V-10.2526H4.61554V21.7474ZM4.61554 25.808H-27.3845V25.8477L-27.3844 25.8874L4.61554 25.808ZM5.11741 26.3099L5.03801 58.3098L5.07771 58.3099H5.11741V26.3099ZM9.17804 26.3099H41.178V-5.69012H9.17804V26.3099ZM10.178 26.3099V-5.69012H-21.822V26.3099H10.178ZM20.178 26.3099H52.178V-5.69012H20.178V26.3099ZM21.178 26.3099V-5.69012H-10.822V26.3099H21.178ZM25.2387 26.3099V58.3099H25.2784L25.3181 58.3098L25.2387 26.3099ZM25.7405 25.808L57.7404 25.8874L57.7405 25.8477V25.808H25.7405ZM25.7405 21.7474V-10.2526H-6.25946V21.7474H25.7405ZM25.7405 20.7474H-6.25946V52.7474H25.7405V20.7474ZM25.7405 10.7474V-21.2526H-6.25946V10.7474H25.7405ZM25.7405 9.74738H-6.25946V41.7474H25.7405V9.74738ZM25.7405 5.68675H57.7405V5.64705L57.7404 5.60735L25.7405 5.68675ZM25.2387 5.18488L25.3181 -26.815L25.2784 -26.8151H25.2387V5.18488ZM21.178 5.18488H-10.822V37.1849H21.178V5.18488ZM20.678 1V-31V1ZM20.178 5.18488V37.1849H52.178V5.18488H20.178ZM10.178 5.18488H-21.822V37.1849H10.178V5.18488ZM9.67804 1V-31V1ZM9.17804 5.18488V37.1849H41.178V5.18488H9.17804ZM5.11741 5.18488V-26.8151H5.07771L5.03801 -26.815L5.11741 5.18488ZM4.61554 5.68675L-27.3844 5.60735L-27.3845 5.64705V5.68675H4.61554ZM4.61554 9.74738V41.7474H36.6155V9.74738H4.61554ZM0.430664 10.2474H-31.5693H0.430664ZM4.61554 10.7474H36.6155V-21.2526H4.61554V10.7474ZM4.61554 20.7474V52.7474H36.6155V20.7474H4.61554ZM5.61554 6.18488V-25.8151H-26.3845V6.18488H5.61554ZM24.7405 6.18488H56.7405V-25.8151H24.7405V6.18488ZM24.7405 25.3099V57.3099H56.7405V25.3099H24.7405ZM5.61554 25.3099H-26.3845V57.3099H5.61554V25.3099ZM0.930664 -11.2526C-7.68881 -11.2526 -15.9553 -7.82857 -22.0503 -1.7336L23.2045 43.5212C17.2971 49.4287 9.28492 52.7474 0.930664 52.7474V-11.2526ZM-22.0503 -1.7336C-28.1453 4.36136 -31.5693 12.6279 -31.5693 21.2474H32.4307C32.4307 29.6017 29.1119 37.6138 23.2045 43.5212L-22.0503 -1.7336ZM-31.5693 21.2474C-31.5693 29.8669 -28.1453 38.1334 -22.0503 44.2283L23.2045 -1.02649C29.1119 4.88093 32.4307 12.8931 32.4307 21.2474H-31.5693ZM-22.0503 44.2283C-15.9553 50.3233 -7.68881 53.7474 0.930664 53.7474V-10.2526C9.28492 -10.2526 17.2971 -6.93393 23.2045 -1.02649L-22.0503 44.2283ZM0.930664 53.7474H4.61554V-10.2526H0.930664V53.7474ZM-27.3845 21.7474V25.808H36.6155V21.7474H-27.3845ZM-27.3844 25.8874C-27.363 34.4798 -23.9403 42.7141 -17.8645 48.7899L27.3903 3.5351C33.278 9.42278 36.5948 17.4022 36.6154 25.7286L-27.3844 25.8874ZM-17.8645 48.7899C-11.7887 54.8657 -3.55431 58.2885 5.03801 58.3098L5.19682 -5.69003C13.5231 -5.66936 21.5026 -2.35262 27.3903 3.5351L-17.8645 48.7899ZM5.11741 58.3099H9.17804V-5.69012H5.11741V58.3099ZM-22.822 26.3099V29.9948H41.178V26.3099H-22.822ZM-22.822 29.9948C-22.822 38.6142 -19.3979 46.8807 -13.3029 52.9757L31.9519 7.72089C37.8594 13.6283 41.178 21.6405 41.178 29.9948H-22.822ZM-13.3029 52.9757C-7.20794 59.0707 1.05859 62.4948 9.67804 62.4948V-1.50525C18.0323 -1.50525 26.0444 1.81343 31.9519 7.72089L-13.3029 52.9757ZM9.67804 62.4948C18.2975 62.4948 26.564 59.0707 32.659 52.9757L-12.5958 7.72089C-6.68837 1.81343 1.32381 -1.50525 9.67804 -1.50525V62.4948ZM32.659 52.9757C38.754 46.8807 42.178 38.6142 42.178 29.9948H-21.822C-21.822 21.6405 -18.5033 13.6283 -12.5958 7.72089L32.659 52.9757ZM42.178 29.9948V26.3099H-21.822V29.9948H42.178ZM10.178 58.3099H20.178V-5.69012H10.178V58.3099ZM-11.822 26.3099V29.9948H52.178V26.3099H-11.822ZM-11.822 29.9948C-11.822 38.6142 -8.39793 46.8807 -2.30293 52.9757L42.9519 7.72089C48.8594 13.6283 52.178 21.6405 52.178 29.9948H-11.822ZM-2.30293 52.9757C3.79206 59.0707 12.0586 62.4948 20.678 62.4948V-1.50525C29.0323 -1.50525 37.0444 1.81343 42.9519 7.72089L-2.30293 52.9757ZM20.678 62.4948C29.2975 62.4948 37.564 59.0707 43.659 52.9757L-1.59582 7.72089C4.31163 1.81343 12.3238 -1.50525 20.678 -1.50525V62.4948ZM43.659 52.9757C49.754 46.8807 53.178 38.6142 53.178 29.9948H-10.822C-10.822 21.6405 -7.50328 13.6283 -1.59582 7.72089L43.659 52.9757ZM53.178 29.9948V26.3099H-10.822V29.9948H53.178ZM21.178 58.3099H25.2387V-5.69012H21.178V58.3099ZM25.3181 58.3098C33.9104 58.2885 42.1448 54.8658 48.2206 48.7899L2.96576 3.5351C8.8535 -2.35264 16.833 -5.66937 25.1593 -5.69003L25.3181 58.3098ZM48.2206 48.7899C54.2964 42.7141 57.7191 34.4797 57.7404 25.8874L-6.25936 25.7286C-6.2387 17.4023 -2.92198 9.42284 2.96576 3.5351L48.2206 48.7899ZM57.7405 25.808V21.7474H-6.25946V25.808H57.7405ZM25.7405 53.7474H29.4254V-10.2526H25.7405V53.7474ZM29.4254 53.7474C38.0449 53.7474 46.3114 50.3233 52.4064 44.2283L7.15155 -1.02649C13.059 -6.93395 21.0712 -10.2526 29.4254 -10.2526V53.7474ZM52.4064 44.2283C58.5014 38.1334 61.9254 29.8668 61.9254 21.2474H-2.07458C-2.07458 12.8931 1.24409 4.88097 7.15155 -1.02649L52.4064 44.2283ZM61.9254 21.2474C61.9254 12.6279 58.5014 4.3614 52.4064 -1.7336L7.15155 43.5212C1.24409 37.6138 -2.07458 29.6016 -2.07458 21.2474H61.9254ZM52.4064 -1.7336C46.3114 -7.82859 38.0449 -11.2526 29.4254 -11.2526V52.7474C21.0712 52.7474 13.059 49.4287 7.15155 43.5212L52.4064 -1.7336ZM29.4254 -11.2526H25.7405V52.7474H29.4254V-11.2526ZM57.7405 20.7474V10.7474H-6.25946V20.7474H57.7405ZM25.7405 42.7474H29.4254V-21.2526H25.7405V42.7474ZM29.4254 42.7474C38.0449 42.7474 46.3114 39.3233 52.4064 33.2283L7.15155 -12.0265C13.059 -17.9339 21.0712 -21.2526 29.4254 -21.2526V42.7474ZM52.4064 33.2283C58.5014 27.1334 61.9254 18.8668 61.9254 10.2474H-2.07458C-2.07458 1.89314 1.24409 -6.11903 7.15155 -12.0265L52.4064 33.2283ZM61.9254 10.2474C61.9254 1.62793 58.5014 -6.6386 52.4064 -12.7336L7.15155 32.5212C1.24409 26.6138 -2.07458 18.6016 -2.07458 10.2474H61.9254ZM52.4064 -12.7336C46.3114 -18.8286 38.0449 -22.2526 29.4254 -22.2526V41.7474C21.0712 41.7474 13.059 38.4287 7.15155 32.5212L52.4064 -12.7336ZM29.4254 -22.2526H25.7405V41.7474H29.4254V-22.2526ZM57.7405 9.74738V5.68675H-6.25946V9.74738H57.7405ZM57.7404 5.60735C57.7191 -2.98497 54.2964 -11.2194 48.2206 -17.2952L2.96576 27.9597C-2.92196 22.0719 -6.2387 14.0925 -6.25936 5.76615L57.7404 5.60735ZM48.2206 -17.2952C42.1448 -23.371 33.9104 -26.7937 25.3181 -26.815L25.1593 37.1848C16.8329 37.1641 8.85345 33.8473 2.96576 27.9597L48.2206 -17.2952ZM25.2387 -26.8151H21.178V37.1849H25.2387V-26.8151ZM53.178 5.18488V1.5H-10.822V5.18488H53.178ZM53.178 1.5C53.178 -7.11947 49.754 -15.386 43.659 -21.481L-1.59582 23.7739C-7.50326 17.8664 -10.822 9.85426 -10.822 1.5H53.178ZM43.659 -21.481C37.5641 -27.5759 29.2975 -31 20.678 -31V33C12.3237 33 4.31159 29.6813 -1.59582 23.7739L43.659 -21.481ZM20.678 -31C12.0585 -31 3.79202 -27.5759 -2.30293 -21.481L42.9519 23.7739C37.0445 29.6813 29.0323 33 20.678 33V-31ZM-2.30293 -21.481C-8.39791 -15.386 -11.822 -7.11947 -11.822 1.5H52.178C52.178 9.85426 48.8593 17.8664 42.9519 23.7739L-2.30293 -21.481ZM-11.822 1.5V5.18488H52.178V1.5H-11.822ZM20.178 -26.8151H10.178V37.1849H20.178V-26.8151ZM42.178 5.18488V1.5H-21.822V5.18488H42.178ZM42.178 1.5C42.178 -7.11947 38.754 -15.386 32.659 -21.481L-12.5958 23.7739C-18.5033 17.8664 -21.822 9.85426 -21.822 1.5H42.178ZM32.659 -21.481C26.5641 -27.5759 18.2975 -31 9.67804 -31V33C1.32375 33 -6.68841 29.6813 -12.5958 23.7739L32.659 -21.481ZM9.67804 -31C1.05853 -31 -7.20798 -27.5759 -13.3029 -21.481L31.9519 23.7739C26.0445 29.6813 18.0323 33 9.67804 33V-31ZM-13.3029 -21.481C-19.3979 -15.386 -22.822 -7.11947 -22.822 1.5H41.178C41.178 9.85426 37.8593 17.8664 31.9519 23.7739L-13.3029 -21.481ZM-22.822 1.5V5.18488H41.178V1.5H-22.822ZM9.17804 -26.8151H5.11741V37.1849H9.17804V-26.8151ZM5.03801 -26.815C-3.55438 -26.7937 -11.7888 -23.3709 -17.8645 -17.2952L27.3903 27.9597C21.5027 33.8473 13.5232 37.1641 5.19682 37.1848L5.03801 -26.815ZM-17.8645 -17.2952C-23.9403 -11.2194 -27.363 -2.98505 -27.3844 5.60735L36.6154 5.76615C36.5948 14.0925 33.278 22.072 27.3903 27.9597L-17.8645 -17.2952ZM-27.3845 5.68675V9.74738H36.6155V5.68675H-27.3845ZM4.61554 -22.2526H0.930664V41.7474H4.61554V-22.2526ZM0.930664 -22.2526C-7.68881 -22.2526 -15.9553 -18.8286 -22.0503 -12.7336L23.2045 32.5212C17.2971 38.4287 9.28492 41.7474 0.930664 41.7474V-22.2526ZM-22.0503 -12.7336C-28.1453 -6.63864 -31.5693 1.62787 -31.5693 10.2474H32.4307C32.4307 18.6017 29.1119 26.6138 23.2045 32.5212L-22.0503 -12.7336ZM-31.5693 10.2474C-31.5693 18.8669 -28.1453 27.1334 -22.0503 33.2283L23.2045 -12.0265C29.1119 -6.11907 32.4307 1.89309 32.4307 10.2474H-31.5693ZM-22.0503 33.2283C-15.9553 39.3233 -7.68881 42.7474 0.930664 42.7474V-21.2526C9.28492 -21.2526 17.2971 -17.9339 23.2045 -12.0265L-22.0503 33.2283ZM0.930664 42.7474H4.61554V-21.2526H0.930664V42.7474ZM-27.3845 10.7474V20.7474H36.6155V10.7474H-27.3845ZM4.61554 -11.2526H0.930664V52.7474H4.61554V-11.2526ZM5.61554 38.1849H24.7405V-25.8151H5.61554V38.1849ZM-7.25946 6.18488V25.3099H56.7405V6.18488H-7.25946ZM24.7405 -6.69012H5.61554V57.3099H24.7405V-6.69012ZM37.6155 25.3099V6.18488H-26.3845V25.3099H37.6155Z" fill="#000958" mask="url(#path-1-inside-1_107_5416)"/>
<mask id="path-3-inside-2_107_5416" fill="white">
<path d="M22.928 8.49756C22.928 8.36495 22.8753 8.23777 22.7815 8.144C22.6878 8.05024 22.5606 7.99756 22.428 7.99756H7.92798C7.79537 7.99756 7.66819 8.05024 7.57442 8.144C7.48066 8.23777 7.42798 8.36495 7.42798 8.49756V22.9976C7.42798 23.1302 7.48066 23.2573 7.57442 23.3511C7.66819 23.4449 7.79537 23.4976 7.92798 23.4976H22.428C22.5606 23.4976 22.6878 23.4449 22.7815 23.3511C22.8753 23.2573 22.928 23.1302 22.928 22.9976V8.49756ZM21.928 22.4976H8.42798V8.99756H21.928V22.4976Z"/>
</mask>
<path d="M22.928 8.49756C22.928 8.36495 22.8753 8.23777 22.7815 8.144C22.6878 8.05024 22.5606 7.99756 22.428 7.99756H7.92798C7.79537 7.99756 7.66819 8.05024 7.57442 8.144C7.48066 8.23777 7.42798 8.36495 7.42798 8.49756V22.9976C7.42798 23.1302 7.48066 23.2573 7.57442 23.3511C7.66819 23.4449 7.79537 23.4976 7.92798 23.4976H22.428C22.5606 23.4976 22.6878 23.4449 22.7815 23.3511C22.8753 23.2573 22.928 23.1302 22.928 22.9976V8.49756ZM21.928 22.4976H8.42798V8.99756H21.928V22.4976Z" fill="#000958"/>
<path d="M21.928 22.4976V54.4976H53.928V22.4976H21.928ZM8.42798 22.4976H-23.572V54.4976H8.42798V22.4976ZM8.42798 8.99756V-23.0024H-23.572V8.99756H8.42798ZM21.928 8.99756H53.928V-23.0024H21.928V8.99756ZM54.928 8.49756C54.928 -0.121889 51.5039 -8.38842 45.409 -14.4834L0.154115 30.7714C-5.75334 24.864 -9.07202 16.8518 -9.07202 8.49756H54.928ZM45.409 -14.4834C39.314 -20.5784 31.0474 -24.0024 22.428 -24.0024V39.9976C14.0737 39.9976 6.06157 36.6789 0.154115 30.7714L45.409 -14.4834ZM22.428 -24.0024H7.92798V39.9976H22.428V-24.0024ZM7.92798 -24.0024C-0.691469 -24.0024 -8.958 -20.5784 -15.053 -14.4834L30.2018 30.7714C24.2944 36.6789 16.2822 39.9976 7.92798 39.9976V-24.0024ZM-15.053 -14.4834C-21.148 -8.38842 -24.572 -0.121889 -24.572 8.49756H39.428C39.428 16.8518 36.1093 24.864 30.2018 30.7714L-15.053 -14.4834ZM-24.572 8.49756V22.9976H39.428V8.49756H-24.572ZM-24.572 22.9976C-24.572 31.617 -21.148 39.8835 -15.053 45.9785L30.2018 0.723695C36.1093 6.63115 39.428 14.6433 39.428 22.9976H-24.572ZM-15.053 45.9785C-8.958 52.0735 -0.691469 55.4976 7.92798 55.4976V-8.50244C16.2822 -8.50244 24.2944 -5.18376 30.2018 0.723695L-15.053 45.9785ZM7.92798 55.4976H22.428V-8.50244H7.92798V55.4976ZM22.428 55.4976C31.0474 55.4976 39.314 52.0735 45.409 45.9785L0.154115 0.723695C6.06157 -5.18376 14.0737 -8.50244 22.428 -8.50244V55.4976ZM45.409 45.9785C51.5039 39.8835 54.928 31.617 54.928 22.9976H-9.07202C-9.07202 14.6433 -5.75334 6.63115 0.154115 0.723695L45.409 45.9785ZM54.928 22.9976V8.49756H-9.07202V22.9976H54.928ZM21.928 -9.50244H8.42798V54.4976H21.928V-9.50244ZM40.428 22.4976V8.99756H-23.572V22.4976H40.428ZM8.42798 40.9976H21.928V-23.0024H8.42798V40.9976ZM-10.072 8.99756V22.4976H53.928V8.99756H-10.072Z" fill="#000958" mask="url(#path-3-inside-2_107_5416)"/>
<mask id="path-5-inside-3_107_5416" fill="white">
<path d="M12.8727 17.999C12.8687 18.022 12.8663 18.0452 12.8656 18.0685V18.1935C12.866 18.2589 12.8795 18.3235 12.9051 18.3836C12.9307 18.4437 12.9681 18.498 13.015 18.5435C13.11 18.6357 13.2376 18.6866 13.37 18.6849H13.3721L16.9442 18.6747C17.0088 18.6747 17.0726 18.6617 17.1321 18.6366C17.1915 18.6115 17.2454 18.5748 17.2904 18.5287C17.3355 18.4825 17.3709 18.4278 17.3946 18.3677C17.4182 18.3077 17.4296 18.2436 17.4281 18.179V18.054C17.4328 18.0315 17.4359 18.0086 17.4375 17.9857C17.3511 17.3598 17.4924 17.2015 18.1411 16.5565C18.1427 16.555 18.1477 16.5534 18.1494 16.5518C18.8811 15.8045 19.2858 14.841 19.2858 13.8389C19.2851 13.3272 19.1819 12.8209 18.9823 12.3498C18.7828 11.8788 18.4908 11.4524 18.1238 11.096C17.3465 10.3369 16.3049 9.909 15.2184 9.90242C14.1319 9.89585 13.0853 10.3111 12.2988 11.0607C11.523 11.7977 11.0863 12.7607 11.0694 13.7719C11.0609 14.2853 11.1559 14.7952 11.3489 15.2712C11.5418 15.7471 11.8286 16.1793 12.1922 16.5419C12.8122 17.1592 12.9594 17.3829 12.8727 17.999ZM15.1322 10.9029C15.1486 10.9029 15.1649 10.9029 15.1813 10.9029C16.0188 10.8962 16.8249 11.2219 17.4227 11.8085C17.6951 12.0721 17.912 12.3876 18.0605 12.7363C18.2091 13.0851 18.2863 13.4601 18.2876 13.8392C18.2802 14.5946 17.976 15.3168 17.4406 15.8499C16.8725 16.4147 16.4406 16.8457 16.4309 17.6811L13.8958 17.6914C13.8861 16.884 13.4824 16.4141 12.8982 15.8327C12.6298 15.5652 12.4181 15.2465 12.2757 14.8954C12.1333 14.5443 12.063 14.1682 12.0692 13.7894C12.0952 12.2495 13.4981 10.9277 15.1322 10.9029ZM17.0531 19.4974C17.0531 19.3648 17.0004 19.2376 16.9067 19.1439C16.8129 19.0501 16.6857 18.9974 16.5531 18.9974H13.8031C13.6705 18.9974 13.5433 19.0501 13.4496 19.1439C13.3558 19.2376 13.3031 19.3648 13.3031 19.4974V21.1224C13.3031 21.255 13.3558 21.3822 13.4496 21.476C13.5433 21.5697 13.6705 21.6224 13.8031 21.6224H16.5531C16.6857 21.6224 16.8129 21.5697 16.9067 21.476C17.0004 21.3822 17.0531 21.255 17.0531 21.1224V19.4974ZM16.0531 20.6224H14.3031V19.9974H16.0531V20.6224Z"/>
</mask>
<path d="M12.8727 17.999C12.8687 18.022 12.8663 18.0452 12.8656 18.0685V18.1935C12.866 18.2589 12.8795 18.3235 12.9051 18.3836C12.9307 18.4437 12.9681 18.498 13.015 18.5435C13.11 18.6357 13.2376 18.6866 13.37 18.6849H13.3721L16.9442 18.6747C17.0088 18.6747 17.0726 18.6617 17.1321 18.6366C17.1915 18.6115 17.2454 18.5748 17.2904 18.5287C17.3355 18.4825 17.3709 18.4278 17.3946 18.3677C17.4182 18.3077 17.4296 18.2436 17.4281 18.179V18.054C17.4328 18.0315 17.4359 18.0086 17.4375 17.9857C17.3511 17.3598 17.4924 17.2015 18.1411 16.5565C18.1427 16.555 18.1477 16.5534 18.1494 16.5518C18.8811 15.8045 19.2858 14.841 19.2858 13.8389C19.2851 13.3272 19.1819 12.8209 18.9823 12.3498C18.7828 11.8788 18.4908 11.4524 18.1238 11.096C17.3465 10.3369 16.3049 9.909 15.2184 9.90242C14.1319 9.89585 13.0853 10.3111 12.2988 11.0607C11.523 11.7977 11.0863 12.7607 11.0694 13.7719C11.0609 14.2853 11.1559 14.7952 11.3489 15.2712C11.5418 15.7471 11.8286 16.1793 12.1922 16.5419C12.8122 17.1592 12.9594 17.3829 12.8727 17.999ZM15.1322 10.9029C15.1486 10.9029 15.1649 10.9029 15.1813 10.9029C16.0188 10.8962 16.8249 11.2219 17.4227 11.8085C17.6951 12.0721 17.912 12.3876 18.0605 12.7363C18.2091 13.0851 18.2863 13.4601 18.2876 13.8392C18.2802 14.5946 17.976 15.3168 17.4406 15.8499C16.8725 16.4147 16.4406 16.8457 16.4309 17.6811L13.8958 17.6914C13.8861 16.884 13.4824 16.4141 12.8982 15.8327C12.6298 15.5652 12.4181 15.2465 12.2757 14.8954C12.1333 14.5443 12.063 14.1682 12.0692 13.7894C12.0952 12.2495 13.4981 10.9277 15.1322 10.9029ZM17.0531 19.4974C17.0531 19.3648 17.0004 19.2376 16.9067 19.1439C16.8129 19.0501 16.6857 18.9974 16.5531 18.9974H13.8031C13.6705 18.9974 13.5433 19.0501 13.4496 19.1439C13.3558 19.2376 13.3031 19.3648 13.3031 19.4974V21.1224C13.3031 21.255 13.3558 21.3822 13.4496 21.476C13.5433 21.5697 13.6705 21.6224 13.8031 21.6224H16.5531C16.6857 21.6224 16.8129 21.5697 16.9067 21.476C17.0004 21.3822 17.0531 21.255 17.0531 21.1224V19.4974ZM16.0531 20.6224H14.3031V19.9974H16.0531V20.6224Z" fill="#000958"/>
<path d="M12.8727 17.999L44.405 23.4503L44.4906 22.9551L44.5606 22.4575L12.8727 17.999ZM12.8656 18.0685L-19.1187 17.0653L-19.1344 17.5668V18.0685H12.8656ZM12.8656 18.1935H-19.1344V18.2952L-19.1337 18.3968L12.8656 18.1935ZM13.015 18.5435L-9.27015 41.5081L-9.26818 41.51L13.015 18.5435ZM13.37 18.6849V-13.3151H13.1728L12.9757 -13.3127L13.37 18.6849ZM13.3721 18.6849V50.6849H13.4177L13.4633 50.6848L13.3721 18.6849ZM16.9442 18.6747L16.9115 -13.3253L16.8822 -13.3252L16.853 -13.3251L16.9442 18.6747ZM17.4281 18.179H-14.5719V18.5486L-14.5633 18.918L17.4281 18.179ZM17.4281 18.054L-13.9159 11.6079L-14.5719 14.7976V18.054H17.4281ZM17.4375 17.9857L49.3598 20.214L49.5912 16.8993L49.1366 13.6078L17.4375 17.9857ZM18.1411 16.5565L40.7028 39.2495L40.7357 39.2168L40.7685 39.184L18.1411 16.5565ZM18.1494 16.5518L40.7768 39.1792L40.8963 39.0597L41.0146 38.9389L18.1494 16.5518ZM19.2858 13.8389H51.2858V13.8169L51.2858 13.7948L19.2858 13.8389ZM18.1238 11.096L-4.23347 33.9904L-4.20142 34.0216L-4.16929 34.0529L18.1238 11.096ZM12.2988 11.0607L34.3384 34.261L34.3579 34.2425L34.3774 34.224L12.2988 11.0607ZM11.0694 13.7719L-20.9261 13.2359L-20.9263 13.2438L11.0694 13.7719ZM12.1922 16.5419L-10.4057 39.1988L-10.3947 39.2098L-10.3837 39.2207L12.1922 16.5419ZM15.1322 10.9029V-21.0971H14.8886L14.6451 -21.0934L15.1322 10.9029ZM15.1813 10.9029V42.9029H15.3087L15.4362 42.9018L15.1813 10.9029ZM17.4227 11.8085L-4.9899 34.6487L-4.90944 34.7277L-4.82842 34.8061L17.4227 11.8085ZM18.2876 13.8392L50.286 14.1525L50.2881 13.9418L50.2874 13.7311L18.2876 13.8392ZM17.4406 15.8499L40.003 38.5421L40.0114 38.5338L40.0197 38.5255L17.4406 15.8499ZM16.4309 17.6811L16.561 49.6808L48.0611 49.5527L48.4287 18.0545L16.4309 17.6811ZM13.8958 17.6914L-18.1019 18.0778L-17.7185 49.8203L14.026 49.6912L13.8958 17.6914ZM12.8982 15.8327L-9.69092 38.4983L-9.68336 38.5059L-9.67579 38.5134L12.8982 15.8327ZM12.0692 13.7894L-19.9263 13.2491L-19.9264 13.2593L-19.9266 13.2695L12.0692 13.7894ZM16.0531 20.6224V52.6224H48.0531V20.6224H16.0531ZM14.3031 20.6224H-17.6969V52.6224H14.3031V20.6224ZM14.3031 19.9974V-12.0026H-17.6969V19.9974H14.3031ZM16.0531 19.9974H48.0531V-12.0026H16.0531V19.9974ZM-18.6596 12.5478C-18.9177 14.0407 -19.0711 15.5502 -19.1187 17.0653L44.8499 19.0718C44.8038 20.5402 44.6551 22.0033 44.405 23.4503L-18.6596 12.5478ZM-19.1344 18.0685V18.1935H44.8656V18.0685H-19.1344ZM-19.1337 18.3968C-19.1063 22.7111 -18.22 26.9766 -16.5265 30.9446L42.3367 5.82257C43.9789 9.67035 44.8384 13.8067 44.865 17.9903L-19.1337 18.3968ZM-16.5265 30.9446C-14.833 34.9126 -12.3663 38.5036 -9.27015 41.5081L35.3001 -4.42105C38.3025 -1.50752 40.6945 1.97475 42.3367 5.82257L-16.5265 30.9446ZM-9.26818 41.51C-3.10411 47.4907 5.17655 50.7883 13.7643 50.6825L12.9757 -13.3127C21.2987 -13.4152 29.3241 -10.2193 35.2982 -4.42296L-9.26818 41.51ZM13.37 50.6849H13.3721V-13.3151H13.37V50.6849ZM13.4633 50.6848L17.0355 50.6746L16.853 -13.3251L13.2808 -13.315L13.4633 50.6848ZM16.977 50.6747C21.3035 50.6703 25.5853 49.8016 29.5711 48.12L4.6931 -10.8468C8.55998 -12.4782 12.714 -13.321 16.9115 -13.3253L16.977 50.6747ZM29.5711 48.12C33.5567 46.4385 37.1668 43.9777 40.1891 40.8816L-5.60817 -3.82426C-2.67601 -6.828 0.826353 -9.21541 4.6931 -10.8468L29.5711 48.12ZM40.1891 40.8816C43.2113 37.7856 45.5844 34.1173 47.1694 30.0921L-12.3802 6.64336C-10.8426 2.7383 -8.54026 -0.820591 -5.60817 -3.82426L40.1891 40.8816ZM47.1694 30.0921C48.7544 26.0667 49.5195 21.7653 49.4196 17.4401L-14.5633 18.918C-14.6603 14.7218 -13.918 10.5487 -12.3802 6.64336L47.1694 30.0921ZM49.4281 18.179V18.054H-14.5719V18.179H49.4281ZM48.7721 24.5002C49.063 23.0858 49.2593 21.6539 49.3598 20.214L-14.4848 15.7573C-14.3875 14.3634 -14.1975 12.9771 -13.9159 11.6079L48.7721 24.5002ZM49.1366 13.6078C49.2701 14.5744 49.6091 17.2737 49.2626 20.7567C48.8635 24.768 47.6825 28.7046 45.761 32.3144C44.0874 35.4585 42.267 37.5478 41.5984 38.2954C40.9643 39.0045 40.4057 39.5449 40.7028 39.2495L-4.42061 -6.13637C-4.4478 -6.10933 -5.26731 -5.30729 -6.10771 -4.36754C-6.98252 -3.38933 -8.9545 -1.10042 -10.7337 2.24208C-15.4299 11.0645 -14.6998 19.1906 -14.2616 22.3635L49.1366 13.6078ZM40.7685 39.184C40.505 39.4475 40.249 39.6943 40.0029 39.9245C39.7568 40.1548 39.5182 40.3706 39.2892 40.5723C39.0602 40.774 38.8386 40.9633 38.626 41.1404C38.4134 41.3176 38.2079 41.4841 38.0109 41.6402C37.8139 41.7962 37.6237 41.9431 37.4414 42.081C37.259 42.2189 37.0831 42.3488 36.9145 42.4709C36.7459 42.5931 36.5833 42.7084 36.4276 42.8168C36.2718 42.9253 36.1216 43.0278 35.9777 43.1244C35.8338 43.221 35.6952 43.3124 35.5624 43.3986C35.4296 43.4848 35.3016 43.5664 35.1791 43.6434C35.0566 43.7205 34.9386 43.7935 34.8256 43.8626C34.7127 43.9316 34.604 43.997 34.4999 44.0589C34.3958 44.1208 34.2957 44.1796 34.1999 44.2351C34.1042 44.2907 34.0121 44.3435 33.924 44.3934C33.836 44.4433 33.7514 44.4907 33.6706 44.5355C33.5898 44.5803 33.5123 44.6229 33.4383 44.6632C33.2907 44.7435 33.1545 44.8161 33.0318 44.8806C32.909 44.9452 32.7963 45.0034 32.6957 45.0547C32.595 45.1061 32.5035 45.1522 32.423 45.1923C32.3425 45.2325 32.2702 45.2681 32.2082 45.2984C32.1462 45.3288 32.0917 45.3552 32.047 45.3768C32.0023 45.3983 31.9644 45.4165 31.9362 45.43C31.9218 45.4368 31.9093 45.4428 31.8989 45.4477C31.8886 45.4526 31.88 45.4567 31.8736 45.4598C31.8673 45.4628 31.8623 45.4651 31.8599 45.4662C31.8587 45.4668 31.8577 45.4673 31.8575 45.4674C31.8567 45.4678 31.8578 45.4673 31.8579 45.4672C31.8589 45.4667 31.8627 45.4649 31.8675 45.4626C31.8725 45.4603 31.8799 45.4568 31.8887 45.4526C31.9061 45.4443 31.9333 45.4314 31.9664 45.4155C31.9997 45.3995 32.0425 45.379 32.0921 45.355C32.1418 45.3309 32.2011 45.3021 32.2679 45.2692C32.3347 45.2363 32.4117 45.1982 32.4968 45.1555C32.5819 45.1128 32.6779 45.0642 32.7829 45.0102C32.8878 44.9562 33.0046 44.8954 33.1314 44.8282C33.258 44.7611 33.3979 44.6859 33.5489 44.603C33.6997 44.5201 33.8654 44.4276 34.0436 44.3256C34.1329 44.2745 34.2262 44.2205 34.323 44.1638C34.4198 44.1071 34.5208 44.0472 34.6257 43.9843C34.7305 43.9213 34.8398 43.8548 34.9532 43.7849C35.0665 43.7149 35.1847 43.641 35.3072 43.5632C35.4297 43.4854 35.5574 43.4031 35.6897 43.3164C35.822 43.2297 35.9599 43.1379 36.1027 43.0411C36.2455 42.9443 36.3943 42.8418 36.5483 42.7335C36.7024 42.6253 36.8628 42.5105 37.0289 42.3891C37.195 42.2677 37.3679 42.1389 37.5469 42.0025C37.7258 41.8662 37.912 41.7212 38.1046 41.5676C38.2971 41.414 38.4975 41.2505 38.7044 41.0771C38.9114 40.9036 39.1266 40.7188 39.3487 40.5224C39.5707 40.3261 39.8014 40.1165 40.039 39.8936C40.2767 39.6708 40.5233 39.4327 40.7768 39.1792L-4.47805 -6.07562C-4.22458 -6.32909 -3.97804 -6.56711 -3.74047 -6.78991C-3.50286 -7.01274 -3.27221 -7.22221 -3.05025 -7.41852C-2.82825 -7.61485 -2.61309 -7.79965 -2.40621 -7.97304C-2.1993 -8.14646 -1.999 -8.30988 -1.80653 -8.46342C-1.61403 -8.61698 -1.42784 -8.76187 -1.249 -8.89818C-1.07014 -9.0345 -0.897264 -9.16328 -0.731261 -9.28459C-0.565237 -9.40591 -0.404851 -9.52066 -0.250875 -9.62887C-0.09688 -9.73709 0.0518169 -9.83956 0.194547 -9.93631C0.337293 -10.0331 0.475074 -10.1248 0.607302 -10.2114C0.739546 -10.2981 0.867139 -10.3803 0.989567 -10.4581C1.11201 -10.5359 1.23009 -10.6097 1.34337 -10.6796C1.45666 -10.7495 1.56588 -10.816 1.67061 -10.8789C1.77535 -10.9418 1.87627 -11.0016 1.973 -11.0583C2.06975 -11.1149 2.16291 -11.1688 2.25215 -11.2199C2.43015 -11.3218 2.59567 -11.4142 2.74637 -11.497C2.89715 -11.5798 3.03682 -11.6549 3.16332 -11.7219C3.28989 -11.789 3.40648 -11.8497 3.51123 -11.9036C3.61602 -11.9575 3.71177 -12.006 3.79671 -12.0486C3.88166 -12.0912 3.95837 -12.1292 4.02501 -12.162C4.09165 -12.1948 4.15071 -12.2235 4.2002 -12.2475C4.24963 -12.2714 4.29214 -12.2918 4.32528 -12.3077C4.35823 -12.3235 4.38513 -12.3363 4.40232 -12.3445C4.41109 -12.3486 4.41833 -12.3521 4.42323 -12.3544C4.42796 -12.3566 4.43165 -12.3584 4.43251 -12.3588C4.43262 -12.3589 4.43367 -12.3594 4.43281 -12.3589C4.43249 -12.3588 4.43148 -12.3583 4.4302 -12.3577C4.42769 -12.3565 4.42263 -12.3541 4.41624 -12.3511C4.40976 -12.348 4.40097 -12.3438 4.39057 -12.3389C4.38013 -12.3339 4.36746 -12.3279 4.35304 -12.321C4.32455 -12.3074 4.28648 -12.2891 4.24162 -12.2675C4.19667 -12.2458 4.142 -12.2193 4.07979 -12.1889C4.01756 -12.1584 3.94511 -12.1227 3.86438 -12.0825C3.78367 -12.0422 3.69195 -11.9961 3.59112 -11.9446C3.49033 -11.8931 3.37746 -11.8348 3.25447 -11.7702C3.13155 -11.7056 2.99514 -11.6328 2.8474 -11.5524C2.7733 -11.5121 2.69567 -11.4695 2.61478 -11.4246C2.5339 -11.3797 2.44923 -11.3323 2.36111 -11.2823C2.27299 -11.2324 2.18082 -11.1796 2.08496 -11.124C1.9891 -11.0683 1.8889 -11.0096 1.78475 -10.9476C1.68061 -10.8857 1.5718 -10.8202 1.45875 -10.7511C1.34572 -10.682 1.22765 -10.6089 1.10505 -10.5318C0.982457 -10.4547 0.854444 -10.373 0.721556 -10.2868C0.588685 -10.2006 0.449959 -10.1091 0.306004 -10.0125C0.162068 -9.91586 0.0118065 -9.81329 -0.144057 -9.70476C-0.2999 -9.59625 -0.462574 -9.48092 -0.631242 -9.35873C-0.799884 -9.23657 -0.975894 -9.10655 -1.15829 -8.96864C-1.34067 -8.83074 -1.53096 -8.68378 -1.72804 -8.52767C-1.92509 -8.37159 -2.13062 -8.205 -2.34329 -8.0278C-2.55593 -7.85062 -2.7776 -7.66124 -3.00669 -7.4595C-3.23575 -7.2578 -3.47433 -7.04189 -3.72051 -6.81158C-3.96665 -6.58131 -4.22268 -6.33449 -4.4863 -6.07087L40.7685 39.184ZM41.0146 38.9389C47.2906 32.5289 51.2858 23.6455 51.2858 13.8389H-12.7142C-12.7142 6.03662 -9.52843 -0.919938 -4.71582 -5.83533L41.0146 38.9389ZM51.2858 13.7948C51.2792 9.00934 50.3141 4.27363 48.4473 -0.132784L-10.4826 24.8325C-11.9502 21.3682 -12.709 17.6451 -12.7142 13.8829L51.2858 13.7948ZM48.4473 -0.132784C46.5806 -4.53914 43.8501 -8.52698 40.4169 -11.8609L-4.16929 34.0529C-6.86839 31.4318 -9.01505 28.2966 -10.4826 24.8325L48.4473 -0.132784ZM40.4811 -11.7984C33.7738 -18.3483 24.7868 -22.0403 15.4121 -22.097L15.0248 41.9018C7.82304 41.8583 0.919121 39.0221 -4.23347 33.9904L40.4811 -11.7984ZM15.4121 -22.097C6.03734 -22.1537 -2.9937 -18.5708 -9.77975 -12.1025L34.3774 34.224C29.1643 39.193 22.2265 41.9454 15.0248 41.9018L15.4121 -22.097ZM-9.74083 -12.1396C-16.3385 -5.87195 -20.7564 3.10026 -20.9261 13.2359L43.0649 14.3078C42.929 22.4212 39.3845 29.4674 34.3384 34.261L-9.74083 -12.1396ZM-20.9263 13.2438C-21.0057 18.0549 -20.115 22.8327 -18.3075 27.292L41.0052 3.2503C42.4269 6.75776 43.1275 10.5157 43.065 14.2999L-20.9263 13.2438ZM-18.3075 27.292C-16.5 31.7514 -13.8126 35.8008 -10.4057 39.1988L34.7901 -6.115C37.4697 -3.44231 39.5835 -0.257182 41.0052 3.2503L-18.3075 27.292ZM-10.3837 39.2207C-10.4078 39.1967 -10.5616 39.0438 -10.7759 38.8186C-10.9887 38.5951 -11.3676 38.1892 -11.8261 37.6489C-12.6923 36.6282 -14.3886 34.4988 -15.9112 31.4064C-17.5886 27.9996 -18.6078 24.3496 -18.9626 20.6653C-19.2823 17.3448 -18.9842 14.7417 -18.8152 13.5406L44.5606 22.4575C45.0675 18.8548 45.5578 11.3642 41.5061 3.1354C39.88 -0.167108 38.0361 -2.50672 36.9706 -3.76222C35.9504 -4.96439 35.0217 -5.88443 34.7681 -6.13687L-10.3837 39.2207ZM15.1322 42.9029C15.1322 42.9029 15.1322 42.9029 15.1323 42.9029C15.1323 42.9029 15.1323 42.9029 15.1324 42.9029C15.1324 42.9029 15.1324 42.9029 15.1325 42.9029C15.1325 42.9029 15.1325 42.9029 15.1326 42.9029C15.1326 42.9029 15.1326 42.9029 15.1327 42.9029C15.1327 42.9029 15.1327 42.9029 15.1328 42.9029C15.1328 42.9029 15.1328 42.9029 15.1329 42.9029C15.1329 42.9029 15.1329 42.9029 15.133 42.9029C15.133 42.9029 15.133 42.9029 15.133 42.9029C15.1331 42.9029 15.1331 42.9029 15.1331 42.9029C15.1332 42.9029 15.1332 42.9029 15.1332 42.9029C15.1333 42.9029 15.1333 42.9029 15.1333 42.9029C15.1334 42.9029 15.1334 42.9029 15.1334 42.9029C15.1335 42.9029 15.1335 42.9029 15.1335 42.9029C15.1336 42.9029 15.1336 42.9029 15.1336 42.9029C15.1337 42.9029 15.1337 42.9029 15.1337 42.9029C15.1338 42.9029 15.1338 42.9029 15.1338 42.9029C15.1339 42.9029 15.1339 42.9029 15.1339 42.9029C15.1339 42.9029 15.134 42.9029 15.134 42.9029C15.134 42.9029 15.1341 42.9029 15.1341 42.9029C15.1341 42.9029 15.1342 42.9029 15.1342 42.9029C15.1342 42.9029 15.1343 42.9029 15.1343 42.9029C15.1343 42.9029 15.1344 42.9029 15.1344 42.9029C15.1344 42.9029 15.1345 42.9029 15.1345 42.9029C15.1345 42.9029 15.1346 42.9029 15.1346 42.9029C15.1346 42.9029 15.1347 42.9029 15.1347 42.9029C15.1347 42.9029 15.1347 42.9029 15.1348 42.9029C15.1348 42.9029 15.1348 42.9029 15.1349 42.9029C15.1349 42.9029 15.1349 42.9029 15.135 42.9029C15.135 42.9029 15.135 42.9029 15.1351 42.9029C15.1351 42.9029 15.1351 42.9029 15.1352 42.9029C15.1352 42.9029 15.1352 42.9029 15.1353 42.9029C15.1353 42.9029 15.1353 42.9029 15.1354 42.9029C15.1354 42.9029 15.1354 42.9029 15.1355 42.9029C15.1355 42.9029 15.1355 42.9029 15.1356 42.9029C15.1356 42.9029 15.1356 42.9029 15.1356 42.9029C15.1357 42.9029 15.1357 42.9029 15.1357 42.9029C15.1358 42.9029 15.1358 42.9029 15.1358 42.9029C15.1359 42.9029 15.1359 42.9029 15.1359 42.9029C15.136 42.9029 15.136 42.9029 15.136 42.9029C15.1361 42.9029 15.1361 42.9029 15.1361 42.9029C15.1362 42.9029 15.1362 42.9029 15.1362 42.9029C15.1363 42.9029 15.1363 42.9029 15.1363 42.9029C15.1364 42.9029 15.1364 42.9029 15.1364 42.9029C15.1364 42.9029 15.1365 42.9029 15.1365 42.9029C15.1365 42.9029 15.1366 42.9029 15.1366 42.9029C15.1366 42.9029 15.1367 42.9029 15.1367 42.9029C15.1367 42.9029 15.1368 42.9029 15.1368 42.9029C15.1368 42.9029 15.1369 42.9029 15.1369 42.9029C15.1369 42.9029 15.137 42.9029 15.137 42.9029C15.137 42.9029 15.1371 42.9029 15.1371 42.9029C15.1371 42.9029 15.1372 42.9029 15.1372 42.9029C15.1372 42.9029 15.1372 42.9029 15.1373 42.9029C15.1373 42.9029 15.1373 42.9029 15.1374 42.9029C15.1374 42.9029 15.1374 42.9029 15.1375 42.9029C15.1375 42.9029 15.1375 42.9029 15.1376 42.9029C15.1376 42.9029 15.1376 42.9029 15.1377 42.9029C15.1377 42.9029 15.1377 42.9029 15.1378 42.9029C15.1378 42.9029 15.1378 42.9029 15.1379 42.9029C15.1379 42.9029 15.1379 42.9029 15.138 42.9029C15.138 42.9029 15.138 42.9029 15.1381 42.9029C15.1381 42.9029 15.1381 42.9029 15.1381 42.9029C15.1382 42.9029 15.1382 42.9029 15.1382 42.9029C15.1383 42.9029 15.1383 42.9029 15.1383 42.9029C15.1384 42.9029 15.1384 42.9029 15.1384 42.9029C15.1385 42.9029 15.1385 42.9029 15.1385 42.9029C15.1386 42.9029 15.1386 42.9029 15.1386 42.9029C15.1387 42.9029 15.1387 42.9029 15.1387 42.9029C15.1388 42.9029 15.1388 42.9029 15.1388 42.9029C15.1389 42.9029 15.1389 42.9029 15.1389 42.9029C15.1389 42.9029 15.139 42.9029 15.139 42.9029C15.139 42.9029 15.1391 42.9029 15.1391 42.9029C15.1391 42.9029 15.1392 42.9029 15.1392 42.9029C15.1392 42.9029 15.1393 42.9029 15.1393 42.9029C15.1393 42.9029 15.1394 42.9029 15.1394 42.9029C15.1394 42.9029 15.1395 42.9029 15.1395 42.9029C15.1395 42.9029 15.1396 42.9029 15.1396 42.9029C15.1396 42.9029 15.1397 42.9029 15.1397 42.9029C15.1397 42.9029 15.1397 42.9029 15.1398 42.9029C15.1398 42.9029 15.1398 42.9029 15.1399 42.9029C15.1399 42.9029 15.1399 42.9029 15.14 42.9029C15.14 42.9029 15.14 42.9029 15.1401 42.9029C15.1401 42.9029 15.1401 42.9029 15.1402 42.9029C15.1402 42.9029 15.1402 42.9029 15.1403 42.9029C15.1403 42.9029 15.1403 42.9029 15.1404 42.9029C15.1404 42.9029 15.1404 42.9029 15.1405 42.9029C15.1405 42.9029 15.1405 42.9029 15.1406 42.9029C15.1406 42.9029 15.1406 42.9029 15.1406 42.9029C15.1407 42.9029 15.1407 42.9029 15.1407 42.9029C15.1408 42.9029 15.1408 42.9029 15.1408 42.9029C15.1409 42.9029 15.1409 42.9029 15.1409 42.9029C15.141 42.9029 15.141 42.9029 15.141 42.9029C15.1411 42.9029 15.1411 42.9029 15.1411 42.9029C15.1412 42.9029 15.1412 42.9029 15.1412 42.9029C15.1413 42.9029 15.1413 42.9029 15.1413 42.9029C15.1414 42.9029 15.1414 42.9029 15.1414 42.9029C15.1414 42.9029 15.1415 42.9029 15.1415 42.9029C15.1415 42.9029 15.1416 42.9029 15.1416 42.9029C15.1416 42.9029 15.1417 42.9029 15.1417 42.9029C15.1417 42.9029 15.1418 42.9029 15.1418 42.9029C15.1418 42.9029 15.1419 42.9029 15.1419 42.9029C15.1419 42.9029 15.142 42.9029 15.142 42.9029C15.142 42.9029 15.1421 42.9029 15.1421 42.9029C15.1421 42.9029 15.1422 42.9029 15.1422 42.9029C15.1422 42.9029 15.1422 42.9029 15.1423 42.9029C15.1423 42.9029 15.1423 42.9029 15.1424 42.9029C15.1424 42.9029 15.1424 42.9029 15.1425 42.9029C15.1425 42.9029 15.1425 42.9029 15.1426 42.9029C15.1426 42.9029 15.1426 42.9029 15.1427 42.9029C15.1427 42.9029 15.1427 42.9029 15.1428 42.9029C15.1428 42.9029 15.1428 42.9029 15.1429 42.9029C15.1429 42.9029 15.1429 42.9029 15.143 42.9029C15.143 42.9029 15.143 42.9029 15.143 42.9029C15.1431 42.9029 15.1431 42.9029 15.1431 42.9029C15.1432 42.9029 15.1432 42.9029 15.1432 42.9029C15.1433 42.9029 15.1433 42.9029 15.1433 42.9029C15.1434 42.9029 15.1434 42.9029 15.1434 42.9029C15.1435 42.9029 15.1435 42.9029 15.1435 42.9029C15.1436 42.9029 15.1436 42.9029 15.1436 42.9029C15.1437 42.9029 15.1437 42.9029 15.1437 42.9029C15.1438 42.9029 15.1438 42.9029 15.1438 42.9029C15.1438 42.9029 15.1439 42.9029 15.1439 42.9029C15.1439 42.9029 15.144 42.9029 15.144 42.9029C15.144 42.9029 15.1441 42.9029 15.1441 42.9029C15.1441 42.9029 15.1442 42.9029 15.1442 42.9029C15.1442 42.9029 15.1443 42.9029 15.1443 42.9029C15.1443 42.9029 15.1444 42.9029 15.1444 42.9029C15.1444 42.9029 15.1445 42.9029 15.1445 42.9029C15.1445 42.9029 15.1446 42.9029 15.1446 42.9029C15.1446 42.9029 15.1446 42.9029 15.1447 42.9029C15.1447 42.9029 15.1447 42.9029 15.1448 42.9029C15.1448 42.9029 15.1448 42.9029 15.1449 42.9029C15.1449 42.9029 15.1449 42.9029 15.145 42.9029C15.145 42.9029 15.145 42.9029 15.1451 42.9029C15.1451 42.9029 15.1451 42.9029 15.1452 42.9029C15.1452 42.9029 15.1452 42.9029 15.1453 42.9029C15.1453 42.9029 15.1453 42.9029 15.1454 42.9029C15.1454 42.9029 15.1454 42.9029 15.1454 42.9029C15.1455 42.9029 15.1455 42.9029 15.1455 42.9029C15.1456 42.9029 15.1456 42.9029 15.1456 42.9029C15.1457 42.9029 15.1457 42.9029 15.1457 42.9029C15.1458 42.9029 15.1458 42.9029 15.1458 42.9029C15.1459 42.9029 15.1459 42.9029 15.1459 42.9029C15.146 42.9029 15.146 42.9029 15.146 42.9029C15.1461 42.9029 15.1461 42.9029 15.1461 42.9029C15.1462 42.9029 15.1462 42.9029 15.1462 42.9029C15.1462 42.9029 15.1463 42.9029 15.1463 42.9029C15.1463 42.9029 15.1464 42.9029 15.1464 42.9029C15.1464 42.9029 15.1465 42.9029 15.1465 42.9029C15.1465 42.9029 15.1466 42.9029 15.1466 42.9029C15.1466 42.9029 15.1467 42.9029 15.1467 42.9029C15.1467 42.9029 15.1468 42.9029 15.1468 42.9029C15.1468 42.9029 15.1469 42.9029 15.1469 42.9029C15.1469 42.9029 15.147 42.9029 15.147 42.9029C15.147 42.9029 15.147 42.9029 15.1471 42.9029C15.1471 42.9029 15.1471 42.9029 15.1472 42.9029C15.1472 42.9029 15.1472 42.9029 15.1473 42.9029C15.1473 42.9029 15.1473 42.9029 15.1474 42.9029C15.1474 42.9029 15.1474 42.9029 15.1475 42.9029C15.1475 42.9029 15.1475 42.9029 15.1476 42.9029C15.1476 42.9029 15.1476 42.9029 15.1477 42.9029C15.1477 42.9029 15.1477 42.9029 15.1478 42.9029C15.1478 42.9029 15.1478 42.9029 15.1478 42.9029C15.1479 42.9029 15.1479 42.9029 15.1479 42.9029C15.148 42.9029 15.148 42.9029 15.148 42.9029C15.1481 42.9029 15.1481 42.9029 15.1481 42.9029C15.1482 42.9029 15.1482 42.9029 15.1482 42.9029C15.1483 42.9029 15.1483 42.9029 15.1483 42.9029C15.1484 42.9029 15.1484 42.9029 15.1484 42.9029C15.1485 42.9029 15.1485 42.9029 15.1485 42.9029C15.1486 42.9029 15.1486 42.9029 15.1486 42.9029C15.1486 42.9029 15.1487 42.9029 15.1487 42.9029C15.1487 42.9029 15.1488 42.9029 15.1488 42.9029C15.1488 42.9029 15.1489 42.9029 15.1489 42.9029C15.1489 42.9029 15.149 42.9029 15.149 42.9029C15.149 42.9029 15.1491 42.9029 15.1491 42.9029C15.1491 42.9029 15.1492 42.9029 15.1492 42.9029C15.1492 42.9029 15.1493 42.9029 15.1493 42.9029C15.1493 42.9029 15.1494 42.9029 15.1494 42.9029C15.1494 42.9029 15.1494 42.9029 15.1495 42.9029C15.1495 42.9029 15.1495 42.9029 15.1496 42.9029C15.1496 42.9029 15.1496 42.9029 15.1497 42.9029C15.1497 42.9029 15.1497 42.9029 15.1498 42.9029C15.1498 42.9029 15.1498 42.9029 15.1499 42.9029C15.1499 42.9029 15.1499 42.9029 15.15 42.9029C15.15 42.9029 15.15 42.9029 15.1501 42.9029C15.1501 42.9029 15.1501 42.9029 15.1502 42.9029C15.1502 42.9029 15.1502 42.9029 15.1502 42.9029C15.1503 42.9029 15.1503 42.9029 15.1503 42.9029C15.1504 42.9029 15.1504 42.9029 15.1504 42.9029C15.1505 42.9029 15.1505 42.9029 15.1505 42.9029C15.1506 42.9029 15.1506 42.9029 15.1506 42.9029C15.1507 42.9029 15.1507 42.9029 15.1507 42.9029C15.1508 42.9029 15.1508 42.9029 15.1508 42.9029C15.1509 42.9029 15.1509 42.9029 15.1509 42.9029C15.1509 42.9029 15.151 42.9029 15.151 42.9029C15.151 42.9029 15.1511 42.9029 15.1511 42.9029C15.1511 42.9029 15.1512 42.9029 15.1512 42.9029C15.1512 42.9029 15.1513 42.9029 15.1513 42.9029C15.1513 42.9029 15.1514 42.9029 15.1514 42.9029C15.1514 42.9029 15.1515 42.9029 15.1515 42.9029C15.1515 42.9029 15.1516 42.9029 15.1516 42.9029C15.1516 42.9029 15.1517 42.9029 15.1517 42.9029C15.1517 42.9029 15.1517 42.9029 15.1518 42.9029C15.1518 42.9029 15.1518 42.9029 15.1519 42.9029C15.1519 42.9029 15.1519 42.9029 15.152 42.9029C15.152 42.9029 15.152 42.9029 15.1521 42.9029C15.1521 42.9029 15.1521 42.9029 15.1522 42.9029C15.1522 42.9029 15.1522 42.9029 15.1523 42.9029C15.1523 42.9029 15.1523 42.9029 15.1524 42.9029C15.1524 42.9029 15.1524 42.9029 15.1525 42.9029C15.1525 42.9029 15.1525 42.9029 15.1525 42.9029C15.1526 42.9029 15.1526 42.9029 15.1526 42.9029C15.1527 42.9029 15.1527 42.9029 15.1527 42.9029C15.1528 42.9029 15.1528 42.9029 15.1528 42.9029C15.1529 42.9029 15.1529 42.9029 15.1529 42.9029C15.153 42.9029 15.153 42.9029 15.153 42.9029C15.1531 42.9029 15.1531 42.9029 15.1531 42.9029C15.1532 42.9029 15.1532 42.9029 15.1532 42.9029C15.1533 42.9029 15.1533 42.9029 15.1533 42.9029C15.1533 42.9029 15.1534 42.9029 15.1534 42.9029C15.1534 42.9029 15.1535 42.9029 15.1535 42.9029C15.1535 42.9029 15.1536 42.9029 15.1536 42.9029C15.1536 42.9029 15.1537 42.9029 15.1537 42.9029C15.1537 42.9029 15.1538 42.9029 15.1538 42.9029C15.1538 42.9029 15.1539 42.9029 15.1539 42.9029C15.1539 42.9029 15.154 42.9029 15.154 42.9029C15.154 42.9029 15.1541 42.9029 15.1541 42.9029C15.1541 42.9029 15.1541 42.9029 15.1542 42.9029C15.1542 42.9029 15.1542 42.9029 15.1543 42.9029C15.1543 42.9029 15.1543 42.9029 15.1544 42.9029C15.1544 42.9029 15.1544 42.9029 15.1545 42.9029C15.1545 42.9029 15.1545 42.9029 15.1546 42.9029C15.1546 42.9029 15.1546 42.9029 15.1547 42.9029C15.1547 42.9029 15.1547 42.9029 15.1548 42.9029C15.1548 42.9029 15.1548 42.9029 15.1548 42.9029C15.1549 42.9029 15.1549 42.9029 15.1549 42.9029C15.155 42.9029 15.155 42.9029 15.155 42.9029C15.1551 42.9029 15.1551 42.9029 15.1551 42.9029C15.1552 42.9029 15.1552 42.9029 15.1552 42.9029C15.1553 42.9029 15.1553 42.9029 15.1553 42.9029C15.1554 42.9029 15.1554 42.9029 15.1554 42.9029C15.1555 42.9029 15.1555 42.9029 15.1555 42.9029C15.1556 42.9029 15.1556 42.9029 15.1556 42.9029C15.1556 42.9029 15.1557 42.9029 15.1557 42.9029C15.1557 42.9029 15.1558 42.9029 15.1558 42.9029C15.1558 42.9029 15.1559 42.9029 15.1559 42.9029C15.1559 42.9029 15.156 42.9029 15.156 42.9029C15.156 42.9029 15.1561 42.9029 15.1561 42.9029C15.1561 42.9029 15.1562 42.9029 15.1562 42.9029C15.1562 42.9029 15.1563 42.9029 15.1563 42.9029C15.1563 42.9029 15.1564 42.9029 15.1564 42.9029C15.1564 42.9029 15.1564 42.9029 15.1565 42.9029C15.1565 42.9029 15.1565 42.9029 15.1566 42.9029C15.1566 42.9029 15.1566 42.9029 15.1567 42.9029C15.1567 42.9029 15.1567 42.9029 15.1568 42.9029C15.1568 42.9029 15.1568 42.9029 15.1569 42.9029C15.1569 42.9029 15.1569 42.9029 15.157 42.9029C15.157 42.9029 15.157 42.9029 15.1571 42.9029C15.1571 42.9029 15.1571 42.9029 15.1572 42.9029C15.1572 42.9029 15.1572 42.9029 15.1572 42.9029C15.1573 42.9029 15.1573 42.9029 15.1573 42.9029C15.1574 42.9029 15.1574 42.9029 15.1574 42.9029C15.1575 42.9029 15.1575 42.9029 15.1575 42.9029C15.1576 42.9029 15.1576 42.9029 15.1576 42.9029C15.1577 42.9029 15.1577 42.9029 15.1577 42.9029C15.1578 42.9029 15.1578 42.9029 15.1578 42.9029C15.1579 42.9029 15.1579 42.9029 15.1579 42.9029C15.1579 42.9029 15.158 42.9029 15.158 42.9029C15.158 42.9029 15.1581 42.9029 15.1581 42.9029C15.1581 42.9029 15.1582 42.9029 15.1582 42.9029C15.1582 42.9029 15.1583 42.9029 15.1583 42.9029C15.1583 42.9029 15.1584 42.9029 15.1584 42.9029C15.1584 42.9029 15.1585 42.9029 15.1585 42.9029C15.1585 42.9029 15.1586 42.9029 15.1586 42.9029C15.1586 42.9029 15.1587 42.9029 15.1587 42.9029C15.1587 42.9029 15.1587 42.9029 15.1588 42.9029C15.1588 42.9029 15.1588 42.9029 15.1589 42.9029C15.1589 42.9029 15.1589 42.9029 15.159 42.9029C15.159 42.9029 15.159 42.9029 15.1591 42.9029C15.1591 42.9029 15.1591 42.9029 15.1592 42.9029C15.1592 42.9029 15.1592 42.9029 15.1593 42.9029C15.1593 42.9029 15.1593 42.9029 15.1594 42.9029C15.1594 42.9029 15.1594 42.9029 15.1595 42.9029C15.1595 42.9029 15.1595 42.9029 15.1595 42.9029C15.1596 42.9029 15.1596 42.9029 15.1596 42.9029C15.1597 42.9029 15.1597 42.9029 15.1597 42.9029C15.1598 42.9029 15.1598 42.9029 15.1598 42.9029C15.1599 42.9029 15.1599 42.9029 15.1599 42.9029C15.16 42.9029 15.16 42.9029 15.16 42.9029C15.1601 42.9029 15.1601 42.9029 15.1601 42.9029C15.1602 42.9029 15.1602 42.9029 15.1602 42.9029C15.1602 42.9029 15.1603 42.9029 15.1603 42.9029C15.1603 42.9029 15.1604 42.9029 15.1604 42.9029C15.1604 42.9029 15.1605 42.9029 15.1605 42.9029C15.1605 42.9029 15.1606 42.9029 15.1606 42.9029C15.1606 42.9029 15.1607 42.9029 15.1607 42.9029C15.1607 42.9029 15.1608 42.9029 15.1608 42.9029C15.1608 42.9029 15.1609 42.9029 15.1609 42.9029C15.1609 42.9029 15.161 42.9029 15.161 42.9029C15.161 42.9029 15.161 42.9029 15.1611 42.9029C15.1611 42.9029 15.1611 42.9029 15.1612 42.9029C15.1612 42.9029 15.1612 42.9029 15.1613 42.9029C15.1613 42.9029 15.1613 42.9029 15.1614 42.9029C15.1614 42.9029 15.1614 42.9029 15.1615 42.9029C15.1615 42.9029 15.1615 42.9029 15.1616 42.9029C15.1616 42.9029 15.1616 42.9029 15.1617 42.9029C15.1617 42.9029 15.1617 42.9029 15.1618 42.9029C15.1618 42.9029 15.1618 42.9029 15.1618 42.9029C15.1619 42.9029 15.1619 42.9029 15.1619 42.9029C15.162 42.9029 15.162 42.9029 15.162 42.9029C15.1621 42.9029 15.1621 42.9029 15.1621 42.9029C15.1622 42.9029 15.1622 42.9029 15.1622 42.9029C15.1623 42.9029 15.1623 42.9029 15.1623 42.9029C15.1624 42.9029 15.1624 42.9029 15.1624 42.9029C15.1625 42.9029 15.1625 42.9029 15.1625 42.9029C15.1625 42.9029 15.1626 42.9029 15.1626 42.9029C15.1626 42.9029 15.1627 42.9029 15.1627 42.9029C15.1627 42.9029 15.1628 42.9029 15.1628 42.9029C15.1628 42.9029 15.1629 42.9029 15.1629 42.9029C15.1629 42.9029 15.163 42.9029 15.163 42.9029C15.163 42.9029 15.1631 42.9029 15.1631 42.9029C15.1631 42.9029 15.1632 42.9029 15.1632 42.9029C15.1632 42.9029 15.1633 42.9029 15.1633 42.9029C15.1633 42.9029 15.1633 42.9029 15.1634 42.9029C15.1634 42.9029 15.1634 42.9029 15.1635 42.9029C15.1635 42.9029 15.1635 42.9029 15.1636 42.9029C15.1636 42.9029 15.1636 42.9029 15.1637 42.9029C15.1637 42.9029 15.1637 42.9029 15.1638 42.9029C15.1638 42.9029 15.1638 42.9029 15.1639 42.9029C15.1639 42.9029 15.1639 42.9029 15.164 42.9029C15.164 42.9029 15.164 42.9029 15.1641 42.9029C15.1641 42.9029 15.1641 42.9029 15.1641 42.9029C15.1642 42.9029 15.1642 42.9029 15.1642 42.9029C15.1643 42.9029 15.1643 42.9029 15.1643 42.9029C15.1644 42.9029 15.1644 42.9029 15.1644 42.9029C15.1645 42.9029 15.1645 42.9029 15.1645 42.9029C15.1646 42.9029 15.1646 42.9029 15.1646 42.9029C15.1647 42.9029 15.1647 42.9029 15.1647 42.9029C15.1648 42.9029 15.1648 42.9029 15.1648 42.9029C15.1648 42.9029 15.1649 42.9029 15.1649 42.9029C15.1649 42.9029 15.165 42.9029 15.165 42.9029C15.165 42.9029 15.1651 42.9029 15.1651 42.9029C15.1651 42.9029 15.1652 42.9029 15.1652 42.9029C15.1652 42.9029 15.1653 42.9029 15.1653 42.9029C15.1653 42.9029 15.1654 42.9029 15.1654 42.9029C15.1654 42.9029 15.1655 42.9029 15.1655 42.9029C15.1655 42.9029 15.1656 42.9029 15.1656 42.9029C15.1656 42.9029 15.1656 42.9029 15.1657 42.9029C15.1657 42.9029 15.1657 42.9029 15.1658 42.9029C15.1658 42.9029 15.1658 42.9029 15.1659 42.9029C15.1659 42.9029 15.1659 42.9029 15.166 42.9029C15.166 42.9029 15.166 42.9029 15.1661 42.9029C15.1661 42.9029 15.1661 42.9029 15.1662 42.9029C15.1662 42.9029 15.1662 42.9029 15.1663 42.9029C15.1663 42.9029 15.1663 42.9029 15.1664 42.9029C15.1664 42.9029 15.1664 42.9029 15.1664 42.9029C15.1665 42.9029 15.1665 42.9029 15.1665 42.9029C15.1666 42.9029 15.1666 42.9029 15.1666 42.9029C15.1667 42.9029 15.1667 42.9029 15.1667 42.9029C15.1668 42.9029 15.1668 42.9029 15.1668 42.9029C15.1669 42.9029 15.1669 42.9029 15.1669 42.9029C15.167 42.9029 15.167 42.9029 15.167 42.9029C15.1671 42.9029 15.1671 42.9029 15.1671 42.9029C15.1671 42.9029 15.1672 42.9029 15.1672 42.9029C15.1672 42.9029 15.1673 42.9029 15.1673 42.9029C15.1673 42.9029 15.1674 42.9029 15.1674 42.9029C15.1674 42.9029 15.1675 42.9029 15.1675 42.9029C15.1675 42.9029 15.1676 42.9029 15.1676 42.9029C15.1676 42.9029 15.1677 42.9029 15.1677 42.9029C15.1677 42.9029 15.1678 42.9029 15.1678 42.9029C15.1678 42.9029 15.1679 42.9029 15.1679 42.9029C15.1679 42.9029 15.1679 42.9029 15.168 42.9029C15.168 42.9029 15.168 42.9029 15.1681 42.9029C15.1681 42.9029 15.1681 42.9029 15.1682 42.9029C15.1682 42.9029 15.1682 42.9029 15.1683 42.9029C15.1683 42.9029 15.1683 42.9029 15.1684 42.9029C15.1684 42.9029 15.1684 42.9029 15.1685 42.9029C15.1685 42.9029 15.1685 42.9029 15.1686 42.9029C15.1686 42.9029 15.1686 42.9029 15.1687 42.9029C15.1687 42.9029 15.1687 42.9029 15.1687 42.9029C15.1688 42.9029 15.1688 42.9029 15.1688 42.9029C15.1689 42.9029 15.1689 42.9029 15.1689 42.9029C15.169 42.9029 15.169 42.9029 15.169 42.9029C15.1691 42.9029 15.1691 42.9029 15.1691 42.9029C15.1692 42.9029 15.1692 42.9029 15.1692 42.9029C15.1693 42.9029 15.1693 42.9029 15.1693 42.9029C15.1694 42.9029 15.1694 42.9029 15.1694 42.9029C15.1694 42.9029 15.1695 42.9029 15.1695 42.9029C15.1695 42.9029 15.1696 42.9029 15.1696 42.9029C15.1696 42.9029 15.1697 42.9029 15.1697 42.9029C15.1697 42.9029 15.1698 42.9029 15.1698 42.9029C15.1698 42.9029 15.1699 42.9029 15.1699 42.9029C15.1699 42.9029 15.17 42.9029 15.17 42.9029C15.17 42.9029 15.1701 42.9029 15.1701 42.9029C15.1701 42.9029 15.1702 42.9029 15.1702 42.9029C15.1702 42.9029 15.1702 42.9029 15.1703 42.9029C15.1703 42.9029 15.1703 42.9029 15.1704 42.9029C15.1704 42.9029 15.1704 42.9029 15.1705 42.9029C15.1705 42.9029 15.1705 42.9029 15.1706 42.9029C15.1706 42.9029 15.1706 42.9029 15.1707 42.9029C15.1707 42.9029 15.1707 42.9029 15.1708 42.9029C15.1708 42.9029 15.1708 42.9029 15.1709 42.9029C15.1709 42.9029 15.1709 42.9029 15.171 42.9029C15.171 42.9029 15.171 42.9029 15.171 42.9029C15.1711 42.9029 15.1711 42.9029 15.1711 42.9029C15.1712 42.9029 15.1712 42.9029 15.1712 42.9029C15.1713 42.9029 15.1713 42.9029 15.1713 42.9029C15.1714 42.9029 15.1714 42.9029 15.1714 42.9029C15.1715 42.9029 15.1715 42.9029 15.1715 42.9029C15.1716 42.9029 15.1716 42.9029 15.1716 42.9029C15.1717 42.9029 15.1717 42.9029 15.1717 42.9029C15.1717 42.9029 15.1718 42.9029 15.1718 42.9029C15.1718 42.9029 15.1719 42.9029 15.1719 42.9029C15.1719 42.9029 15.172 42.9029 15.172 42.9029C15.172 42.9029 15.1721 42.9029 15.1721 42.9029C15.1721 42.9029 15.1722 42.9029 15.1722 42.9029C15.1722 42.9029 15.1723 42.9029 15.1723 42.9029C15.1723 42.9029 15.1724 42.9029 15.1724 42.9029C15.1724 42.9029 15.1725 42.9029 15.1725 42.9029C15.1725 42.9029 15.1725 42.9029 15.1726 42.9029C15.1726 42.9029 15.1726 42.9029 15.1727 42.9029C15.1727 42.9029 15.1727 42.9029 15.1728 42.9029C15.1728 42.9029 15.1728 42.9029 15.1729 42.9029C15.1729 42.9029 15.1729 42.9029 15.173 42.9029C15.173 42.9029 15.173 42.9029 15.1731 42.9029C15.1731 42.9029 15.1731 42.9029 15.1732 42.9029C15.1732 42.9029 15.1732 42.9029 15.1733 42.9029C15.1733 42.9029 15.1733 42.9029 15.1733 42.9029C15.1734 42.9029 15.1734 42.9029 15.1734 42.9029C15.1735 42.9029 15.1735 42.9029 15.1735 42.9029C15.1736 42.9029 15.1736 42.9029 15.1736 42.9029C15.1737 42.9029 15.1737 42.9029 15.1737 42.9029C15.1738 42.9029 15.1738 42.9029 15.1738 42.9029C15.1739 42.9029 15.1739 42.9029 15.1739 42.9029C15.174 42.9029 15.174 42.9029 15.174 42.9029C15.174 42.9029 15.1741 42.9029 15.1741 42.9029C15.1741 42.9029 15.1742 42.9029 15.1742 42.9029C15.1742 42.9029 15.1743 42.9029 15.1743 42.9029C15.1743 42.9029 15.1744 42.9029 15.1744 42.9029C15.1744 42.9029 15.1745 42.9029 15.1745 42.9029C15.1745 42.9029 15.1746 42.9029 15.1746 42.9029C15.1746 42.9029 15.1747 42.9029 15.1747 42.9029C15.1747 42.9029 15.1748 42.9029 15.1748 42.9029C15.1748 42.9029 15.1748 42.9029 15.1749 42.9029C15.1749 42.9029 15.1749 42.9029 15.175 42.9029C15.175 42.9029 15.175 42.9029 15.1751 42.9029C15.1751 42.9029 15.1751 42.9029 15.1752 42.9029C15.1752 42.9029 15.1752 42.9029 15.1753 42.9029C15.1753 42.9029 15.1753 42.9029 15.1754 42.9029C15.1754 42.9029 15.1754 42.9029 15.1755 42.9029C15.1755 42.9029 15.1755 42.9029 15.1756 42.9029C15.1756 42.9029 15.1756 42.9029 15.1756 42.9029C15.1757 42.9029 15.1757 42.9029 15.1757 42.9029C15.1758 42.9029 15.1758 42.9029 15.1758 42.9029C15.1759 42.9029 15.1759 42.9029 15.1759 42.9029C15.176 42.9029 15.176 42.9029 15.176 42.9029C15.1761 42.9029 15.1761 42.9029 15.1761 42.9029C15.1762 42.9029 15.1762 42.9029 15.1762 42.9029C15.1763 42.9029 15.1763 42.9029 15.1763 42.9029C15.1764 42.9029 15.1764 42.9029 15.1764 42.9029C15.1764 42.9029 15.1765 42.9029 15.1765 42.9029C15.1765 42.9029 15.1766 42.9029 15.1766 42.9029C15.1766 42.9029 15.1767 42.9029 15.1767 42.9029C15.1767 42.9029 15.1768 42.9029 15.1768 42.9029C15.1768 42.9029 15.1769 42.9029 15.1769 42.9029C15.1769 42.9029 15.177 42.9029 15.177 42.9029C15.177 42.9029 15.1771 42.9029 15.1771 42.9029C15.1771 42.9029 15.1771 42.9029 15.1772 42.9029C15.1772 42.9029 15.1772 42.9029 15.1773 42.9029C15.1773 42.9029 15.1773 42.9029 15.1774 42.9029C15.1774 42.9029 15.1774 42.9029 15.1775 42.9029C15.1775 42.9029 15.1775 42.9029 15.1776 42.9029C15.1776 42.9029 15.1776 42.9029 15.1777 42.9029C15.1777 42.9029 15.1777 42.9029 15.1778 42.9029C15.1778 42.9029 15.1778 42.9029 15.1779 42.9029C15.1779 42.9029 15.1779 42.9029 15.1779 42.9029C15.178 42.9029 15.178 42.9029 15.178 42.9029C15.1781 42.9029 15.1781 42.9029 15.1781 42.9029C15.1782 42.9029 15.1782 42.9029 15.1782 42.9029C15.1783 42.9029 15.1783 42.9029 15.1783 42.9029C15.1784 42.9029 15.1784 42.9029 15.1784 42.9029C15.1785 42.9029 15.1785 42.9029 15.1785 42.9029C15.1786 42.9029 15.1786 42.9029 15.1786 42.9029C15.1787 42.9029 15.1787 42.9029 15.1787 42.9029C15.1787 42.9029 15.1788 42.9029 15.1788 42.9029C15.1788 42.9029 15.1789 42.9029 15.1789 42.9029C15.1789 42.9029 15.179 42.9029 15.179 42.9029C15.179 42.9029 15.1791 42.9029 15.1791 42.9029C15.1791 42.9029 15.1792 42.9029 15.1792 42.9029C15.1792 42.9029 15.1793 42.9029 15.1793 42.9029C15.1793 42.9029 15.1794 42.9029 15.1794 42.9029C15.1794 42.9029 15.1795 42.9029 15.1795 42.9029C15.1795 42.9029 15.1795 42.9029 15.1796 42.9029C15.1796 42.9029 15.1796 42.9029 15.1797 42.9029C15.1797 42.9029 15.1797 42.9029 15.1798 42.9029C15.1798 42.9029 15.1798 42.9029 15.1799 42.9029C15.1799 42.9029 15.1799 42.9029 15.18 42.9029C15.18 42.9029 15.18 42.9029 15.1801 42.9029C15.1801 42.9029 15.1801 42.9029 15.1802 42.9029C15.1802 42.9029 15.1802 42.9029 15.1803 42.9029C15.1803 42.9029 15.1803 42.9029 15.1803 42.9029C15.1804 42.9029 15.1804 42.9029 15.1804 42.9029C15.1805 42.9029 15.1805 42.9029 15.1805 42.9029C15.1806 42.9029 15.1806 42.9029 15.1806 42.9029C15.1807 42.9029 15.1807 42.9029 15.1807 42.9029C15.1808 42.9029 15.1808 42.9029 15.1808 42.9029C15.1809 42.9029 15.1809 42.9029 15.1809 42.9029C15.181 42.9029 15.181 42.9029 15.181 42.9029C15.181 42.9029 15.1811 42.9029 15.1811 42.9029C15.1811 42.9029 15.1812 42.9029 15.1812 42.9029C15.1812 42.9029 15.1813 42.9029 15.1813 42.9029V-21.0971C15.1813 -21.0971 15.1812 -21.0971 15.1812 -21.0971C15.1812 -21.0971 15.1811 -21.0971 15.1811 -21.0971C15.1811 -21.0971 15.181 -21.0971 15.181 -21.0971C15.181 -21.0971 15.181 -21.0971 15.1809 -21.0971C15.1809 -21.0971 15.1809 -21.0971 15.1808 -21.0971C15.1808 -21.0971 15.1808 -21.0971 15.1807 -21.0971C15.1807 -21.0971 15.1807 -21.0971 15.1806 -21.0971C15.1806 -21.0971 15.1806 -21.0971 15.1805 -21.0971C15.1805 -21.0971 15.1805 -21.0971 15.1804 -21.0971C15.1804 -21.0971 15.1804 -21.0971 15.1803 -21.0971C15.1803 -21.0971 15.1803 -21.0971 15.1803 -21.0971C15.1802 -21.0971 15.1802 -21.0971 15.1802 -21.0971C15.1801 -21.0971 15.1801 -21.0971 15.1801 -21.0971C15.18 -21.0971 15.18 -21.0971 15.18 -21.0971C15.1799 -21.0971 15.1799 -21.0971 15.1799 -21.0971C15.1798 -21.0971 15.1798 -21.0971 15.1798 -21.0971C15.1797 -21.0971 15.1797 -21.0971 15.1797 -21.0971C15.1796 -21.0971 15.1796 -21.0971 15.1796 -21.0971C15.1795 -21.0971 15.1795 -21.0971 15.1795 -21.0971C15.1795 -21.0971 15.1794 -21.0971 15.1794 -21.0971C15.1794 -21.0971 15.1793 -21.0971 15.1793 -21.0971C15.1793 -21.0971 15.1792 -21.0971 15.1792 -21.0971C15.1792 -21.0971 15.1791 -21.0971 15.1791 -21.0971C15.1791 -21.0971 15.179 -21.0971 15.179 -21.0971C15.179 -21.0971 15.1789 -21.0971 15.1789 -21.0971C15.1789 -21.0971 15.1788 -21.0971 15.1788 -21.0971C15.1788 -21.0971 15.1787 -21.0971 15.1787 -21.0971C15.1787 -21.0971 15.1787 -21.0971 15.1786 -21.0971C15.1786 -21.0971 15.1786 -21.0971 15.1785 -21.0971C15.1785 -21.0971 15.1785 -21.0971 15.1784 -21.0971C15.1784 -21.0971 15.1784 -21.0971 15.1783 -21.0971C15.1783 -21.0971 15.1783 -21.0971 15.1782 -21.0971C15.1782 -21.0971 15.1782 -21.0971 15.1781 -21.0971C15.1781 -21.0971 15.1781 -21.0971 15.178 -21.0971C15.178 -21.0971 15.178 -21.0971 15.1779 -21.0971C15.1779 -21.0971 15.1779 -21.0971 15.1779 -21.0971C15.1778 -21.0971 15.1778 -21.0971 15.1778 -21.0971C15.1777 -21.0971 15.1777 -21.0971 15.1777 -21.0971C15.1776 -21.0971 15.1776 -21.0971 15.1776 -21.0971C15.1775 -21.0971 15.1775 -21.0971 15.1775 -21.0971C15.1774 -21.0971 15.1774 -21.0971 15.1774 -21.0971C15.1773 -21.0971 15.1773 -21.0971 15.1773 -21.0971C15.1772 -21.0971 15.1772 -21.0971 15.1772 -21.0971C15.1771 -21.0971 15.1771 -21.0971 15.1771 -21.0971C15.1771 -21.0971 15.177 -21.0971 15.177 -21.0971C15.177 -21.0971 15.1769 -21.0971 15.1769 -21.0971C15.1769 -21.0971 15.1768 -21.0971 15.1768 -21.0971C15.1768 -21.0971 15.1767 -21.0971 15.1767 -21.0971C15.1767 -21.0971 15.1766 -21.0971 15.1766 -21.0971C15.1766 -21.0971 15.1765 -21.0971 15.1765 -21.0971C15.1765 -21.0971 15.1764 -21.0971 15.1764 -21.0971C15.1764 -21.0971 15.1764 -21.0971 15.1763 -21.0971C15.1763 -21.0971 15.1763 -21.0971 15.1762 -21.0971C15.1762 -21.0971 15.1762 -21.0971 15.1761 -21.0971C15.1761 -21.0971 15.1761 -21.0971 15.176 -21.0971C15.176 -21.0971 15.176 -21.0971 15.1759 -21.0971C15.1759 -21.0971 15.1759 -21.0971 15.1758 -21.0971C15.1758 -21.0971 15.1758 -21.0971 15.1757 -21.0971C15.1757 -21.0971 15.1757 -21.0971 15.1756 -21.0971C15.1756 -21.0971 15.1756 -21.0971 15.1756 -21.0971C15.1755 -21.0971 15.1755 -21.0971 15.1755 -21.0971C15.1754 -21.0971 15.1754 -21.0971 15.1754 -21.0971C15.1753 -21.0971 15.1753 -21.0971 15.1753 -21.0971C15.1752 -21.0971 15.1752 -21.0971 15.1752 -21.0971C15.1751 -21.0971 15.1751 -21.0971 15.1751 -21.0971C15.175 -21.0971 15.175 -21.0971 15.175 -21.0971C15.1749 -21.0971 15.1749 -21.0971 15.1749 -21.0971C15.1748 -21.0971 15.1748 -21.0971 15.1748 -21.0971C15.1748 -21.0971 15.1747 -21.0971 15.1747 -21.0971C15.1747 -21.0971 15.1746 -21.0971 15.1746 -21.0971C15.1746 -21.0971 15.1745 -21.0971 15.1745 -21.0971C15.1745 -21.0971 15.1744 -21.0971 15.1744 -21.0971C15.1744 -21.0971 15.1743 -21.0971 15.1743 -21.0971C15.1743 -21.0971 15.1742 -21.0971 15.1742 -21.0971C15.1742 -21.0971 15.1741 -21.0971 15.1741 -21.0971C15.1741 -21.0971 15.174 -21.0971 15.174 -21.0971C15.174 -21.0971 15.174 -21.0971 15.1739 -21.0971C15.1739 -21.0971 15.1739 -21.0971 15.1738 -21.0971C15.1738 -21.0971 15.1738 -21.0971 15.1737 -21.0971C15.1737 -21.0971 15.1737 -21.0971 15.1736 -21.0971C15.1736 -21.0971 15.1736 -21.0971 15.1735 -21.0971C15.1735 -21.0971 15.1735 -21.0971 15.1734 -21.0971C15.1734 -21.0971 15.1734 -21.0971 15.1733 -21.0971C15.1733 -21.0971 15.1733 -21.0971 15.1733 -21.0971C15.1732 -21.0971 15.1732 -21.0971 15.1732 -21.0971C15.1731 -21.0971 15.1731 -21.0971 15.1731 -21.0971C15.173 -21.0971 15.173 -21.0971 15.173 -21.0971C15.1729 -21.0971 15.1729 -21.0971 15.1729 -21.0971C15.1728 -21.0971 15.1728 -21.0971 15.1728 -21.0971C15.1727 -21.0971 15.1727 -21.0971 15.1727 -21.0971C15.1726 -21.0971 15.1726 -21.0971 15.1726 -21.0971C15.1725 -21.0971 15.1725 -21.0971 15.1725 -21.0971C15.1725 -21.0971 15.1724 -21.0971 15.1724 -21.0971C15.1724 -21.0971 15.1723 -21.0971 15.1723 -21.0971C15.1723 -21.0971 15.1722 -21.0971 15.1722 -21.0971C15.1722 -21.0971 15.1721 -21.0971 15.1721 -21.0971C15.1721 -21.0971 15.172 -21.0971 15.172 -21.0971C15.172 -21.0971 15.1719 -21.0971 15.1719 -21.0971C15.1719 -21.0971 15.1718 -21.0971 15.1718 -21.0971C15.1718 -21.0971 15.1717 -21.0971 15.1717 -21.0971C15.1717 -21.0971 15.1717 -21.0971 15.1716 -21.0971C15.1716 -21.0971 15.1716 -21.0971 15.1715 -21.0971C15.1715 -21.0971 15.1715 -21.0971 15.1714 -21.0971C15.1714 -21.0971 15.1714 -21.0971 15.1713 -21.0971C15.1713 -21.0971 15.1713 -21.0971 15.1712 -21.0971C15.1712 -21.0971 15.1712 -21.0971 15.1711 -21.0971C15.1711 -21.0971 15.1711 -21.0971 15.171 -21.0971C15.171 -21.0971 15.171 -21.0971 15.171 -21.0971C15.1709 -21.0971 15.1709 -21.0971 15.1709 -21.0971C15.1708 -21.0971 15.1708 -21.0971 15.1708 -21.0971C15.1707 -21.0971 15.1707 -21.0971 15.1707 -21.0971C15.1706 -21.0971 15.1706 -21.0971 15.1706 -21.0971C15.1705 -21.0971 15.1705 -21.0971 15.1705 -21.0971C15.1704 -21.0971 15.1704 -21.0971 15.1704 -21.0971C15.1703 -21.0971 15.1703 -21.0971 15.1703 -21.0971C15.1702 -21.0971 15.1702 -21.0971 15.1702 -21.0971C15.1702 -21.0971 15.1701 -21.0971 15.1701 -21.0971C15.1701 -21.0971 15.17 -21.0971 15.17 -21.0971C15.17 -21.0971 15.1699 -21.0971 15.1699 -21.0971C15.1699 -21.0971 15.1698 -21.0971 15.1698 -21.0971C15.1698 -21.0971 15.1697 -21.0971 15.1697 -21.0971C15.1697 -21.0971 15.1696 -21.0971 15.1696 -21.0971C15.1696 -21.0971 15.1695 -21.0971 15.1695 -21.0971C15.1695 -21.0971 15.1694 -21.0971 15.1694 -21.0971C15.1694 -21.0971 15.1694 -21.0971 15.1693 -21.0971C15.1693 -21.0971 15.1693 -21.0971 15.1692 -21.0971C15.1692 -21.0971 15.1692 -21.0971 15.1691 -21.0971C15.1691 -21.0971 15.1691 -21.0971 15.169 -21.0971C15.169 -21.0971 15.169 -21.0971 15.1689 -21.0971C15.1689 -21.0971 15.1689 -21.0971 15.1688 -21.0971C15.1688 -21.0971 15.1688 -21.0971 15.1687 -21.0971C15.1687 -21.0971 15.1687 -21.0971 15.1687 -21.0971C15.1686 -21.0971 15.1686 -21.0971 15.1686 -21.0971C15.1685 -21.0971 15.1685 -21.0971 15.1685 -21.0971C15.1684 -21.0971 15.1684 -21.0971 15.1684 -21.0971C15.1683 -21.0971 15.1683 -21.0971 15.1683 -21.0971C15.1682 -21.0971 15.1682 -21.0971 15.1682 -21.0971C15.1681 -21.0971 15.1681 -21.0971 15.1681 -21.0971C15.168 -21.0971 15.168 -21.0971 15.168 -21.0971C15.1679 -21.0971 15.1679 -21.0971 15.1679 -21.0971C15.1679 -21.0971 15.1678 -21.0971 15.1678 -21.0971C15.1678 -21.0971 15.1677 -21.0971 15.1677 -21.0971C15.1677 -21.0971 15.1676 -21.0971 15.1676 -21.0971C15.1676 -21.0971 15.1675 -21.0971 15.1675 -21.0971C15.1675 -21.0971 15.1674 -21.0971 15.1674 -21.0971C15.1674 -21.0971 15.1673 -21.0971 15.1673 -21.0971C15.1673 -21.0971 15.1672 -21.0971 15.1672 -21.0971C15.1672 -21.0971 15.1671 -21.0971 15.1671 -21.0971C15.1671 -21.0971 15.1671 -21.0971 15.167 -21.0971C15.167 -21.0971 15.167 -21.0971 15.1669 -21.0971C15.1669 -21.0971 15.1669 -21.0971 15.1668 -21.0971C15.1668 -21.0971 15.1668 -21.0971 15.1667 -21.0971C15.1667 -21.0971 15.1667 -21.0971 15.1666 -21.0971C15.1666 -21.0971 15.1666 -21.0971 15.1665 -21.0971C15.1665 -21.0971 15.1665 -21.0971 15.1664 -21.0971C15.1664 -21.0971 15.1664 -21.0971 15.1664 -21.0971C15.1663 -21.0971 15.1663 -21.0971 15.1663 -21.0971C15.1662 -21.0971 15.1662 -21.0971 15.1662 -21.0971C15.1661 -21.0971 15.1661 -21.0971 15.1661 -21.0971C15.166 -21.0971 15.166 -21.0971 15.166 -21.0971C15.1659 -21.0971 15.1659 -21.0971 15.1659 -21.0971C15.1658 -21.0971 15.1658 -21.0971 15.1658 -21.0971C15.1657 -21.0971 15.1657 -21.0971 15.1657 -21.0971C15.1656 -21.0971 15.1656 -21.0971 15.1656 -21.0971C15.1656 -21.0971 15.1655 -21.0971 15.1655 -21.0971C15.1655 -21.0971 15.1654 -21.0971 15.1654 -21.0971C15.1654 -21.0971 15.1653 -21.0971 15.1653 -21.0971C15.1653 -21.0971 15.1652 -21.0971 15.1652 -21.0971C15.1652 -21.0971 15.1651 -21.0971 15.1651 -21.0971C15.1651 -21.0971 15.165 -21.0971 15.165 -21.0971C15.165 -21.0971 15.1649 -21.0971 15.1649 -21.0971C15.1649 -21.0971 15.1648 -21.0971 15.1648 -21.0971C15.1648 -21.0971 15.1648 -21.0971 15.1647 -21.0971C15.1647 -21.0971 15.1647 -21.0971 15.1646 -21.0971C15.1646 -21.0971 15.1646 -21.0971 15.1645 -21.0971C15.1645 -21.0971 15.1645 -21.0971 15.1644 -21.0971C15.1644 -21.0971 15.1644 -21.0971 15.1643 -21.0971C15.1643 -21.0971 15.1643 -21.0971 15.1642 -21.0971C15.1642 -21.0971 15.1642 -21.0971 15.1641 -21.0971C15.1641 -21.0971 15.1641 -21.0971 15.1641 -21.0971C15.164 -21.0971 15.164 -21.0971 15.164 -21.0971C15.1639 -21.0971 15.1639 -21.0971 15.1639 -21.0971C15.1638 -21.0971 15.1638 -21.0971 15.1638 -21.0971C15.1637 -21.0971 15.1637 -21.0971 15.1637 -21.0971C15.1636 -21.0971 15.1636 -21.0971 15.1636 -21.0971C15.1635 -21.0971 15.1635 -21.0971 15.1635 -21.0971C15.1634 -21.0971 15.1634 -21.0971 15.1634 -21.0971C15.1633 -21.0971 15.1633 -21.0971 15.1633 -21.0971C15.1633 -21.0971 15.1632 -21.0971 15.1632 -21.0971C15.1632 -21.0971 15.1631 -21.0971 15.1631 -21.0971C15.1631 -21.0971 15.163 -21.0971 15.163 -21.0971C15.163 -21.0971 15.1629 -21.0971 15.1629 -21.0971C15.1629 -21.0971 15.1628 -21.0971 15.1628 -21.0971C15.1628 -21.0971 15.1627 -21.0971 15.1627 -21.0971C15.1627 -21.0971 15.1626 -21.0971 15.1626 -21.0971C15.1626 -21.0971 15.1625 -21.0971 15.1625 -21.0971C15.1625 -21.0971 15.1625 -21.0971 15.1624 -21.0971C15.1624 -21.0971 15.1624 -21.0971 15.1623 -21.0971C15.1623 -21.0971 15.1623 -21.0971 15.1622 -21.0971C15.1622 -21.0971 15.1622 -21.0971 15.1621 -21.0971C15.1621 -21.0971 15.1621 -21.0971 15.162 -21.0971C15.162 -21.0971 15.162 -21.0971 15.1619 -21.0971C15.1619 -21.0971 15.1619 -21.0971 15.1618 -21.0971C15.1618 -21.0971 15.1618 -21.0971 15.1618 -21.0971C15.1617 -21.0971 15.1617 -21.0971 15.1617 -21.0971C15.1616 -21.0971 15.1616 -21.0971 15.1616 -21.0971C15.1615 -21.0971 15.1615 -21.0971 15.1615 -21.0971C15.1614 -21.0971 15.1614 -21.0971 15.1614 -21.0971C15.1613 -21.0971 15.1613 -21.0971 15.1613 -21.0971C15.1612 -21.0971 15.1612 -21.0971 15.1612 -21.0971C15.1611 -21.0971 15.1611 -21.0971 15.1611 -21.0971C15.161 -21.0971 15.161 -21.0971 15.161 -21.0971C15.161 -21.0971 15.1609 -21.0971 15.1609 -21.0971C15.1609 -21.0971 15.1608 -21.0971 15.1608 -21.0971C15.1608 -21.0971 15.1607 -21.0971 15.1607 -21.0971C15.1607 -21.0971 15.1606 -21.0971 15.1606 -21.0971C15.1606 -21.0971 15.1605 -21.0971 15.1605 -21.0971C15.1605 -21.0971 15.1604 -21.0971 15.1604 -21.0971C15.1604 -21.0971 15.1603 -21.0971 15.1603 -21.0971C15.1603 -21.0971 15.1602 -21.0971 15.1602 -21.0971C15.1602 -21.0971 15.1602 -21.0971 15.1601 -21.0971C15.1601 -21.0971 15.1601 -21.0971 15.16 -21.0971C15.16 -21.0971 15.16 -21.0971 15.1599 -21.0971C15.1599 -21.0971 15.1599 -21.0971 15.1598 -21.0971C15.1598 -21.0971 15.1598 -21.0971 15.1597 -21.0971C15.1597 -21.0971 15.1597 -21.0971 15.1596 -21.0971C15.1596 -21.0971 15.1596 -21.0971 15.1595 -21.0971C15.1595 -21.0971 15.1595 -21.0971 15.1595 -21.0971C15.1594 -21.0971 15.1594 -21.0971 15.1594 -21.0971C15.1593 -21.0971 15.1593 -21.0971 15.1593 -21.0971C15.1592 -21.0971 15.1592 -21.0971 15.1592 -21.0971C15.1591 -21.0971 15.1591 -21.0971 15.1591 -21.0971C15.159 -21.0971 15.159 -21.0971 15.159 -21.0971C15.1589 -21.0971 15.1589 -21.0971 15.1589 -21.0971C15.1588 -21.0971 15.1588 -21.0971 15.1588 -21.0971C15.1587 -21.0971 15.1587 -21.0971 15.1587 -21.0971C15.1587 -21.0971 15.1586 -21.0971 15.1586 -21.0971C15.1586 -21.0971 15.1585 -21.0971 15.1585 -21.0971C15.1585 -21.0971 15.1584 -21.0971 15.1584 -21.0971C15.1584 -21.0971 15.1583 -21.0971 15.1583 -21.0971C15.1583 -21.0971 15.1582 -21.0971 15.1582 -21.0971C15.1582 -21.0971 15.1581 -21.0971 15.1581 -21.0971C15.1581 -21.0971 15.158 -21.0971 15.158 -21.0971C15.158 -21.0971 15.1579 -21.0971 15.1579 -21.0971C15.1579 -21.0971 15.1579 -21.0971 15.1578 -21.0971C15.1578 -21.0971 15.1578 -21.0971 15.1577 -21.0971C15.1577 -21.0971 15.1577 -21.0971 15.1576 -21.0971C15.1576 -21.0971 15.1576 -21.0971 15.1575 -21.0971C15.1575 -21.0971 15.1575 -21.0971 15.1574 -21.0971C15.1574 -21.0971 15.1574 -21.0971 15.1573 -21.0971C15.1573 -21.0971 15.1573 -21.0971 15.1572 -21.0971C15.1572 -21.0971 15.1572 -21.0971 15.1572 -21.0971C15.1571 -21.0971 15.1571 -21.0971 15.1571 -21.0971C15.157 -21.0971 15.157 -21.0971 15.157 -21.0971C15.1569 -21.0971 15.1569 -21.0971 15.1569 -21.0971C15.1568 -21.0971 15.1568 -21.0971 15.1568 -21.0971C15.1567 -21.0971 15.1567 -21.0971 15.1567 -21.0971C15.1566 -21.0971 15.1566 -21.0971 15.1566 -21.0971C15.1565 -21.0971 15.1565 -21.0971 15.1565 -21.0971C15.1564 -21.0971 15.1564 -21.0971 15.1564 -21.0971C15.1564 -21.0971 15.1563 -21.0971 15.1563 -21.0971C15.1563 -21.0971 15.1562 -21.0971 15.1562 -21.0971C15.1562 -21.0971 15.1561 -21.0971 15.1561 -21.0971C15.1561 -21.0971 15.156 -21.0971 15.156 -21.0971C15.156 -21.0971 15.1559 -21.0971 15.1559 -21.0971C15.1559 -21.0971 15.1558 -21.0971 15.1558 -21.0971C15.1558 -21.0971 15.1557 -21.0971 15.1557 -21.0971C15.1557 -21.0971 15.1556 -21.0971 15.1556 -21.0971C15.1556 -21.0971 15.1556 -21.0971 15.1555 -21.0971C15.1555 -21.0971 15.1555 -21.0971 15.1554 -21.0971C15.1554 -21.0971 15.1554 -21.0971 15.1553 -21.0971C15.1553 -21.0971 15.1553 -21.0971 15.1552 -21.0971C15.1552 -21.0971 15.1552 -21.0971 15.1551 -21.0971C15.1551 -21.0971 15.1551 -21.0971 15.155 -21.0971C15.155 -21.0971 15.155 -21.0971 15.1549 -21.0971C15.1549 -21.0971 15.1549 -21.0971 15.1548 -21.0971C15.1548 -21.0971 15.1548 -21.0971 15.1548 -21.0971C15.1547 -21.0971 15.1547 -21.0971 15.1547 -21.0971C15.1546 -21.0971 15.1546 -21.0971 15.1546 -21.0971C15.1545 -21.0971 15.1545 -21.0971 15.1545 -21.0971C15.1544 -21.0971 15.1544 -21.0971 15.1544 -21.0971C15.1543 -21.0971 15.1543 -21.0971 15.1543 -21.0971C15.1542 -21.0971 15.1542 -21.0971 15.1542 -21.0971C15.1541 -21.0971 15.1541 -21.0971 15.1541 -21.0971C15.1541 -21.0971 15.154 -21.0971 15.154 -21.0971C15.154 -21.0971 15.1539 -21.0971 15.1539 -21.0971C15.1539 -21.0971 15.1538 -21.0971 15.1538 -21.0971C15.1538 -21.0971 15.1537 -21.0971 15.1537 -21.0971C15.1537 -21.0971 15.1536 -21.0971 15.1536 -21.0971C15.1536 -21.0971 15.1535 -21.0971 15.1535 -21.0971C15.1535 -21.0971 15.1534 -21.0971 15.1534 -21.0971C15.1534 -21.0971 15.1533 -21.0971 15.1533 -21.0971C15.1533 -21.0971 15.1533 -21.0971 15.1532 -21.0971C15.1532 -21.0971 15.1532 -21.0971 15.1531 -21.0971C15.1531 -21.0971 15.1531 -21.0971 15.153 -21.0971C15.153 -21.0971 15.153 -21.0971 15.1529 -21.0971C15.1529 -21.0971 15.1529 -21.0971 15.1528 -21.0971C15.1528 -21.0971 15.1528 -21.0971 15.1527 -21.0971C15.1527 -21.0971 15.1527 -21.0971 15.1526 -21.0971C15.1526 -21.0971 15.1526 -21.0971 15.1525 -21.0971C15.1525 -21.0971 15.1525 -21.0971 15.1525 -21.0971C15.1524 -21.0971 15.1524 -21.0971 15.1524 -21.0971C15.1523 -21.0971 15.1523 -21.0971 15.1523 -21.0971C15.1522 -21.0971 15.1522 -21.0971 15.1522 -21.0971C15.1521 -21.0971 15.1521 -21.0971 15.1521 -21.0971C15.152 -21.0971 15.152 -21.0971 15.152 -21.0971C15.1519 -21.0971 15.1519 -21.0971 15.1519 -21.0971C15.1518 -21.0971 15.1518 -21.0971 15.1518 -21.0971C15.1517 -21.0971 15.1517 -21.0971 15.1517 -21.0971C15.1517 -21.0971 15.1516 -21.0971 15.1516 -21.0971C15.1516 -21.0971 15.1515 -21.0971 15.1515 -21.0971C15.1515 -21.0971 15.1514 -21.0971 15.1514 -21.0971C15.1514 -21.0971 15.1513 -21.0971 15.1513 -21.0971C15.1513 -21.0971 15.1512 -21.0971 15.1512 -21.0971C15.1512 -21.0971 15.1511 -21.0971 15.1511 -21.0971C15.1511 -21.0971 15.151 -21.0971 15.151 -21.0971C15.151 -21.0971 15.1509 -21.0971 15.1509 -21.0971C15.1509 -21.0971 15.1509 -21.0971 15.1508 -21.0971C15.1508 -21.0971 15.1508 -21.0971 15.1507 -21.0971C15.1507 -21.0971 15.1507 -21.0971 15.1506 -21.0971C15.1506 -21.0971 15.1506 -21.0971 15.1505 -21.0971C15.1505 -21.0971 15.1505 -21.0971 15.1504 -21.0971C15.1504 -21.0971 15.1504 -21.0971 15.1503 -21.0971C15.1503 -21.0971 15.1503 -21.0971 15.1502 -21.0971C15.1502 -21.0971 15.1502 -21.0971 15.1502 -21.0971C15.1501 -21.0971 15.1501 -21.0971 15.1501 -21.0971C15.15 -21.0971 15.15 -21.0971 15.15 -21.0971C15.1499 -21.0971 15.1499 -21.0971 15.1499 -21.0971C15.1498 -21.0971 15.1498 -21.0971 15.1498 -21.0971C15.1497 -21.0971 15.1497 -21.0971 15.1497 -21.0971C15.1496 -21.0971 15.1496 -21.0971 15.1496 -21.0971C15.1495 -21.0971 15.1495 -21.0971 15.1495 -21.0971C15.1494 -21.0971 15.1494 -21.0971 15.1494 -21.0971C15.1494 -21.0971 15.1493 -21.0971 15.1493 -21.0971C15.1493 -21.0971 15.1492 -21.0971 15.1492 -21.0971C15.1492 -21.0971 15.1491 -21.0971 15.1491 -21.0971C15.1491 -21.0971 15.149 -21.0971 15.149 -21.0971C15.149 -21.0971 15.1489 -21.0971 15.1489 -21.0971C15.1489 -21.0971 15.1488 -21.0971 15.1488 -21.0971C15.1488 -21.0971 15.1487 -21.0971 15.1487 -21.0971C15.1487 -21.0971 15.1486 -21.0971 15.1486 -21.0971C15.1486 -21.0971 15.1486 -21.0971 15.1485 -21.0971C15.1485 -21.0971 15.1485 -21.0971 15.1484 -21.0971C15.1484 -21.0971 15.1484 -21.0971 15.1483 -21.0971C15.1483 -21.0971 15.1483 -21.0971 15.1482 -21.0971C15.1482 -21.0971 15.1482 -21.0971 15.1481 -21.0971C15.1481 -21.0971 15.1481 -21.0971 15.148 -21.0971C15.148 -21.0971 15.148 -21.0971 15.1479 -21.0971C15.1479 -21.0971 15.1479 -21.0971 15.1478 -21.0971C15.1478 -21.0971 15.1478 -21.0971 15.1478 -21.0971C15.1477 -21.0971 15.1477 -21.0971 15.1477 -21.0971C15.1476 -21.0971 15.1476 -21.0971 15.1476 -21.0971C15.1475 -21.0971 15.1475 -21.0971 15.1475 -21.0971C15.1474 -21.0971 15.1474 -21.0971 15.1474 -21.0971C15.1473 -21.0971 15.1473 -21.0971 15.1473 -21.0971C15.1472 -21.0971 15.1472 -21.0971 15.1472 -21.0971C15.1471 -21.0971 15.1471 -21.0971 15.1471 -21.0971C15.147 -21.0971 15.147 -21.0971 15.147 -21.0971C15.147 -21.0971 15.1469 -21.0971 15.1469 -21.0971C15.1469 -21.0971 15.1468 -21.0971 15.1468 -21.0971C15.1468 -21.0971 15.1467 -21.0971 15.1467 -21.0971C15.1467 -21.0971 15.1466 -21.0971 15.1466 -21.0971C15.1466 -21.0971 15.1465 -21.0971 15.1465 -21.0971C15.1465 -21.0971 15.1464 -21.0971 15.1464 -21.0971C15.1464 -21.0971 15.1463 -21.0971 15.1463 -21.0971C15.1463 -21.0971 15.1462 -21.0971 15.1462 -21.0971C15.1462 -21.0971 15.1462 -21.0971 15.1461 -21.0971C15.1461 -21.0971 15.1461 -21.0971 15.146 -21.0971C15.146 -21.0971 15.146 -21.0971 15.1459 -21.0971C15.1459 -21.0971 15.1459 -21.0971 15.1458 -21.0971C15.1458 -21.0971 15.1458 -21.0971 15.1457 -21.0971C15.1457 -21.0971 15.1457 -21.0971 15.1456 -21.0971C15.1456 -21.0971 15.1456 -21.0971 15.1455 -21.0971C15.1455 -21.0971 15.1455 -21.0971 15.1454 -21.0971C15.1454 -21.0971 15.1454 -21.0971 15.1454 -21.0971C15.1453 -21.0971 15.1453 -21.0971 15.1453 -21.0971C15.1452 -21.0971 15.1452 -21.0971 15.1452 -21.0971C15.1451 -21.0971 15.1451 -21.0971 15.1451 -21.0971C15.145 -21.0971 15.145 -21.0971 15.145 -21.0971C15.1449 -21.0971 15.1449 -21.0971 15.1449 -21.0971C15.1448 -21.0971 15.1448 -21.0971 15.1448 -21.0971C15.1447 -21.0971 15.1447 -21.0971 15.1447 -21.0971C15.1446 -21.0971 15.1446 -21.0971 15.1446 -21.0971C15.1446 -21.0971 15.1445 -21.0971 15.1445 -21.0971C15.1445 -21.0971 15.1444 -21.0971 15.1444 -21.0971C15.1444 -21.0971 15.1443 -21.0971 15.1443 -21.0971C15.1443 -21.0971 15.1442 -21.0971 15.1442 -21.0971C15.1442 -21.0971 15.1441 -21.0971 15.1441 -21.0971C15.1441 -21.0971 15.144 -21.0971 15.144 -21.0971C15.144 -21.0971 15.1439 -21.0971 15.1439 -21.0971C15.1439 -21.0971 15.1438 -21.0971 15.1438 -21.0971C15.1438 -21.0971 15.1438 -21.0971 15.1437 -21.0971C15.1437 -21.0971 15.1437 -21.0971 15.1436 -21.0971C15.1436 -21.0971 15.1436 -21.0971 15.1435 -21.0971C15.1435 -21.0971 15.1435 -21.0971 15.1434 -21.0971C15.1434 -21.0971 15.1434 -21.0971 15.1433 -21.0971C15.1433 -21.0971 15.1433 -21.0971 15.1432 -21.0971C15.1432 -21.0971 15.1432 -21.0971 15.1431 -21.0971C15.1431 -21.0971 15.1431 -21.0971 15.143 -21.0971C15.143 -21.0971 15.143 -21.0971 15.143 -21.0971C15.1429 -21.0971 15.1429 -21.0971 15.1429 -21.0971C15.1428 -21.0971 15.1428 -21.0971 15.1428 -21.0971C15.1427 -21.0971 15.1427 -21.0971 15.1427 -21.0971C15.1426 -21.0971 15.1426 -21.0971 15.1426 -21.0971C15.1425 -21.0971 15.1425 -21.0971 15.1425 -21.0971C15.1424 -21.0971 15.1424 -21.0971 15.1424 -21.0971C15.1423 -21.0971 15.1423 -21.0971 15.1423 -21.0971C15.1422 -21.0971 15.1422 -21.0971 15.1422 -21.0971C15.1422 -21.0971 15.1421 -21.0971 15.1421 -21.0971C15.1421 -21.0971 15.142 -21.0971 15.142 -21.0971C15.142 -21.0971 15.1419 -21.0971 15.1419 -21.0971C15.1419 -21.0971 15.1418 -21.0971 15.1418 -21.0971C15.1418 -21.0971 15.1417 -21.0971 15.1417 -21.0971C15.1417 -21.0971 15.1416 -21.0971 15.1416 -21.0971C15.1416 -21.0971 15.1415 -21.0971 15.1415 -21.0971C15.1415 -21.0971 15.1414 -21.0971 15.1414 -21.0971C15.1414 -21.0971 15.1414 -21.0971 15.1413 -21.0971C15.1413 -21.0971 15.1413 -21.0971 15.1412 -21.0971C15.1412 -21.0971 15.1412 -21.0971 15.1411 -21.0971C15.1411 -21.0971 15.1411 -21.0971 15.141 -21.0971C15.141 -21.0971 15.141 -21.0971 15.1409 -21.0971C15.1409 -21.0971 15.1409 -21.0971 15.1408 -21.0971C15.1408 -21.0971 15.1408 -21.0971 15.1407 -21.0971C15.1407 -21.0971 15.1407 -21.0971 15.1406 -21.0971C15.1406 -21.0971 15.1406 -21.0971 15.1406 -21.0971C15.1405 -21.0971 15.1405 -21.0971 15.1405 -21.0971C15.1404 -21.0971 15.1404 -21.0971 15.1404 -21.0971C15.1403 -21.0971 15.1403 -21.0971 15.1403 -21.0971C15.1402 -21.0971 15.1402 -21.0971 15.1402 -21.0971C15.1401 -21.0971 15.1401 -21.0971 15.1401 -21.0971C15.14 -21.0971 15.14 -21.0971 15.14 -21.0971C15.1399 -21.0971 15.1399 -21.0971 15.1399 -21.0971C15.1398 -21.0971 15.1398 -21.0971 15.1398 -21.0971C15.1397 -21.0971 15.1397 -21.0971 15.1397 -21.0971C15.1397 -21.0971 15.1396 -21.0971 15.1396 -21.0971C15.1396 -21.0971 15.1395 -21.0971 15.1395 -21.0971C15.1395 -21.0971 15.1394 -21.0971 15.1394 -21.0971C15.1394 -21.0971 15.1393 -21.0971 15.1393 -21.0971C15.1393 -21.0971 15.1392 -21.0971 15.1392 -21.0971C15.1392 -21.0971 15.1391 -21.0971 15.1391 -21.0971C15.1391 -21.0971 15.139 -21.0971 15.139 -21.0971C15.139 -21.0971 15.1389 -21.0971 15.1389 -21.0971C15.1389 -21.0971 15.1389 -21.0971 15.1388 -21.0971C15.1388 -21.0971 15.1388 -21.0971 15.1387 -21.0971C15.1387 -21.0971 15.1387 -21.0971 15.1386 -21.0971C15.1386 -21.0971 15.1386 -21.0971 15.1385 -21.0971C15.1385 -21.0971 15.1385 -21.0971 15.1384 -21.0971C15.1384 -21.0971 15.1384 -21.0971 15.1383 -21.0971C15.1383 -21.0971 15.1383 -21.0971 15.1382 -21.0971C15.1382 -21.0971 15.1382 -21.0971 15.1381 -21.0971C15.1381 -21.0971 15.1381 -21.0971 15.1381 -21.0971C15.138 -21.0971 15.138 -21.0971 15.138 -21.0971C15.1379 -21.0971 15.1379 -21.0971 15.1379 -21.0971C15.1378 -21.0971 15.1378 -21.0971 15.1378 -21.0971C15.1377 -21.0971 15.1377 -21.0971 15.1377 -21.0971C15.1376 -21.0971 15.1376 -21.0971 15.1376 -21.0971C15.1375 -21.0971 15.1375 -21.0971 15.1375 -21.0971C15.1374 -21.0971 15.1374 -21.0971 15.1374 -21.0971C15.1373 -21.0971 15.1373 -21.0971 15.1373 -21.0971C15.1372 -21.0971 15.1372 -21.0971 15.1372 -21.0971C15.1372 -21.0971 15.1371 -21.0971 15.1371 -21.0971C15.1371 -21.0971 15.137 -21.0971 15.137 -21.0971C15.137 -21.0971 15.1369 -21.0971 15.1369 -21.0971C15.1369 -21.0971 15.1368 -21.0971 15.1368 -21.0971C15.1368 -21.0971 15.1367 -21.0971 15.1367 -21.0971C15.1367 -21.0971 15.1366 -21.0971 15.1366 -21.0971C15.1366 -21.0971 15.1365 -21.0971 15.1365 -21.0971C15.1365 -21.0971 15.1364 -21.0971 15.1364 -21.0971C15.1364 -21.0971 15.1364 -21.0971 15.1363 -21.0971C15.1363 -21.0971 15.1363 -21.0971 15.1362 -21.0971C15.1362 -21.0971 15.1362 -21.0971 15.1361 -21.0971C15.1361 -21.0971 15.1361 -21.0971 15.136 -21.0971C15.136 -21.0971 15.136 -21.0971 15.1359 -21.0971C15.1359 -21.0971 15.1359 -21.0971 15.1358 -21.0971C15.1358 -21.0971 15.1358 -21.0971 15.1357 -21.0971C15.1357 -21.0971 15.1357 -21.0971 15.1356 -21.0971C15.1356 -21.0971 15.1356 -21.0971 15.1356 -21.0971C15.1355 -21.0971 15.1355 -21.0971 15.1355 -21.0971C15.1354 -21.0971 15.1354 -21.0971 15.1354 -21.0971C15.1353 -21.0971 15.1353 -21.0971 15.1353 -21.0971C15.1352 -21.0971 15.1352 -21.0971 15.1352 -21.0971C15.1351 -21.0971 15.1351 -21.0971 15.1351 -21.0971C15.135 -21.0971 15.135 -21.0971 15.135 -21.0971C15.1349 -21.0971 15.1349 -21.0971 15.1349 -21.0971C15.1348 -21.0971 15.1348 -21.0971 15.1348 -21.0971C15.1347 -21.0971 15.1347 -21.0971 15.1347 -21.0971C15.1347 -21.0971 15.1346 -21.0971 15.1346 -21.0971C15.1346 -21.0971 15.1345 -21.0971 15.1345 -21.0971C15.1345 -21.0971 15.1344 -21.0971 15.1344 -21.0971C15.1344 -21.0971 15.1343 -21.0971 15.1343 -21.0971C15.1343 -21.0971 15.1342 -21.0971 15.1342 -21.0971C15.1342 -21.0971 15.1341 -21.0971 15.1341 -21.0971C15.1341 -21.0971 15.134 -21.0971 15.134 -21.0971C15.134 -21.0971 15.1339 -21.0971 15.1339 -21.0971C15.1339 -21.0971 15.1339 -21.0971 15.1338 -21.0971C15.1338 -21.0971 15.1338 -21.0971 15.1337 -21.0971C15.1337 -21.0971 15.1337 -21.0971 15.1336 -21.0971C15.1336 -21.0971 15.1336 -21.0971 15.1335 -21.0971C15.1335 -21.0971 15.1335 -21.0971 15.1334 -21.0971C15.1334 -21.0971 15.1334 -21.0971 15.1333 -21.0971C15.1333 -21.0971 15.1333 -21.0971 15.1332 -21.0971C15.1332 -21.0971 15.1332 -21.0971 15.1331 -21.0971C15.1331 -21.0971 15.1331 -21.0971 15.133 -21.0971C15.133 -21.0971 15.133 -21.0971 15.133 -21.0971C15.1329 -21.0971 15.1329 -21.0971 15.1329 -21.0971C15.1328 -21.0971 15.1328 -21.0971 15.1328 -21.0971C15.1327 -21.0971 15.1327 -21.0971 15.1327 -21.0971C15.1326 -21.0971 15.1326 -21.0971 15.1326 -21.0971C15.1325 -21.0971 15.1325 -21.0971 15.1325 -21.0971C15.1324 -21.0971 15.1324 -21.0971 15.1324 -21.0971C15.1323 -21.0971 15.1323 -21.0971 15.1323 -21.0971C15.1322 -21.0971 15.1322 -21.0971 15.1322 -21.0971V42.9029ZM15.4362 42.9018C7.8035 42.9626 0.458126 39.9947 -4.9899 34.6487L39.8353 -11.0318C33.1916 -17.551 24.2342 -21.1703 14.9265 -21.0961L15.4362 42.9018ZM-4.82842 34.8061C-7.62682 32.0985 -9.85466 28.8579 -11.3805 25.2753L47.5016 0.197329C45.6787 -4.08274 43.0171 -7.95434 39.6738 -11.1891L-4.82842 34.8061ZM-11.3805 25.2753C-12.9063 21.6928 -13.6991 17.8411 -13.7123 13.9472L50.2874 13.7311C50.2717 9.07912 49.3244 4.47736 47.5016 0.197329L-11.3805 25.2753ZM-13.7109 13.5258C-13.636 5.87961 -10.5569 -1.43041 -5.13844 -6.82582L40.0197 38.5255C46.5088 32.064 50.1964 23.3096 50.286 14.1525L-13.7109 13.5258ZM-5.1218 -6.84237C-5.14409 -6.82021 -5.88357 -6.0956 -6.65798 -5.2418C-7.50672 -4.30606 -8.87486 -2.70653 -10.2597 -0.533422C-13.5037 4.55708 -15.4894 10.6649 -15.567 17.3077L48.4287 18.0545C48.3609 23.8619 46.596 29.3365 43.7124 33.8615C41.6282 37.132 39.1255 39.4146 40.003 38.5421L-5.1218 -6.84237ZM16.3007 -14.3186L13.7656 -14.3083L14.026 49.6912L16.561 49.6808L16.3007 -14.3186ZM45.8935 17.305C45.7176 2.73815 36.5762 -5.74924 35.4722 -6.84807L-9.67579 38.5134C-9.68023 38.509 -10.2078 37.9905 -10.8681 37.2297C-11.5645 36.4273 -12.6744 35.0573 -13.806 33.1767C-16.4364 28.8055 -18.0353 23.5931 -18.1019 18.0778L45.8935 17.305ZM35.4873 -6.833C38.2639 -4.06577 40.4544 -0.767473 41.9282 2.86498L-17.3768 26.9258C-15.6182 31.2604 -13.0042 35.1962 -9.69092 38.4983L35.4873 -6.833ZM41.9282 2.86498C43.4019 6.49748 44.1286 10.3897 44.065 14.3092L-19.9266 13.2695C-20.0026 17.9467 -19.1354 22.5912 -17.3768 26.9258L41.9282 2.86498ZM44.0646 14.3296C43.7705 31.7482 29.5176 42.6876 15.6192 42.8992L14.6451 -21.0934C-2.52145 -20.8321 -19.5801 -7.24915 -19.9263 13.2491L44.0646 14.3296ZM49.0531 19.4974C49.0531 10.878 45.6291 2.61144 39.5341 -3.48355L-5.72075 41.7713C-11.6282 35.8638 -14.9469 27.8517 -14.9469 19.4974H49.0531ZM39.5341 -3.48355C33.4391 -9.57855 25.1726 -13.0026 16.5531 -13.0026V50.9974C8.19889 50.9974 0.186714 47.6787 -5.72075 41.7713L39.5341 -3.48355ZM16.5531 -13.0026H13.8031V50.9974H16.5531V-13.0026ZM13.8031 -13.0026C5.18367 -13.0026 -3.08286 -9.57855 -9.17785 -3.48355L36.077 41.7713C30.1695 47.6787 22.1573 50.9974 13.8031 50.9974V-13.0026ZM-9.17785 -3.48355C-15.2728 2.61144 -18.6969 10.878 -18.6969 19.4974H45.3031C45.3031 27.8517 41.9844 35.8638 36.077 41.7713L-9.17785 -3.48355ZM-18.6969 19.4974V21.1224H45.3031V19.4974H-18.6969ZM-18.6969 21.1224C-18.6969 29.7419 -15.2728 38.0084 -9.17785 44.1034L36.077 -1.15144C41.9844 4.75601 45.3031 12.7682 45.3031 21.1224H-18.6969ZM-9.17785 44.1034C-3.08286 50.1984 5.18367 53.6224 13.8031 53.6224V-10.3776C22.1573 -10.3776 30.1695 -7.0589 36.077 -1.15144L-9.17785 44.1034ZM13.8031 53.6224H16.5531V-10.3776H13.8031V53.6224ZM16.5531 53.6224C25.1726 53.6224 33.4391 50.1984 39.5341 44.1034L-5.72075 -1.15144C0.186714 -7.0589 8.19889 -10.3776 16.5531 -10.3776V53.6224ZM39.5341 44.1034C45.6291 38.0084 49.0531 29.7419 49.0531 21.1224H-14.9469C-14.9469 12.7682 -11.6282 4.75601 -5.72075 -1.15144L39.5341 44.1034ZM49.0531 21.1224V19.4974H-14.9469V21.1224H49.0531ZM16.0531 -11.3776H14.3031V52.6224H16.0531V-11.3776ZM46.3031 20.6224V19.9974H-17.6969V20.6224H46.3031ZM14.3031 51.9974H16.0531V-12.0026H14.3031V51.9974ZM-15.9469 19.9974V20.6224H48.0531V19.9974H-15.9469Z" fill="#000958" mask="url(#path-5-inside-3_107_5416)"/>
</svg>
