<svg width="56" height="56" viewBox="0 0 56 56" fill="none" xmlns="http://www.w3.org/2000/svg">
<rect width="56" height="56" rx="10" fill="white"/>
<path d="M41.84 19.6269C40.3558 18.8822 38.2904 18.2611 35.8556 17.8516C35.096 16.6496 34.0451 15.6589 32.8005 14.9712C31.5559 14.2836 30.1579 13.9213 28.7359 13.918H28.2143C26.7923 13.9213 25.3942 14.2837 24.1496 14.9714C22.905 15.659 21.8541 16.6498 21.0945 17.8519C18.6577 18.2615 16.5908 18.8761 15.1063 19.6216C12.9195 20.7199 12.4606 21.8988 12.4606 22.6913C12.4606 23.7957 13.3142 25.3817 17.381 26.6571C18.7533 27.0733 20.1546 27.3868 21.5734 27.5949C22.3641 28.6004 23.3724 29.4136 24.5227 29.9732C25.6729 30.5328 26.9351 30.8242 28.2143 30.8257H28.7363C30.0154 30.8243 31.2775 30.533 32.4278 29.9735C33.578 29.4141 34.5864 28.6011 35.3772 27.5957C36.796 27.3869 38.1973 27.0727 39.5695 26.6556C43.6363 25.3805 44.4899 23.7977 44.4899 22.6933C44.4896 21.9002 44.03 20.7258 41.84 19.6269ZM28.2143 15.0451H28.7363C32.6062 15.0451 35.783 18.0845 36.026 21.8943L33.3711 22.3704C30.1326 22.9453 26.8182 22.9465 23.5793 22.374L20.9241 21.8928C21.1672 18.0827 24.3439 15.0451 28.2143 15.0451ZM28.7363 29.6985H28.2143C26.4095 29.6977 24.6685 29.0308 23.3251 27.8256C25.0355 28.01 26.7546 28.1017 28.4749 28.1004C30.1953 28.1011 31.9144 28.0088 33.6247 27.8238C32.2815 29.0293 30.5408 29.6968 28.7359 29.6985H28.7363ZM39.2322 25.5833C36.3666 26.4818 32.5464 26.9766 28.4749 26.9766C24.4035 26.9766 20.5832 26.4818 17.718 25.5833C15.1316 24.7723 13.5875 23.6925 13.5875 22.6949C13.5875 22.023 14.3065 21.2918 15.612 20.636C16.8256 20.0265 18.4779 19.5125 20.4327 19.1315C20.0021 20.1599 19.7809 21.2639 19.782 22.3788C19.782 22.5113 19.8287 22.6395 19.9138 22.741C19.999 22.8425 20.1172 22.9108 20.2476 22.9338L23.383 23.4875C25.064 23.785 26.7678 23.9348 28.4749 23.9352C30.1821 23.9348 31.8859 23.7851 33.5669 23.4876L36.7022 22.9339C36.8327 22.9108 36.9508 22.8426 37.036 22.7411C37.1211 22.6396 37.1678 22.5113 37.1678 22.3789C37.1689 21.264 36.9477 20.16 36.5171 19.1316C38.47 19.512 40.121 20.0255 41.3344 20.6344C42.6422 21.2906 43.3624 22.0223 43.3624 22.695C43.3624 23.6925 41.8183 24.7723 39.2318 25.5833H39.2322Z" fill="#000958"/>
<path d="M28.4045 32.7281C28.255 32.7281 28.1117 32.7875 28.006 32.8932C27.9003 32.9989 27.8409 33.1423 27.8409 33.2917V42.3796C27.8409 42.5291 27.9003 42.6725 28.006 42.7781C28.1117 42.8838 28.255 42.9432 28.4045 42.9432C28.554 42.9432 28.6973 42.8838 28.803 42.7781C28.9087 42.6725 28.9681 42.5291 28.9681 42.3796V33.2917C28.9681 33.1423 28.9087 32.9989 28.803 32.8932C28.6973 32.7875 28.554 32.7281 28.4045 32.7281ZM33.2735 33.0761C33.2207 32.9362 33.1146 32.8231 32.9784 32.7615C32.8422 32.6999 32.6871 32.695 32.5472 32.7477C32.4074 32.8005 32.2942 32.9067 32.2327 33.0429C32.1711 33.1791 32.1661 33.3341 32.2189 33.474L35.0901 41.0834C35.1429 41.2232 35.249 41.3364 35.3852 41.398C35.5214 41.4595 35.6765 41.4645 35.8164 41.4117C35.9562 41.3589 36.0694 41.2528 36.131 41.1166C36.1925 40.9803 36.1975 40.8253 36.1447 40.6854L33.2735 33.0761ZM24.3309 32.7477C24.2617 32.7216 24.188 32.7094 24.114 32.7117C24.04 32.7141 23.9672 32.731 23.8998 32.7615C23.8323 32.792 23.7715 32.8354 23.7209 32.8894C23.6703 32.9434 23.6307 33.0068 23.6046 33.0761L20.7332 40.6853C20.7071 40.7546 20.6948 40.8283 20.6972 40.9023C20.6995 40.9763 20.7164 41.049 20.7469 41.1165C20.8085 41.2527 20.9217 41.3589 21.0615 41.4116C21.1308 41.4378 21.2045 41.45 21.2785 41.4476C21.3524 41.4453 21.4252 41.4284 21.4927 41.3979C21.6289 41.3363 21.735 41.2232 21.7878 41.0833L24.6592 33.474C24.712 33.3341 24.7071 33.1791 24.6455 33.0429C24.5839 32.9067 24.4708 32.8005 24.3309 32.7477Z" fill="#000958"/>
<path d="M28.475 22.3298C28.9651 22.3298 29.4441 22.1845 29.8516 21.9122C30.2591 21.6399 30.5767 21.2529 30.7642 20.8002C30.9518 20.3474 31.0009 19.8491 30.9052 19.3685C30.8096 18.8878 30.5736 18.4463 30.2271 18.0998C29.8805 17.7532 29.439 17.5172 28.9583 17.4216C28.4777 17.326 27.9794 17.3751 27.5267 17.5627C27.0739 17.7502 26.6869 18.0678 26.4146 18.4753C26.1424 18.8828 25.9971 19.3619 25.9971 19.852C25.9978 20.5089 26.2591 21.1387 26.7237 21.6033C27.1882 22.0678 27.818 22.3291 28.475 22.3298ZM28.475 18.5013C28.7421 18.5013 29.0033 18.5805 29.2254 18.7289C29.4475 18.8773 29.6206 19.0883 29.7229 19.3351C29.8251 19.5819 29.8518 19.8535 29.7997 20.1155C29.7476 20.3775 29.619 20.6182 29.4301 20.8071C29.2412 20.996 29.0005 21.1246 28.7385 21.1768C28.4765 21.2289 28.2049 21.2021 27.9581 21.0999C27.7113 20.9977 27.5003 20.8245 27.3519 20.6024C27.2035 20.3803 27.1243 20.1191 27.1243 19.852C27.1247 19.4939 27.2671 19.1506 27.5203 18.8973C27.7735 18.6441 28.1169 18.5017 28.475 18.5013Z" fill="#000958"/>
</svg>
