<svg width="33" height="33" viewBox="0 0 33 33" fill="none" xmlns="http://www.w3.org/2000/svg">
<mask id="mask0_107_2715" style="mask-type:alpha" maskUnits="userSpaceOnUse" x="0" y="0" width="33" height="33">
<rect x="32.5376" y="0.931641" width="32" height="32" transform="rotate(90 32.5376 0.931641)" fill="url(#paint0_linear_107_2715)"/>
</mask>
<g mask="url(#mask0_107_2715)">
<path d="M11.3989 6.80158L11.3989 10.1936C11.3989 10.3403 11.4572 10.4809 11.5609 10.5847C11.6646 10.6884 11.8052 10.7466 11.9518 10.7466L21.1231 10.7466C21.2698 10.7466 21.4104 10.6884 21.5141 10.5847C21.6178 10.4809 21.676 10.3403 21.676 10.1936L21.676 6.80158C21.676 6.6549 21.6178 6.51423 21.5141 6.41051C21.4104 6.3068 21.2698 6.24853 21.1231 6.24853L11.9518 6.24853C11.8052 6.24853 11.6646 6.3068 11.5609 6.41051C11.4572 6.51423 11.3989 6.6549 11.3989 6.80158ZM20.5703 7.35462L20.5703 9.64055L12.5047 9.64055L12.5047 7.35462L20.5703 7.35462ZM22.2595 13.7825C22.2595 13.8621 22.2766 13.9407 22.3098 14.0131C22.3429 14.0854 22.3913 14.1498 22.4515 14.2017L23.3122 14.9435C23.4233 15.0393 23.5679 15.0869 23.7141 15.076C23.8603 15.0651 23.9963 14.9966 24.092 14.8855C24.1394 14.8304 24.1754 14.7666 24.1982 14.6976C24.2209 14.6287 24.2298 14.5559 24.2244 14.4834C24.2135 14.3372 24.145 14.2012 24.0339 14.1055L23.1721 13.364C23.0915 13.2968 22.9935 13.2538 22.8894 13.24C22.7854 13.2261 22.6795 13.242 22.5841 13.2858C22.4887 13.3295 22.4076 13.3994 22.3501 13.4873C22.2927 13.5752 22.2613 13.6775 22.2595 13.7825ZM24.0339 2.8908C24.1413 2.79405 24.2066 2.65906 24.2157 2.51475C24.2249 2.37044 24.1771 2.2283 24.0828 2.11877C23.9884 2.00923 23.8549 1.94102 23.7109 1.92875C23.5668 1.91648 23.4237 1.96113 23.3122 2.05312L22.4515 2.79494C22.393 2.84116 22.3445 2.89875 22.3088 2.96424C22.2731 3.02973 22.251 3.10176 22.2438 3.17601C22.2367 3.25025 22.2446 3.32518 22.2672 3.39627C22.2898 3.46737 22.3265 3.53317 22.3751 3.58971C22.4237 3.64625 22.4833 3.69236 22.5502 3.72527C22.6171 3.75819 22.69 3.77722 22.7645 3.78123C22.8389 3.78524 22.9134 3.77414 22.9835 3.7486C23.0536 3.72306 23.1177 3.68361 23.1721 3.63262L24.0339 2.8908ZM9.04107 14.1055C8.98605 14.1529 8.94091 14.2107 8.90822 14.2755C8.87553 14.3404 8.85594 14.411 8.85055 14.4834C8.84515 14.5559 8.85408 14.6287 8.8768 14.6976C8.89953 14.7666 8.93562 14.8304 8.98301 14.8855C9.0304 14.9405 9.08816 14.9856 9.15299 15.0183C9.21782 15.051 9.28846 15.0706 9.36086 15.076C9.43327 15.0814 9.50603 15.0725 9.57499 15.0498C9.64395 15.027 9.70775 14.9909 9.76277 14.9435L10.6234 14.2017C10.7275 14.1042 10.7899 13.9702 10.7976 13.8278C10.8052 13.6854 10.7576 13.5455 10.6646 13.4374C10.5715 13.3292 10.4404 13.2612 10.2984 13.2476C10.1565 13.2339 10.0147 13.2756 9.90283 13.364L9.04107 14.1055ZM10.6234 2.79494L9.76277 2.05312C9.65124 1.96113 9.50813 1.91648 9.3641 1.92875C9.22007 1.94103 9.08657 2.00923 8.9922 2.11877C8.89783 2.2283 8.8501 2.37044 8.85923 2.51475C8.86837 2.65906 8.93364 2.79405 9.04107 2.8908L9.90283 3.63262C10.0147 3.72102 10.1565 3.76274 10.2984 3.74908C10.4404 3.73541 10.5715 3.66742 10.6646 3.5593C10.7576 3.45117 10.8052 3.31128 10.7976 3.16885C10.7899 3.02641 10.7275 2.89245 10.6234 2.79494ZM29.3276 32.3785L29.3276 27.6666C29.3276 27.5199 29.2694 27.3792 29.1657 27.2755C29.062 27.1718 28.9214 27.1135 28.7747 27.1135L23.4051 27.1135L23.4051 19.4951C23.4051 19.3484 23.3468 19.2078 23.2432 19.104C23.1395 19.0003 22.9988 18.9421 22.8522 18.9421L19.195 18.9421L19.195 15.8354C19.195 15.6887 19.1368 15.5481 19.0331 15.4443C18.9294 15.3406 18.7888 15.2824 18.6422 15.2824L14.4328 15.2824C14.2862 15.2824 14.1456 15.3406 14.0419 15.4443C13.9382 15.5481 13.8799 15.6887 13.8799 15.8354L13.8799 18.9421L10.2228 18.9421C10.0761 18.9421 9.93551 19.0003 9.83182 19.104C9.72813 19.2078 9.66988 19.3484 9.66988 19.4951L9.66988 27.1135L4.30023 27.1135C4.1536 27.1135 4.01297 27.1718 3.90928 27.2755C3.8056 27.3792 3.74735 27.5199 3.74735 27.6666L3.74735 32.3785C3.74735 32.5252 3.8056 32.6659 3.90928 32.7696C4.01297 32.8733 4.1536 32.9316 4.30023 32.9316L28.7747 32.9316C28.9214 32.9316 29.062 32.8733 29.1657 32.7696C29.2694 32.6659 29.3276 32.5252 29.3276 32.3785ZM22.2993 22.6891L22.2993 29.4695L19.195 29.4695L19.195 22.6891L22.2993 22.6891ZM18.0893 22.6891L18.0893 27.1135L14.9857 27.1135L14.9857 22.6891L18.0893 22.6891ZM10.7757 21.583L10.7757 20.0482L13.8799 20.0482L13.8799 21.583L10.7757 21.583ZM14.9857 21.583L14.9857 16.3885L18.0893 16.3885L18.0893 21.583L14.9857 21.583ZM19.195 21.583L19.195 20.0482L22.2993 20.0482L22.2993 21.583L19.195 21.583ZM10.7764 27.6666C10.7742 27.6632 10.7764 22.6939 10.7764 22.6891L13.8799 22.6891L13.8799 29.4695L10.7757 29.4695C10.7764 29.4621 10.7742 27.6732 10.7764 27.6666ZM4.85312 31.8255L4.85312 28.2196L9.66988 28.2196L9.66988 30.0225C9.66988 30.1692 9.72813 30.3099 9.83182 30.4136C9.93551 30.5173 10.0761 30.5756 10.2228 30.5756L14.4328 30.5756C14.5795 30.5756 14.7201 30.5173 14.8238 30.4136C14.9275 30.3099 14.9857 30.1692 14.9857 30.0225L14.9857 28.2196L18.0893 28.2196L18.0893 30.0225C18.0893 30.1692 18.1475 30.3099 18.2512 30.4136C18.3549 30.5173 18.4955 30.5756 18.6422 30.5756L22.8522 30.5756C22.9988 30.5756 23.1395 30.5173 23.2432 30.4136C23.3468 30.3099 23.4051 30.1692 23.4051 30.0225L23.4051 28.2196L28.2219 28.2196L28.2219 31.8255L4.85312 31.8255Z" fill="url(#paint1_linear_107_2715)"/>
</g>
<defs>
<linearGradient id="paint0_linear_107_2715" x1="30.5376" y1="0.931641" x2="66.0376" y2="0.931639" gradientUnits="userSpaceOnUse">
<stop stop-color="#4B9EDB"/>
<stop offset="1" stop-color="#E28444"/>
</linearGradient>
<linearGradient id="paint1_linear_107_2715" x1="29.3276" y1="-0.011042" x2="29.3276" y2="34.3849" gradientUnits="userSpaceOnUse">
<stop stop-color="#4B9EDB"/>
<stop offset="1" stop-color="#E28444"/>
</linearGradient>
</defs>
</svg>
