<svg width="33" height="33" viewBox="0 0 33 33" fill="none" xmlns="http://www.w3.org/2000/svg">
<g id="Puzzle Piece" clip-path="url(#clip0_466_148869)">
<path id="Vector" d="M8.59574 27.6802C8.46442 27.6802 8.33438 27.6543 8.21306 27.6041C8.09173 27.5538 7.98149 27.4802 7.88863 27.3873C7.79577 27.2944 7.72212 27.1842 7.67186 27.0629C7.62161 26.9416 7.59574 26.8115 7.59574 26.6802L7.59581 21.3434C7.06234 21.596 6.47363 21.7097 5.88445 21.6737C5.29527 21.6377 4.72475 21.4534 4.22596 21.1377C3.72718 20.822 3.31633 20.3854 3.03164 19.8683C2.74695 19.3512 2.59766 18.7705 2.59766 18.1802C2.59766 17.5899 2.74695 17.0092 3.03164 16.4921C3.31633 15.9751 3.72718 15.5384 4.22596 15.2227C4.72475 14.907 5.29527 14.7227 5.88445 14.6867C6.47363 14.6507 7.06234 14.7644 7.59581 15.0171L7.59575 9.68022C7.59575 9.54889 7.62161 9.41885 7.67186 9.29753C7.72212 9.1762 7.79578 9.06596 7.88864 8.9731C7.9815 8.88024 8.09174 8.80658 8.21307 8.75632C8.3344 8.70607 8.46444 8.6802 8.59576 8.6802L14.4326 8.68027C14.1799 8.1468 14.0663 7.5581 14.1022 6.96892C14.1382 6.37973 14.3226 5.80922 14.6382 5.31043C14.9539 4.81165 15.3906 4.4008 15.9077 4.11611C16.4248 3.83142 17.0054 3.68213 17.5957 3.68213C18.186 3.68213 18.7667 3.83142 19.2838 4.11611C19.8009 4.4008 20.2376 4.81165 20.5532 5.31043C20.8689 5.80922 21.0533 6.37973 21.0892 6.96892C21.1252 7.5581 21.0115 8.1468 20.7589 8.68027L26.5957 8.6802C26.8609 8.6802 27.1153 8.78556 27.3028 8.97309C27.4903 9.16062 27.5957 9.41498 27.5957 9.68019L27.5958 15.0171C27.0623 14.7644 26.4736 14.6507 25.8844 14.6867C25.2952 14.7227 24.7247 14.907 24.2259 15.2227C23.7271 15.5384 23.3163 15.9751 23.0316 16.4921C22.7469 17.0092 22.5976 17.5899 22.5976 18.1802C22.5976 18.7705 22.7469 19.3512 23.0316 19.8683C23.3163 20.3853 23.7271 20.822 24.2259 21.1377C24.7247 21.4534 25.2952 21.6377 25.8844 21.6737C26.4736 21.7097 27.0623 21.596 27.5958 21.3434L27.5957 26.6802C27.5957 26.9454 27.4903 27.1998 27.3028 27.3873C27.1153 27.5748 26.8609 27.6802 26.5957 27.6802L8.59574 27.6802Z" stroke="#000958" stroke-width="2" stroke-linecap="round" stroke-linejoin="round"/>
</g>
<defs>
<clipPath id="clip0_466_148869">
<rect width="32" height="32" fill="white" transform="translate(0.595703 0.680176)"/>
</clipPath>
</defs>
</svg>
