<svg width="32" height="33" viewBox="0 0 32 33" fill="none" xmlns="http://www.w3.org/2000/svg">
<g id="Sensor">
<g id="Group">
<path id="Vector" d="M15.9998 22.2599C18.9406 22.2599 21.3332 19.8674 21.3332 16.9266C21.3332 13.9858 18.9406 11.5933 15.9998 11.5933C13.059 11.5933 10.6665 13.9858 10.6665 16.9266C10.6665 19.8674 13.059 22.2599 15.9998 22.2599ZM15.9998 14.2599C17.4705 14.2599 18.6665 15.4559 18.6665 16.9266C18.6665 18.3973 17.4705 19.5933 15.9998 19.5933C14.5292 19.5933 13.3332 18.3973 13.3332 16.9266C13.3332 15.4559 14.5292 14.2599 15.9998 14.2599Z" fill="#000958"/>
<path id="Vector_2" d="M9.40744 23.5277C9.66784 23.7849 10.007 23.9139 10.3462 23.9139C10.6893 23.9139 11.0324 23.7824 11.2934 23.5193C11.8117 22.9959 11.8077 22.1521 11.285 21.6332C10.0265 20.3864 9.33317 18.7145 9.33317 16.9268C9.33317 15.1391 10.0265 13.4672 11.285 12.2204C11.8078 11.7015 11.8117 10.8577 11.2934 10.3343C10.7745 9.81213 9.93144 9.80893 9.4073 10.3259C7.63984 12.0779 6.6665 14.4223 6.6665 16.9268C6.6665 19.4313 7.63984 21.7757 9.40744 23.5277ZM22.6665 16.9268C22.6665 18.7145 21.9732 20.3864 20.7146 21.6332C20.1918 22.1521 20.188 22.9959 20.7062 23.5193C20.9673 23.7824 21.3104 23.9139 21.6534 23.9139C21.9926 23.9139 22.3318 23.7849 22.5922 23.5277C24.3598 21.7757 25.3332 19.4313 25.3332 16.9268C25.3332 14.4223 24.3598 12.0779 22.5922 10.3259C22.0681 9.8076 21.225 9.81093 20.7061 10.3343C20.1878 10.8577 20.1918 11.7015 20.7145 12.2204C21.9732 13.4672 22.6665 15.1391 22.6665 16.9268Z" fill="#000958"/>
<path id="Vector_3" d="M7.51997 26.7399C7.86237 26.7399 8.20557 26.6084 8.46597 26.346C8.9849 25.8239 8.98224 24.9795 8.45944 24.4605C6.44384 22.4579 5.33317 19.7821 5.33317 16.9267C5.33317 14.0712 6.44384 11.3955 8.45944 9.39281C8.98224 8.87388 8.98477 8.02948 8.46597 7.50734C7.9465 6.98401 7.10144 6.98134 6.5805 7.50094C4.0565 10.008 2.6665 13.3557 2.6665 16.9267C2.6665 20.4976 4.0565 23.8453 6.5805 26.3524C6.84037 26.6109 7.18024 26.7399 7.51997 26.7399ZM23.5337 7.50734C23.0148 8.02948 23.0174 8.87388 23.5402 9.39281C25.5558 11.3955 26.6665 14.0712 26.6665 16.9267C26.6665 19.7821 25.5558 22.4579 23.5402 24.4605C23.0174 24.9795 23.0149 25.8239 23.5337 26.346C23.7941 26.6084 24.1372 26.7399 24.4797 26.7399C24.8196 26.7399 25.1594 26.6109 25.4192 26.3525C27.9432 23.8453 29.3332 20.4976 29.3332 16.9267C29.3332 13.3557 27.9432 10.008 25.4192 7.50094C24.8982 6.98268 24.0532 6.98521 23.5337 7.50734Z" fill="#000958"/>
</g>
</g>
</svg>
