<svg width="33" height="33" viewBox="0 0 33 33" fill="none" xmlns="http://www.w3.org/2000/svg">
<g id="teamwork">
<path id="Vector" d="M11.8706 16.4267H20.5106C20.5801 16.4268 20.6488 16.4123 20.7124 16.3842C20.776 16.3562 20.833 16.3152 20.8799 16.2639C20.9268 16.2126 20.9624 16.1521 20.9846 16.0862C21.0067 16.0203 21.0149 15.9506 21.0086 15.8813L20.8106 13.706C20.7417 12.9135 20.4691 12.1521 20.0192 11.496C19.5694 10.8398 18.9575 10.311 18.2431 9.96104C19.0774 9.50509 19.7361 8.78433 20.1154 7.91247C20.4946 7.04061 20.5727 6.06729 20.3374 5.1461C20.1021 4.2249 19.5668 3.40828 18.8159 2.82507C18.065 2.24187 17.1413 1.92529 16.1906 1.92529C15.2398 1.92529 14.3161 2.24187 13.5652 2.82507C12.8143 3.40828 12.279 4.2249 12.0437 5.1461C11.8084 6.06729 11.8865 7.04061 12.2658 7.91247C12.645 8.78433 13.3038 9.50509 14.1381 9.96104C13.4236 10.311 12.8118 10.8398 12.3619 11.496C11.9121 12.1521 11.6395 12.9135 11.5706 13.706L11.3728 15.8813C11.3665 15.9505 11.3747 16.0203 11.3968 16.0861C11.419 16.152 11.4546 16.2125 11.5014 16.2638C11.5483 16.3151 11.6053 16.3561 11.6688 16.3842C11.7324 16.4122 11.8011 16.4267 11.8706 16.4267ZM8.06327 25.4608C8.89753 25.0048 9.55622 24.284 9.93541 23.4122C10.3146 22.5403 10.3927 21.567 10.1574 20.6458C9.92206 19.7247 9.38673 18.9081 8.63585 18.3249C7.88497 17.7417 6.96129 17.4252 6.01054 17.4252C5.0598 17.4252 4.13611 17.7417 3.38523 18.3249C2.63435 18.9081 2.09902 19.7247 1.86371 20.6458C1.62839 21.567 1.70649 22.5403 2.08568 23.4122C2.46487 24.284 3.12355 25.0048 3.95782 25.4608C3.24337 25.8108 2.63153 26.3395 2.18166 26.9957C1.7318 27.6519 1.45918 28.4132 1.39027 29.2058L1.19252 31.3811C1.18617 31.4503 1.19433 31.5201 1.21648 31.586C1.23862 31.6519 1.27427 31.7125 1.32114 31.7638C1.368 31.8152 1.42507 31.8562 1.48868 31.8842C1.55229 31.9123 1.62105 31.9268 1.69057 31.9267H10.3306C10.4001 31.9268 10.4688 31.9123 10.5324 31.8842C10.596 31.8562 10.653 31.8152 10.6999 31.7639C10.7468 31.7126 10.7824 31.6521 10.8046 31.5862C10.8267 31.5203 10.8349 31.4506 10.8286 31.3813L10.6309 29.206C10.562 28.4134 10.2894 27.652 9.83952 26.9958C9.38964 26.3396 8.77776 25.8108 8.06327 25.4608ZM30.9909 29.206C30.922 28.4135 30.6493 27.6521 30.1995 26.996C29.7496 26.3398 29.1378 25.8111 28.4233 25.461C29.2576 25.0051 29.9163 24.2843 30.2955 23.4124C30.6746 22.5406 30.7527 21.5673 30.5174 20.6461C30.2821 19.7249 29.7468 18.9083 28.9959 18.3252C28.245 17.742 27.3213 17.4254 26.3706 17.4254C25.4198 17.4254 24.4962 17.742 23.7453 18.3252C22.9944 18.9083 22.4591 19.7249 22.2238 20.6461C21.9884 21.5673 22.0665 22.5406 22.4457 23.4124C22.8249 24.2843 23.4836 25.0051 24.3179 25.461C23.6034 25.811 22.9915 26.3397 22.5416 26.9959C22.0917 27.6521 21.819 28.4134 21.7501 29.206L21.5524 31.3813C21.5461 31.4506 21.5542 31.5203 21.5764 31.5862C21.5986 31.6521 21.6343 31.7126 21.6811 31.764C21.728 31.8153 21.7851 31.8563 21.8487 31.8843C21.9123 31.9123 21.9811 31.9268 22.0506 31.9267H30.6906C30.7601 31.9268 30.8288 31.9123 30.8924 31.8842C30.956 31.8562 31.013 31.8152 31.0599 31.7639C31.1068 31.7126 31.1424 31.6521 31.1646 31.5862C31.1867 31.5203 31.1949 31.4506 31.1886 31.3813L30.9909 29.206ZM16.6906 22.6822V18.4267C16.6906 18.2941 16.6379 18.167 16.5441 18.0732C16.4504 17.9794 16.3232 17.9267 16.1906 17.9267C16.058 17.9267 15.9308 17.9794 15.837 18.0732C15.7432 18.167 15.6906 18.2941 15.6906 18.4267V22.6822L11.3834 26.0322C11.2788 26.1137 11.2108 26.2334 11.1944 26.365C11.178 26.4966 11.2146 26.6293 11.296 26.7339C11.3775 26.8386 11.4972 26.9066 11.6288 26.923C11.7604 26.9394 11.8931 26.9028 11.9977 26.8213L16.1906 23.56L20.3834 26.8213C20.4881 26.9028 20.6208 26.9393 20.7524 26.9229C20.884 26.9065 21.0037 26.8385 21.0851 26.7339C21.1666 26.6292 21.2031 26.4965 21.1867 26.3649C21.1704 26.2333 21.1024 26.1137 20.9977 26.0322L16.6906 22.6822Z" fill="#000958"/>
</g>
</svg>
